<svg width="157" height="168" viewBox="0 0 157 168" fill="none" xmlns="http://www.w3.org/2000/svg">
<g filter="url(#filter0_ddd_1734_47784)">
<path d="M33.0516 105.423L78.972 128.548L123.149 105.423V14.9912H33.0516V105.423Z" fill="white"/>
<path d="M124.079 15.3365L32.1216 107.034L79.7857 130.389L124.079 107.954V15.3365Z" fill="#F2F3F2"/>
<path d="M30.029 45.1352V107.379L31.6565 108.184L77.5769 131.31L78.9719 132L80.367 131.31L124.66 108.184L126.287 107.379V12H30.029V45.1352ZM33.0516 105.653V14.9914H123.265V105.653L78.9719 128.779L33.0516 105.653Z" fill="#DCDEDC"/>
<path d="M78.1581 16.4871C78.6231 16.4871 79.0882 16.4871 79.5532 16.6021L78.1581 19.2483C76.0656 19.1333 74.2055 20.744 74.0892 22.815C73.973 24.8859 75.6005 26.7267 77.6931 26.8418H78.1581C79.0882 26.8418 80.0182 26.4966 80.7157 25.9214L82.227 28.4525C81.0645 29.2579 79.6694 29.7181 78.1581 29.7181C74.438 29.8332 71.2991 27.0719 71.1829 23.3902C71.0666 19.7085 73.8567 16.6021 77.5769 16.4871H78.1581ZM82.9245 22.1246L84.6684 25.001L82.9245 27.7622L81.297 25.001H77.9256L79.6694 22.1246H82.9245ZM80.1344 21.0892C80.1344 20.629 80.2507 20.1687 80.4832 19.8236C80.7157 19.4784 81.1807 19.1333 81.5295 18.9032L81.762 18.7881C82.227 18.558 82.3433 18.443 82.3433 18.2128C82.3433 17.9827 81.9945 17.7526 81.762 17.7526C81.297 17.7526 80.9482 17.9827 80.7157 18.443L80.1344 17.8677C80.2507 17.6376 80.4832 17.4075 80.7157 17.1774C81.0645 16.9473 81.4132 16.9473 81.762 16.9473C82.1108 16.9473 82.5758 17.0623 82.8083 17.2924C83.0408 17.5225 83.2733 17.8677 83.2733 18.2128C83.2733 18.7881 82.9245 19.2483 82.227 19.4784L81.8783 19.7085C81.5295 19.9386 81.297 20.0537 81.1807 20.3988H83.2733V21.2042L80.1344 21.0892ZM78.1581 35.4708L89.2023 29.2579V12H66.9977V29.1429L78.1581 35.4708Z" fill="#FF492C"/>
<path d="M128.496 76.1995H27.8201L24.1 84.2532L27.8201 92.3068H128.496L132.1 84.2532L128.496 76.1995Z" fill="#2690CE"/>
<path d="M60.3713 71.1601C59.4413 71.1601 58.6314 71.0144 57.9416 70.7229C57.2364 70.4238 56.6977 70.0019 56.3257 69.4574C55.9459 68.9128 55.756 68.28 55.756 67.559V67.1793C55.756 67.118 55.7754 67.0681 55.8142 67.0297C55.8607 66.9914 55.9111 66.9722 55.9653 66.9722H57.9533C58.0075 66.9722 58.0579 66.9914 58.1044 67.0297C58.1431 67.0681 58.1625 67.118 58.1625 67.1793V67.4324C58.1625 67.8926 58.3795 68.28 58.8135 68.5945C59.2398 68.9166 59.8211 69.0777 60.5573 69.0777C61.1696 69.0777 61.6269 68.9473 61.9291 68.6865C62.2314 68.4257 62.3825 68.1074 62.3825 67.7316C62.3825 67.4478 62.2895 67.2138 62.1035 67.0297C61.9175 66.838 61.6656 66.6693 61.3479 66.5235C61.0224 66.3855 60.5147 66.1899 59.8249 65.9368C59.0422 65.6683 58.3795 65.396 57.837 65.1199C57.3022 64.8437 56.8488 64.4679 56.4768 63.9924C56.1126 63.5168 55.9304 62.9262 55.9304 62.2205C55.9304 61.5302 56.1126 60.9281 56.4768 60.4142C56.8333 59.8926 57.3294 59.4938 57.9649 59.2177C58.6081 58.9415 59.3483 58.8035 60.1853 58.8035C61.0689 58.8035 61.8555 58.9607 62.5453 59.2752C63.2351 59.582 63.7776 60.0154 64.1728 60.5753C64.5604 61.1275 64.7541 61.7757 64.7541 62.5197V62.7728C64.7541 62.8342 64.7347 62.884 64.696 62.9224C64.6495 62.9607 64.5991 62.9799 64.5449 62.9799H62.5453C62.4833 62.9799 62.4329 62.9607 62.3942 62.9224C62.3477 62.884 62.3244 62.8342 62.3244 62.7728V62.6347C62.3244 62.1515 62.1268 61.7412 61.7315 61.4037C61.3285 61.0662 60.7782 60.8974 60.0807 60.8974C59.5304 60.8974 59.1042 61.0125 58.8019 61.2426C58.4919 61.465 58.3369 61.7795 58.3369 62.186C58.3369 62.4775 58.426 62.7191 58.6043 62.9109C58.7903 63.1103 59.0577 63.2867 59.4064 63.4401C59.7629 63.5935 60.3132 63.8044 61.0572 64.0729C61.8865 64.372 62.5337 64.6367 62.9987 64.8668C63.4714 65.0969 63.8977 65.4382 64.2775 65.8907C64.6572 66.3433 64.8471 66.9339 64.8471 67.6625C64.8471 68.744 64.4441 69.5954 63.6381 70.2167C62.8398 70.8457 61.7509 71.1601 60.3713 71.1601ZM74.3451 65.6721C74.4148 66.1093 74.4381 66.5964 74.4148 67.1333C74.3993 67.279 74.3218 67.3519 74.1823 67.3519H68.7997C68.73 67.3519 68.7067 67.3787 68.73 67.4324C68.761 67.6625 68.823 67.8926 68.916 68.1227C69.2183 68.767 69.8344 69.0892 70.7644 69.0892C71.5085 69.0815 72.0975 68.7824 72.5315 68.1918C72.578 68.1228 72.6284 68.0882 72.6826 68.0882C72.7214 68.0882 72.764 68.1112 72.8105 68.1573L74.0661 69.3768C74.1203 69.4382 74.1474 69.4919 74.1474 69.5379C74.1474 69.5609 74.1242 69.6069 74.0777 69.676C73.6979 70.1515 73.2058 70.5158 72.6013 70.769C71.9967 71.0297 71.3341 71.1601 70.6133 71.1601C69.6135 71.1601 68.7687 70.9377 68.079 70.4928C67.3815 70.0403 66.8816 69.4113 66.5793 68.606C66.339 68.0307 66.2189 67.279 66.2189 66.3509C66.2189 65.7143 66.3042 65.1544 66.4747 64.6712C66.7459 63.8581 67.2148 63.21 67.8813 62.7268C68.5479 62.2436 69.3423 62.0019 70.2646 62.0019C71.4271 62.0019 72.361 62.3356 73.0663 63.0029C73.7715 63.6702 74.1978 64.5599 74.3451 65.6721ZM70.2762 64.1074C69.5477 64.1074 69.0671 64.4449 68.8346 65.1199C68.7881 65.2733 68.7455 65.4574 68.7067 65.6721C68.7067 65.7258 68.7377 65.7527 68.7997 65.7527H71.8107C71.8805 65.7527 71.9037 65.7258 71.8805 65.6721C71.8262 65.3423 71.7991 65.1812 71.7991 65.1889C71.6906 64.8437 71.5085 64.5753 71.2527 64.3835C70.9892 64.1995 70.6637 64.1074 70.2762 64.1074ZM80.8669 63.9003C80.8669 63.954 80.8475 64 80.8088 64.0384C80.7623 64.0844 80.7119 64.1074 80.6577 64.1074H78.9836C78.9294 64.1074 78.9022 64.1343 78.9022 64.1879V67.8466C78.9022 68.2225 78.9797 68.5063 79.1347 68.698C79.2897 68.8821 79.5416 68.9741 79.8904 68.9741H80.46C80.522 68.9741 80.5724 68.9933 80.6112 69.0317C80.6499 69.07 80.6693 69.1199 80.6693 69.1812V70.815C80.6693 70.9454 80.5995 71.0182 80.46 71.0336C79.9718 71.0566 79.623 71.0681 79.4137 71.0681C78.4527 71.0681 77.7358 70.9109 77.263 70.5964C76.7825 70.2819 76.5345 69.6875 76.519 68.8131V64.1879C76.519 64.1343 76.4919 64.1074 76.4376 64.1074H75.4379C75.3836 64.1074 75.3371 64.0844 75.2983 64.0384C75.2518 64 75.2286 63.954 75.2286 63.9003V62.3586C75.2286 62.3049 75.2518 62.2551 75.2983 62.209C75.3371 62.1707 75.3836 62.1515 75.4379 62.1515H76.4376C76.4919 62.1515 76.519 62.1208 76.519 62.0595V60.0115C76.519 59.9578 76.5423 59.908 76.5888 59.862C76.6275 59.8236 76.674 59.8044 76.7283 59.8044H78.693C78.7472 59.8044 78.7937 59.8236 78.8325 59.862C78.879 59.908 78.9022 59.9578 78.9022 60.0115V62.0595C78.9022 62.1208 78.9294 62.1515 78.9836 62.1515H80.6577C80.7119 62.1515 80.7623 62.1707 80.8088 62.209C80.8475 62.2551 80.8669 62.3049 80.8669 62.3586V63.9003ZM87.5748 62.3586C87.5748 62.3049 87.598 62.2551 87.6445 62.209C87.6833 62.1707 87.7298 62.1515 87.784 62.1515H89.8301C89.8844 62.1515 89.9347 62.1707 89.9812 62.209C90.02 62.2551 90.0394 62.3049 90.0394 62.3586V70.815C90.0394 70.8763 90.02 70.9262 89.9812 70.9646C89.9347 71.0029 89.8844 71.0221 89.8301 71.0221H87.784C87.7298 71.0221 87.6833 71.0029 87.6445 70.9646C87.598 70.9262 87.5748 70.8763 87.5748 70.815V70.2282C87.5748 70.1975 87.5632 70.1784 87.5399 70.1707C87.5166 70.163 87.4934 70.1784 87.4701 70.2167C87.0051 70.8303 86.2844 71.1371 85.3078 71.1371C84.4243 71.1371 83.6996 70.8763 83.1339 70.3548C82.5604 69.8255 82.2736 69.0815 82.2736 68.1227V62.3586C82.2736 62.3049 82.2968 62.2551 82.3433 62.209C82.3821 62.1707 82.4286 62.1515 82.4828 62.1515H84.5057C84.5677 62.1515 84.618 62.1707 84.6568 62.209C84.6956 62.2551 84.7149 62.3049 84.7149 62.3586V67.5245C84.7149 67.9847 84.8428 68.3567 85.0986 68.6405C85.3466 68.932 85.6915 69.0777 86.1332 69.0777C86.5285 69.0777 86.854 68.9588 87.1098 68.721C87.3655 68.4832 87.5205 68.1764 87.5748 67.8006V62.3586ZM99.8512 64.5331C100.06 65.116 100.165 65.8064 100.165 66.6041C100.165 67.4018 100.057 68.1228 99.8396 68.767C99.5683 69.5034 99.1459 70.0863 98.5724 70.5158C97.9989 70.9454 97.2859 71.1601 96.4333 71.1601C95.5963 71.1601 94.9453 70.8725 94.4803 70.2972C94.457 70.2666 94.4338 70.2551 94.4105 70.2627C94.3873 70.2704 94.3756 70.2934 94.3756 70.3318V74.025C94.3756 74.0863 94.3563 74.1362 94.3175 74.1745C94.2788 74.2129 94.2284 74.2321 94.1664 74.2321H92.1319C92.0699 74.2321 92.0196 74.2129 91.9808 74.1745C91.9421 74.1362 91.9227 74.0863 91.9227 74.025V62.3586C91.9227 62.3049 91.9421 62.2551 91.9808 62.209C92.0196 62.1707 92.0699 62.1515 92.1319 62.1515H94.1664C94.2284 62.1515 94.2788 62.1707 94.3175 62.209C94.3563 62.2551 94.3756 62.3049 94.3756 62.3586V62.9224C94.3756 62.9607 94.3873 62.9837 94.4105 62.9914C94.4338 62.9991 94.457 62.9914 94.4803 62.9684C94.9685 62.3318 95.6428 62.0134 96.5031 62.0134C97.3091 62.0134 98.0066 62.2359 98.5957 62.6808C99.1769 63.1256 99.5954 63.7431 99.8512 64.5331ZM97.189 68.3989C97.4757 67.954 97.6191 67.3442 97.6191 66.5695C97.6191 65.8485 97.499 65.2733 97.2587 64.8437C96.9875 64.3529 96.5573 64.1074 95.9683 64.1074C95.4335 64.1074 95.0305 64.3529 94.7593 64.8437C94.519 65.2579 94.3989 65.8409 94.3989 66.5926C94.3989 67.3596 94.5268 67.9578 94.7825 68.3874C95.046 68.8476 95.4413 69.0777 95.9683 69.0777C96.4876 69.0777 96.8945 68.8514 97.189 68.3989ZM58.3601 43.559C58.3601 43.6204 58.3369 43.6702 58.2904 43.7086C58.2516 43.7469 58.2051 43.7661 58.1509 43.7661H52.4196C52.3653 43.7661 52.3382 43.7968 52.3382 43.8581V46.5274C52.3382 46.5887 52.3653 46.6194 52.4196 46.6194H56.1746C56.2288 46.6194 56.2792 46.6386 56.3257 46.6769C56.3644 46.7229 56.3838 46.7728 56.3838 46.8265V48.4948C56.3838 48.5561 56.3644 48.606 56.3257 48.6443C56.2792 48.6903 56.2288 48.7134 56.1746 48.7134H52.4196C52.3653 48.7134 52.3382 48.7402 52.3382 48.7939V51.5897C52.3382 51.651 52.3653 51.6817 52.4196 51.6817H58.1509C58.2051 51.6817 58.2516 51.7009 58.2904 51.7392C58.3369 51.7776 58.3601 51.8236 58.3601 51.8773V53.5571C58.3601 53.6184 58.3369 53.6683 58.2904 53.7066C58.2516 53.745 58.2051 53.7642 58.1509 53.7642H50.0829C50.0286 53.7642 49.9821 53.745 49.9433 53.7066C49.8968 53.6683 49.8736 53.6184 49.8736 53.5571V41.8907C49.8736 41.837 49.8968 41.7872 49.9433 41.7412C49.9821 41.7028 50.0286 41.6836 50.0829 41.6836H58.1509C58.2051 41.6836 58.2516 41.7028 58.2904 41.7412C58.3369 41.7872 58.3601 41.837 58.3601 41.8907V43.559ZM63.4869 44.7555C64.2387 44.7555 64.913 44.8859 65.5098 45.1467C66.0988 45.4075 66.5599 45.7603 66.8932 46.2052C67.2187 46.6577 67.3815 47.1601 67.3815 47.7124V53.5571C67.3815 53.6184 67.3621 53.6683 67.3233 53.7066C67.2846 53.745 67.2342 53.7642 67.1722 53.7642H65.1378C65.0757 53.7642 65.0254 53.745 64.9866 53.7066C64.9479 53.6683 64.9285 53.6184 64.9285 53.5571V52.9933C64.9285 52.955 64.9169 52.932 64.8936 52.9243C64.8704 52.9089 64.8471 52.9204 64.8239 52.9588C64.3356 53.5878 63.5489 53.9022 62.4639 53.9022C61.5571 53.9022 60.8286 53.6836 60.2783 53.2464C59.7126 52.8092 59.4297 52.1649 59.4297 51.3135C59.4297 50.4315 59.7474 49.745 60.383 49.2541C61.003 48.7632 61.8943 48.5178 63.0568 48.5178H64.8471C64.9014 48.5178 64.9285 48.4909 64.9285 48.4372V48.0576C64.9285 47.674 64.8122 47.3749 64.5797 47.1601C64.3472 46.953 63.9985 46.8495 63.5334 46.8495C63.1769 46.8495 62.8785 46.9109 62.6383 47.0336C62.398 47.164 62.243 47.3442 62.1733 47.5743C62.1423 47.6971 62.0648 47.7546 61.9408 47.7469L59.8366 47.4708C59.6971 47.4478 59.6312 47.3941 59.6389 47.3097C59.6932 46.8265 59.8908 46.3893 60.2318 45.9981C60.5728 45.6069 61.0262 45.304 61.592 45.0892C62.15 44.8668 62.7817 44.7555 63.4869 44.7555ZM63.1266 52.0959C63.6303 52.0959 64.0566 51.9617 64.4053 51.6932C64.7541 51.4248 64.9285 51.0834 64.9285 50.6693V50.048C64.9285 49.9943 64.9014 49.9674 64.8471 49.9674H63.5916C63.0646 49.9674 62.6538 50.0671 62.3593 50.2666C62.0648 50.4583 61.9175 50.7344 61.9175 51.0949C61.9175 51.4018 62.026 51.6434 62.243 51.8198C62.46 52.0039 62.7545 52.0959 63.1266 52.0959ZM72.6943 53.8792C71.9115 53.8792 71.2295 53.7718 70.6482 53.5571C70.0669 53.3423 69.6174 53.0393 69.2996 52.6482C68.9741 52.257 68.8114 51.8121 68.8114 51.3135V51.141C68.8114 51.0873 68.8346 51.0374 68.8811 50.9914C68.9199 50.953 68.9664 50.9339 69.0206 50.9339H70.9621C71.0241 50.9339 71.0745 50.953 71.1132 50.9914C71.152 51.0374 71.1713 51.0873 71.1713 51.141V51.1525C71.1713 51.4133 71.3147 51.6319 71.6015 51.8083C71.8805 51.9847 72.237 52.0729 72.671 52.0729C73.0663 52.0729 73.384 51.9962 73.6243 51.8428C73.8723 51.6817 73.9963 51.49 73.9963 51.2675C73.9963 51.0604 73.8917 50.9032 73.6824 50.7958C73.4732 50.6961 73.1283 50.5887 72.6478 50.4737C72.1052 50.3356 71.6751 50.2014 71.3573 50.071C70.6133 49.8179 70.0204 49.5072 69.5787 49.139C69.1369 48.7709 68.916 48.2416 68.916 47.5513C68.916 46.6999 69.2531 46.025 69.9274 45.5264C70.5939 45.0278 71.4813 44.7785 72.5896 44.7785C73.3337 44.7785 73.9847 44.8936 74.5427 45.1237C75.093 45.3615 75.5231 45.6951 75.8331 46.1247C76.1431 46.5465 76.2981 47.0297 76.2981 47.5743C76.2981 47.628 76.2788 47.674 76.24 47.7124C76.2013 47.7507 76.1509 47.7699 76.0889 47.7699H74.2288C74.1668 47.7699 74.1164 47.7507 74.0777 47.7124C74.0389 47.674 74.0196 47.628 74.0196 47.5743C74.0196 47.3212 73.8878 47.1065 73.6243 46.93C73.3608 46.7536 73.0159 46.6654 72.5896 46.6654C72.2021 46.6654 71.8844 46.7383 71.6364 46.884C71.3961 47.0221 71.276 47.21 71.276 47.4478C71.276 47.6779 71.3961 47.8505 71.6364 47.9655C71.8689 48.0806 72.268 48.2033 72.8338 48.3337C72.9578 48.3644 73.1011 48.3989 73.2639 48.4372C73.4267 48.4756 73.601 48.5254 73.787 48.5868C74.6163 48.8322 75.2673 49.1429 75.7401 49.5187C76.2129 49.9022 76.4493 50.4545 76.4493 51.1755C76.4493 52.0269 76.1121 52.6903 75.4379 53.1659C74.7558 53.6414 73.8413 53.8792 72.6943 53.8792ZM79.1929 43.8926C78.7976 43.8926 78.4682 43.7623 78.2047 43.5015C77.9489 43.2484 77.8211 42.9262 77.8211 42.535C77.8211 42.1285 77.9489 41.7987 78.2047 41.5456C78.4605 41.2925 78.7898 41.1659 79.1929 41.1659C79.6036 41.1659 79.933 41.2925 80.181 41.5456C80.4445 41.7987 80.5763 42.1285 80.5763 42.535C80.5763 42.9262 80.4445 43.2484 80.181 43.5015C79.9175 43.7623 79.5881 43.8926 79.1929 43.8926ZM78.1466 53.7642C78.0923 53.7642 78.0419 53.745 77.9954 53.7066C77.9567 53.6683 77.9373 53.6184 77.9373 53.5571V45.0892C77.9373 45.0278 77.9567 44.978 77.9954 44.9396C78.0419 44.9013 78.0923 44.8821 78.1466 44.8821H80.181C80.243 44.8821 80.2934 44.9013 80.3322 44.9396C80.3709 44.978 80.3903 45.0278 80.3903 45.0892V53.5571C80.3903 53.6184 80.3709 53.6683 80.3322 53.7066C80.2934 53.745 80.243 53.7642 80.181 53.7642H78.1466ZM90.2486 48.4142C90.3184 48.8514 90.3416 49.3385 90.3184 49.8754C90.3106 50.0211 90.237 50.094 90.0975 50.094H84.7033C84.6335 50.094 84.6103 50.1208 84.6335 50.1745C84.6723 50.4046 84.7382 50.6347 84.8312 50.8648C85.1334 51.5091 85.7457 51.8313 86.668 51.8313C87.412 51.8236 88.001 51.5245 88.4351 50.9339C88.4816 50.8648 88.5358 50.8303 88.5978 50.8303C88.6288 50.8303 88.6676 50.8533 88.7141 50.8994L89.9696 52.1189C90.0316 52.1803 90.0626 52.234 90.0626 52.28C90.0626 52.303 90.0355 52.349 89.9812 52.4181C89.6015 52.8936 89.1093 53.2579 88.5048 53.5111C87.9003 53.7718 87.2376 53.9022 86.5169 53.9022C85.5171 53.9022 84.6723 53.6798 83.9825 53.2349C83.2928 52.7824 82.7929 52.1534 82.4828 51.3481C82.2426 50.7728 82.1225 50.0211 82.1225 49.093C82.1225 48.4564 82.2116 47.8965 82.3898 47.4133C82.6534 46.6002 83.1184 45.9521 83.7849 45.4689C84.4592 44.9856 85.2536 44.744 86.1681 44.744C87.3306 44.744 88.2645 45.0777 88.9698 45.745C89.6751 46.4123 90.1014 47.302 90.2486 48.4142ZM86.1797 46.8495C85.4512 46.8495 84.9707 47.187 84.7382 47.862C84.6917 48.0154 84.6529 48.1994 84.6219 48.4142C84.6219 48.4679 84.649 48.4948 84.7033 48.4948H87.7259C87.7879 48.4948 87.8073 48.4679 87.784 48.4142C87.7298 48.0844 87.7027 47.9233 87.7027 47.931C87.5942 47.5858 87.412 47.3174 87.1563 47.1256C86.8928 46.9415 86.5672 46.8495 86.1797 46.8495ZM95.294 53.8792C94.5113 53.8792 93.8292 53.7718 93.248 53.5571C92.6667 53.3423 92.2172 53.0393 91.8994 52.6482C91.5817 52.257 91.4228 51.8121 91.4228 51.3135V51.141C91.4228 51.0873 91.4422 51.0374 91.4809 50.9914C91.5197 50.953 91.57 50.9339 91.632 50.9339H93.5619C93.6239 50.9339 93.6742 50.953 93.713 50.9914C93.7517 51.0374 93.7711 51.0873 93.7711 51.141V51.1525C93.7711 51.4133 93.9145 51.6319 94.2013 51.8083C94.488 51.9847 94.8445 52.0729 95.2708 52.0729C95.6661 52.0729 95.9877 51.9962 96.2357 51.8428C96.476 51.6817 96.5961 51.49 96.5961 51.2675C96.5961 51.0604 96.4915 50.9032 96.2822 50.7958C96.0729 50.6961 95.7319 50.5887 95.2592 50.4737C94.7089 50.3356 94.2788 50.2014 93.9687 50.071C93.2247 49.8179 92.6318 49.5072 92.1901 49.139C91.7483 48.7709 91.5274 48.2416 91.5274 47.5513C91.5274 46.6999 91.8607 46.025 92.5272 45.5264C93.1937 45.0278 94.0811 44.7785 95.1894 44.7785C95.9334 44.7785 96.5845 44.8936 97.1425 45.1237C97.7005 45.3615 98.1306 45.6951 98.4329 46.1247C98.7429 46.5465 98.8979 47.0297 98.8979 47.5743C98.8979 47.628 98.8785 47.674 98.8398 47.7124C98.801 47.7507 98.7507 47.7699 98.6887 47.7699H96.8286C96.7666 47.7699 96.7162 47.7507 96.6775 47.7124C96.6387 47.674 96.6193 47.628 96.6193 47.5743C96.6193 47.3212 96.4876 47.1065 96.2241 46.93C95.9606 46.7536 95.6157 46.6654 95.1894 46.6654C94.8019 46.6654 94.488 46.7383 94.2478 46.884C93.9997 47.0221 93.8757 47.21 93.8757 47.4478C93.8757 47.6779 93.9959 47.8505 94.2361 47.9655C94.4764 48.0806 94.8755 48.2033 95.4335 48.3337C95.5575 48.3644 95.7009 48.3989 95.8637 48.4372C96.0264 48.4756 96.2008 48.5254 96.3868 48.5868C97.2161 48.8322 97.8671 49.1429 98.3399 49.5187C98.8204 49.9022 99.0607 50.4545 99.0607 51.1755C99.0607 52.0269 98.7197 52.6903 98.0376 53.1659C97.3556 53.6414 96.4411 53.8792 95.294 53.8792ZM105.594 46.6424C105.594 46.6961 105.575 46.7421 105.536 46.7805C105.497 46.8265 105.447 46.8495 105.385 46.8495H103.711C103.657 46.8495 103.629 46.8763 103.629 46.93V50.5887C103.629 50.9646 103.707 51.2483 103.862 51.4401C104.017 51.6242 104.269 51.7162 104.618 51.7162H105.199C105.253 51.7162 105.3 51.7354 105.338 51.7738C105.385 51.8121 105.408 51.862 105.408 51.9233V53.5571C105.408 53.6875 105.338 53.7603 105.199 53.7757C104.711 53.7987 104.362 53.8102 104.153 53.8102C103.184 53.8102 102.463 53.653 101.99 53.3385C101.51 53.024 101.266 52.4296 101.258 51.5552V46.93C101.258 46.8763 101.227 46.8495 101.165 46.8495H100.177C100.115 46.8495 100.064 46.8265 100.026 46.7805C99.9868 46.7421 99.9675 46.6961 99.9675 46.6424V45.1007C99.9675 45.047 99.9868 44.9972 100.026 44.9511C100.064 44.9128 100.115 44.8936 100.177 44.8936H101.165C101.227 44.8936 101.258 44.8629 101.258 44.8016V42.7536C101.258 42.6999 101.277 42.6501 101.316 42.6041C101.355 42.5657 101.405 42.5465 101.467 42.5465H103.42C103.474 42.5465 103.521 42.5657 103.56 42.6041C103.606 42.6501 103.629 42.6999 103.629 42.7536V44.8016C103.629 44.8629 103.657 44.8936 103.711 44.8936H105.385C105.447 44.8936 105.497 44.9128 105.536 44.9511C105.575 44.9972 105.594 45.047 105.594 45.1007V46.6424Z" fill="#252530"/>
<path d="M57.0465 81.6987C57.0465 81.7371 57.0348 81.7678 57.0116 81.7908C56.9806 81.8214 56.9457 81.8368 56.9069 81.8368H52.9427C52.9039 81.8368 52.8846 81.856 52.8846 81.8943V84.0458C52.8846 84.0841 52.9039 84.1033 52.9427 84.1033H55.6049C55.6437 84.1033 55.6785 84.1148 55.7095 84.1378C55.7328 84.1685 55.7444 84.203 55.7444 84.2414V85.1158C55.7444 85.1541 55.7328 85.1886 55.7095 85.2193C55.6785 85.2423 55.6437 85.2539 55.6049 85.2539H52.9427C52.9039 85.2539 52.8846 85.273 52.8846 85.3114V87.5319C52.8846 87.5702 52.9039 87.5894 52.9427 87.5894H56.9069C56.9457 87.5894 56.9806 87.6048 57.0116 87.6354C57.0348 87.6585 57.0465 87.6891 57.0465 87.7275V88.6019C57.0465 88.6402 57.0348 88.6709 57.0116 88.6939C56.9806 88.7246 56.9457 88.7399 56.9069 88.7399H51.6755C51.6368 88.7399 51.6058 88.7246 51.5825 88.6939C51.5515 88.6709 51.536 88.6402 51.536 88.6019V80.8243C51.536 80.786 51.5515 80.7553 51.5825 80.7323C51.6058 80.7016 51.6368 80.6863 51.6755 80.6863H56.9069C56.9457 80.6863 56.9806 80.7016 57.0116 80.7323C57.0348 80.7553 57.0465 80.786 57.0465 80.8243V81.6987ZM61.1386 82.7687C61.7664 82.7687 62.2701 82.9528 62.6499 83.321C63.0219 83.6891 63.2079 84.1915 63.2079 84.8282V88.6019C63.2079 88.6402 63.1924 88.6709 63.1614 88.6939C63.1382 88.7246 63.1072 88.7399 63.0684 88.7399H61.9989C61.9601 88.7399 61.9252 88.7246 61.8942 88.6939C61.871 88.6709 61.8594 88.6402 61.8594 88.6019V85.1043C61.8594 84.7514 61.7586 84.4638 61.5571 84.2414C61.3556 84.0266 61.0882 83.9192 60.755 83.9192C60.4217 83.9192 60.1504 84.0266 59.9412 84.2414C59.7397 84.4561 59.6389 84.7399 59.6389 85.0928V88.6019C59.6389 88.6402 59.6273 88.6709 59.604 88.6939C59.573 88.7246 59.5382 88.7399 59.4994 88.7399H58.4299C58.3911 88.7399 58.3601 88.7246 58.3369 88.6939C58.3059 88.6709 58.2904 88.6402 58.2904 88.6019V82.9988C58.2904 82.9605 58.3059 82.9259 58.3369 82.8953C58.3601 82.8723 58.3911 82.8608 58.4299 82.8608H59.4994C59.5382 82.8608 59.573 82.8723 59.604 82.8953C59.6273 82.9259 59.6389 82.9605 59.6389 82.9988V83.367C59.6389 83.39 59.6467 83.4053 59.6622 83.413C59.6777 83.4207 59.6893 83.413 59.697 83.39C60.0148 82.9758 60.4953 82.7687 61.1386 82.7687ZM67.7651 83.8042C67.7651 83.8425 67.7496 83.8732 67.7186 83.8962C67.6953 83.9269 67.6643 83.9423 67.6256 83.9423H66.4398C66.401 83.9423 66.3817 83.9614 66.3817 83.9998V86.7725C66.3817 87.064 66.4437 87.2749 66.5677 87.4053C66.6994 87.5357 66.9048 87.6009 67.1838 87.6009H67.5326C67.5713 87.6009 67.6023 87.6124 67.6256 87.6354C67.6566 87.6661 67.6721 87.7006 67.6721 87.739V88.6019C67.6721 88.6863 67.6256 88.7361 67.5326 88.7515L66.928 88.763C66.3158 88.763 65.8585 88.6594 65.5562 88.4523C65.254 88.2452 65.099 87.854 65.0912 87.2788V83.9998C65.0912 83.9614 65.0719 83.9423 65.0331 83.9423H64.3705C64.3317 83.9423 64.2968 83.9269 64.2658 83.8962C64.2426 83.8732 64.231 83.8425 64.231 83.8042V82.9988C64.231 82.9605 64.2426 82.9259 64.2658 82.8953C64.2968 82.8723 64.3317 82.8608 64.3705 82.8608H65.0331C65.0719 82.8608 65.0912 82.8416 65.0912 82.8032V81.4571C65.0912 81.4188 65.1029 81.3842 65.1261 81.3536C65.1571 81.3306 65.192 81.319 65.2307 81.319H66.2421C66.2809 81.319 66.3119 81.3306 66.3351 81.3536C66.3662 81.3842 66.3817 81.4188 66.3817 81.4571V82.8032C66.3817 82.8416 66.401 82.8608 66.4398 82.8608H67.6256C67.6643 82.8608 67.6953 82.8723 67.7186 82.8953C67.7496 82.9259 67.7651 82.9605 67.7651 82.9988V83.8042ZM73.8568 85.1388C73.8878 85.3305 73.9033 85.5453 73.9033 85.7831L73.8917 86.1398C73.8917 86.2318 73.8452 86.2778 73.7522 86.2778H70.1134C70.0747 86.2778 70.0553 86.297 70.0553 86.3353C70.0785 86.5885 70.1134 86.761 70.1599 86.8531C70.3459 87.4053 70.7993 87.6853 71.5201 87.693C72.0471 87.693 72.4656 87.4782 72.7756 87.0487C72.8066 87.0026 72.8454 86.9796 72.8919 86.9796C72.9229 86.9796 72.95 86.9911 72.9733 87.0142L73.694 87.6009C73.7638 87.6546 73.7754 87.716 73.7289 87.785C73.4886 88.1225 73.1709 88.3833 72.7756 88.5674C72.3726 88.7515 71.927 88.8435 71.4387 88.8435C70.8342 88.8435 70.3188 88.7093 69.8925 88.4408C69.474 88.1724 69.1679 87.7965 68.9741 87.3133C68.7959 86.8991 68.7067 86.3238 68.7067 85.5875C68.7067 85.1426 68.7532 84.7821 68.8462 84.506C69.0012 83.9691 69.2958 83.5434 69.7298 83.2289C70.156 82.9221 70.6714 82.7687 71.2759 82.7687C72.8027 82.7687 73.663 83.5587 73.8568 85.1388ZM71.2759 83.9192C70.9892 83.9192 70.7489 83.9921 70.5552 84.1378C70.3692 84.2759 70.2374 84.4715 70.1599 84.7246C70.1134 84.855 70.0824 85.0237 70.0669 85.2308C70.0514 85.2692 70.0669 85.2884 70.1134 85.2884H72.4734C72.5121 85.2884 72.5315 85.2692 72.5315 85.2308C72.516 85.0391 72.4927 84.8934 72.4617 84.7936C72.392 84.5175 72.2564 84.3027 72.0549 84.1493C71.8456 83.9959 71.586 83.9192 71.2759 83.9192ZM77.9024 82.7917C78.1504 82.7917 78.3674 82.8416 78.5535 82.9413C78.6155 82.972 78.6387 83.0295 78.6232 83.1139L78.4256 84.1493C78.4178 84.2414 78.3636 84.2682 78.2628 84.2299C78.1466 84.1915 78.0109 84.1724 77.8559 84.1724C77.7552 84.1724 77.6777 84.1762 77.6234 84.1839C77.2979 84.1992 77.0266 84.3104 76.8096 84.5175C76.5926 84.7323 76.4841 85.0084 76.4841 85.3459V88.6019C76.4841 88.6402 76.4725 88.6709 76.4493 88.6939C76.4183 88.7246 76.3834 88.7399 76.3446 88.7399H75.2751C75.2363 88.7399 75.2053 88.7246 75.1821 88.6939C75.1511 88.6709 75.1356 88.6402 75.1356 88.6019V82.9988C75.1356 82.9605 75.1511 82.9259 75.1821 82.8953C75.2053 82.8723 75.2363 82.8608 75.2751 82.8608H76.3446C76.3834 82.8608 76.4183 82.8723 76.4493 82.8953C76.4725 82.9259 76.4841 82.9605 76.4841 82.9988V83.5166C76.4841 83.5472 76.488 83.5626 76.4958 83.5626C76.5113 83.5702 76.5268 83.5626 76.5423 83.5396C76.8678 83.041 77.3212 82.7917 77.9024 82.7917ZM84.5405 84.3794C84.68 84.7706 84.7498 85.25 84.7498 85.8176C84.7498 86.3622 84.6839 86.8301 84.5522 87.2213C84.3817 87.7275 84.1104 88.1225 83.7384 88.4063C83.3586 88.6901 82.882 88.832 82.3085 88.832C81.7582 88.832 81.3164 88.6364 80.9832 88.2452C80.9677 88.2299 80.9522 88.226 80.9367 88.2337C80.9212 88.2414 80.9134 88.2567 80.9134 88.2797V90.7764C80.9134 90.8147 80.9018 90.8454 80.8785 90.8684C80.8475 90.8991 80.8127 90.9144 80.7739 90.9144H79.7044C79.6656 90.9144 79.6346 90.8991 79.6114 90.8684C79.5804 90.8454 79.5649 90.8147 79.5649 90.7764V82.9988C79.5649 82.9605 79.5804 82.9259 79.6114 82.8953C79.6346 82.8723 79.6656 82.8608 79.7044 82.8608H80.7739C80.8127 82.8608 80.8475 82.8723 80.8785 82.8953C80.9018 82.9259 80.9134 82.9605 80.9134 82.9988V83.344C80.9134 83.367 80.9212 83.3823 80.9367 83.39C80.9522 83.3977 80.9677 83.39 80.9832 83.367C81.3242 82.9681 81.7698 82.7687 82.3201 82.7687C82.8704 82.7687 83.3354 82.9106 83.7151 83.1944C84.0949 83.4782 84.37 83.8732 84.5405 84.3794ZM83.0292 87.1982C83.2617 86.8454 83.378 86.3775 83.378 85.7946C83.378 85.2347 83.285 84.7936 83.099 84.4715C82.882 84.0957 82.5526 83.9077 82.1108 83.9077C81.7078 83.9077 81.4056 84.0918 81.204 84.46C81.0258 84.7591 80.9367 85.204 80.9367 85.7946C80.9367 86.4005 81.0335 86.8608 81.2273 87.1752C81.4288 87.5127 81.7194 87.6815 82.0992 87.6815C82.51 87.6815 82.82 87.5204 83.0292 87.1982ZM88.8187 82.7917C89.0667 82.7917 89.2837 82.8416 89.4697 82.9413C89.5317 82.972 89.555 83.0295 89.5395 83.1139L89.3418 84.1493C89.3341 84.2414 89.2798 84.2682 89.1791 84.2299C89.0628 84.1915 88.9272 84.1724 88.7722 84.1724C88.6714 84.1724 88.5939 84.1762 88.5397 84.1839C88.2142 84.1992 87.9429 84.3104 87.7259 84.5175C87.5089 84.7323 87.4004 85.0084 87.4004 85.3459V88.6019C87.4004 88.6402 87.3888 88.6709 87.3655 88.6939C87.3345 88.7246 87.2996 88.7399 87.2609 88.7399H86.1913C86.1526 88.7399 86.1216 88.7246 86.0983 88.6939C86.0673 88.6709 86.0518 88.6402 86.0518 88.6019V82.9988C86.0518 82.9605 86.0673 82.9259 86.0983 82.8953C86.1216 82.8723 86.1526 82.8608 86.1913 82.8608H87.2609C87.2996 82.8608 87.3345 82.8723 87.3655 82.8953C87.3888 82.9259 87.4004 82.9605 87.4004 82.9988V83.5166C87.4004 83.5472 87.4043 83.5626 87.412 83.5626C87.4275 83.5702 87.443 83.5626 87.4585 83.5396C87.784 83.041 88.2374 82.7917 88.8187 82.7917ZM91.1903 82.0554C90.95 82.0554 90.7524 81.9787 90.5974 81.8253C90.4424 81.6719 90.3649 81.4763 90.3649 81.2385C90.3649 81.0007 90.4424 80.8051 90.5974 80.6517C90.7524 80.4983 90.95 80.4216 91.1903 80.4216C91.4305 80.4216 91.6282 80.4983 91.7832 80.6517C91.9382 80.8051 92.0157 81.0007 92.0157 81.2385C92.0157 81.4763 91.9382 81.6719 91.7832 81.8253C91.6282 81.9787 91.4305 82.0554 91.1903 82.0554ZM90.6322 88.7399C90.5935 88.7399 90.5625 88.7246 90.5392 88.6939C90.5082 88.6709 90.4927 88.6402 90.4927 88.6019V82.9873C90.4927 82.949 90.5082 82.9183 90.5392 82.8953C90.5625 82.8646 90.5935 82.8492 90.6322 82.8492H91.7018C91.7405 82.8492 91.7754 82.8646 91.8064 82.8953C91.8297 82.9183 91.8413 82.949 91.8413 82.9873V88.6019C91.8413 88.6402 91.8297 88.6709 91.8064 88.6939C91.7754 88.7246 91.7405 88.7399 91.7018 88.7399H90.6322ZM95.5963 88.809C95.108 88.809 94.6779 88.7361 94.3059 88.5904C93.9416 88.4523 93.6587 88.2567 93.4572 88.0036C93.2557 87.7582 93.155 87.482 93.155 87.1752V87.0717C93.155 87.0333 93.1666 86.9988 93.1898 86.9681C93.2208 86.9451 93.2557 86.9336 93.2945 86.9336H94.3175C94.3562 86.9336 94.3911 86.9451 94.4221 86.9681C94.4454 86.9988 94.457 87.0333 94.457 87.0717V87.0947C94.457 87.2864 94.5616 87.4552 94.7709 87.6009C94.9879 87.739 95.2592 87.808 95.5847 87.808C95.8947 87.808 96.1466 87.7467 96.3403 87.6239C96.5341 87.4935 96.631 87.3325 96.631 87.1407C96.631 86.9643 96.5496 86.8301 96.3868 86.738C96.2318 86.6537 95.9761 86.5616 95.6195 86.4619L95.1778 86.3238C94.7825 86.2088 94.4493 86.0861 94.178 85.9557C93.9067 85.8253 93.6781 85.645 93.4921 85.4149C93.3061 85.1925 93.2131 84.9049 93.2131 84.552C93.2131 84.0151 93.4262 83.5894 93.8525 83.2749C94.2787 82.9528 94.8406 82.7917 95.5382 82.7917C96.0109 82.7917 96.4256 82.8646 96.7821 83.0103C97.1386 83.1637 97.4137 83.3708 97.6075 83.6316C97.8012 83.9001 97.8981 84.203 97.8981 84.5405C97.8981 84.5789 97.8865 84.6134 97.8632 84.6441C97.8322 84.6671 97.7974 84.6786 97.7586 84.6786H96.7705C96.7317 84.6786 96.6968 84.6671 96.6658 84.6441C96.6426 84.6134 96.631 84.5789 96.631 84.5405C96.631 84.3411 96.5341 84.1762 96.3403 84.0458C96.1388 83.9077 95.8676 83.8387 95.5265 83.8387C95.2243 83.8387 94.9801 83.8924 94.7941 83.9998C94.6004 84.1148 94.5035 84.2721 94.5035 84.4715C94.5035 84.6556 94.5926 84.7936 94.7709 84.8857C94.9569 84.9854 95.263 85.0928 95.6893 85.2078L95.9451 85.2769C96.3558 85.3996 96.7007 85.5223 96.9797 85.645C97.2587 85.7754 97.4951 85.9518 97.6889 86.1743C97.8826 86.4044 97.9795 86.6997 97.9795 87.0602C97.9795 87.6048 97.7625 88.0305 97.3285 88.3373C96.8945 88.6517 96.3171 88.809 95.5963 88.809ZM104.129 85.1388C104.16 85.3305 104.176 85.5453 104.176 85.7831L104.164 86.1398C104.164 86.2318 104.118 86.2778 104.025 86.2778H100.386C100.347 86.2778 100.328 86.297 100.328 86.3353C100.351 86.5885 100.386 86.761 100.432 86.8531C100.618 87.4053 101.072 87.6853 101.793 87.693C102.32 87.693 102.738 87.4782 103.048 87.0487C103.079 87.0026 103.118 86.9796 103.164 86.9796C103.195 86.9796 103.223 86.9911 103.246 87.0142L103.967 87.6009C104.036 87.6546 104.048 87.716 104.001 87.785C103.761 88.1225 103.44 88.3833 103.037 88.5674C102.641 88.7515 102.2 88.8435 101.711 88.8435C101.107 88.8435 100.591 88.7093 100.165 88.4408C99.7466 88.1724 99.4404 87.7965 99.2467 87.3133C99.0684 86.8991 98.9793 86.3238 98.9793 85.5875C98.9793 85.1426 99.0258 84.7821 99.1188 84.506C99.2738 83.9691 99.5644 83.5434 99.9907 83.2289C100.425 82.9221 100.944 82.7687 101.548 82.7687C103.075 82.7687 103.936 83.5587 104.129 85.1388ZM101.548 83.9192C101.262 83.9192 101.021 83.9921 100.828 84.1378C100.642 84.2759 100.51 84.4715 100.432 84.7246C100.386 84.855 100.355 85.0237 100.339 85.2308C100.324 85.2692 100.339 85.2884 100.386 85.2884H102.746C102.785 85.2884 102.804 85.2692 102.804 85.2308C102.789 85.0391 102.765 84.8934 102.734 84.7936C102.665 84.5175 102.525 84.3027 102.316 84.1493C102.114 83.9959 101.859 83.9192 101.548 83.9192Z" fill="white"/>
<path d="M62.1733 105.055C61.5532 105.055 61.0107 104.955 60.5457 104.756C60.0807 104.564 59.7242 104.284 59.4762 103.916C59.2204 103.555 59.0925 103.133 59.0925 102.65V102.397C59.0925 102.359 59.108 102.328 59.139 102.305C59.1623 102.274 59.1933 102.259 59.232 102.259H60.5573C60.5961 102.259 60.631 102.274 60.662 102.305C60.6852 102.328 60.6968 102.359 60.6968 102.397V102.57C60.6968 102.876 60.8402 103.133 61.127 103.341C61.4137 103.555 61.8012 103.663 62.2895 103.663C62.7003 103.663 63.0064 103.578 63.2079 103.41C63.4094 103.233 63.5102 103.018 63.5102 102.765C63.5102 102.581 63.4482 102.428 63.3242 102.305C63.2002 102.175 63.0297 102.063 62.8127 101.971C62.6034 101.872 62.2663 101.737 61.8013 101.569C61.282 101.392 60.8402 101.212 60.476 101.028C60.1194 100.844 59.8211 100.591 59.5808 100.269C59.3328 99.9541 59.2088 99.5629 59.2088 99.0951C59.2088 98.6349 59.3289 98.2322 59.5692 97.887C59.8094 97.5418 60.1427 97.2772 60.569 97.0931C60.9952 96.9091 61.4874 96.817 62.0454 96.817C62.6344 96.817 63.1575 96.9206 63.6148 97.1277C64.0798 97.3348 64.4441 97.6262 64.7076 98.0021C64.9634 98.3702 65.0912 98.7998 65.0912 99.2907V99.4632C65.0912 99.5016 65.0796 99.5323 65.0564 99.5553C65.0254 99.586 64.9905 99.6013 64.9517 99.6013H63.6148C63.5761 99.6013 63.5451 99.586 63.5218 99.5553C63.4908 99.5323 63.4753 99.5016 63.4753 99.4632V99.3712C63.4753 99.049 63.3436 98.7729 63.08 98.5428C62.8088 98.3204 62.4406 98.2092 61.9756 98.2092C61.6114 98.2092 61.3246 98.2859 61.1154 98.4393C60.9138 98.5927 60.8131 98.8036 60.8131 99.072C60.8131 99.2638 60.8751 99.4249 60.9991 99.5553C61.1153 99.6857 61.2936 99.8007 61.5339 99.9004C61.7664 100.008 62.1306 100.15 62.6267 100.326C63.1769 100.526 63.6071 100.702 63.9171 100.855C64.2348 101.009 64.5216 101.235 64.7774 101.534C65.0254 101.841 65.1494 102.236 65.1494 102.719C65.1494 103.44 64.882 104.008 64.3472 104.422C63.8124 104.844 63.0878 105.055 62.1733 105.055ZM69.66 96.8976C70.1715 96.8976 70.6211 97.0011 71.0086 97.2082C71.3961 97.4153 71.6983 97.7068 71.9153 98.0826C72.1246 98.4661 72.2292 98.9033 72.2292 99.3942C72.2292 99.8774 72.1207 100.303 71.9037 100.671C71.679 101.039 71.3651 101.327 70.9621 101.534C70.5668 101.734 70.1095 101.833 69.5903 101.833H67.9395C67.9007 101.833 67.8813 101.852 67.8813 101.891V104.825C67.8813 104.863 67.8658 104.894 67.8348 104.917C67.8116 104.947 67.7806 104.963 67.7418 104.963H66.3817C66.3429 104.963 66.308 104.947 66.277 104.917C66.2538 104.894 66.2422 104.863 66.2422 104.825V97.0356C66.2422 96.9973 66.2538 96.9627 66.277 96.9321C66.308 96.9091 66.3429 96.8976 66.3817 96.8976H69.66ZM69.4159 100.533C69.7724 100.533 70.0592 100.43 70.2762 100.223C70.4932 100.023 70.6017 99.7585 70.6017 99.4287C70.6017 99.0912 70.4932 98.8189 70.2762 98.6118C70.0592 98.4048 69.7724 98.3012 69.4159 98.3012H67.9395C67.9007 98.3012 67.8813 98.3204 67.8813 98.3587V100.476C67.8813 100.514 67.9007 100.533 67.9395 100.533H69.4159ZM77.7048 104.963C77.6273 104.963 77.573 104.928 77.542 104.859L76.0889 101.672C76.0734 101.642 76.0501 101.626 76.0191 101.626H74.938C74.8992 101.626 74.8798 101.645 74.8798 101.684V104.825C74.8798 104.863 74.8643 104.894 74.8333 104.917C74.8101 104.947 74.7791 104.963 74.7403 104.963H73.3802C73.3414 104.963 73.3065 104.947 73.2755 104.917C73.2523 104.894 73.2406 104.863 73.2406 104.825V97.0471C73.2406 97.0088 73.2523 96.9781 73.2755 96.9551C73.3065 96.9244 73.3414 96.9091 73.3802 96.9091H76.705C77.201 96.9091 77.635 97.0088 78.0071 97.2082C78.3868 97.4076 78.6775 97.6914 78.879 98.0596C79.0882 98.4278 79.1929 98.8535 79.1929 99.3367C79.1929 99.8582 79.0611 100.303 78.7976 100.671C78.5341 101.047 78.1659 101.312 77.6932 101.465C77.6544 101.48 77.6428 101.507 77.6583 101.546L79.2394 104.802C79.2549 104.832 79.2626 104.855 79.2626 104.871C79.2626 104.932 79.22 104.963 79.1347 104.963H77.7048ZM74.938 98.3012C74.8992 98.3012 74.8798 98.3204 74.8798 98.3587V100.326C74.8798 100.364 74.8992 100.384 74.938 100.384H76.4609C76.7864 100.384 77.0499 100.288 77.2514 100.096C77.4607 99.9043 77.5653 99.655 77.5653 99.3482C77.5653 99.0414 77.4607 98.7883 77.2514 98.5888C77.0499 98.3971 76.7864 98.3012 76.4609 98.3012H74.938ZM80.5181 104.963C80.4794 104.963 80.4484 104.947 80.4251 104.917C80.3941 104.894 80.3786 104.863 80.3786 104.825V97.0471C80.3786 97.0088 80.3941 96.9781 80.4251 96.9551C80.4484 96.9244 80.4794 96.9091 80.5181 96.9091H81.8783C81.9171 96.9091 81.9519 96.9244 81.9829 96.9551C82.0062 96.9781 82.0178 97.0088 82.0178 97.0471V104.825C82.0178 104.863 82.0062 104.894 81.9829 104.917C81.9519 104.947 81.9171 104.963 81.8783 104.963H80.5181ZM88.1095 97.0471C88.1095 97.0088 88.125 96.9781 88.156 96.9551C88.1793 96.9244 88.2103 96.9091 88.249 96.9091H89.6092C89.648 96.9091 89.6828 96.9244 89.7138 96.9551C89.7371 96.9781 89.7487 97.0088 89.7487 97.0471V104.825C89.7487 104.863 89.7371 104.894 89.7138 104.917C89.6828 104.947 89.648 104.963 89.6092 104.963H88.2955C88.218 104.963 88.1638 104.932 88.1328 104.871L85.1218 99.9465C85.1063 99.9234 85.0908 99.9158 85.0753 99.9234C85.0598 99.9234 85.0521 99.9388 85.0521 99.9695L85.0753 104.825C85.0753 104.863 85.0637 104.894 85.0404 104.917C85.0094 104.947 84.9746 104.963 84.9358 104.963H83.5756C83.5369 104.963 83.5059 104.947 83.4826 104.917C83.4516 104.894 83.4361 104.863 83.4361 104.825V97.0471C83.4361 97.0088 83.4516 96.9781 83.4826 96.9551C83.5059 96.9244 83.5369 96.9091 83.5756 96.9091H84.8893C84.9668 96.9091 85.0211 96.9397 85.0521 97.0011L88.0514 101.902C88.0669 101.925 88.0824 101.933 88.0979 101.925C88.1134 101.925 88.1212 101.91 88.1212 101.879L88.1095 97.0471ZM94.0269 105.055C93.4301 105.055 92.9031 104.936 92.4458 104.698C91.9885 104.46 91.6359 104.131 91.3879 103.709C91.1321 103.279 91.0043 102.784 91.0043 102.225V99.6473C91.0043 99.0874 91.1321 98.5927 91.3879 98.1631C91.6359 97.7336 91.9885 97.4 92.4458 97.1622C92.9031 96.9321 93.4301 96.817 94.0269 96.817C94.6159 96.817 95.139 96.9321 95.5963 97.1622C96.0458 97.3923 96.3984 97.7068 96.6542 98.1056C96.9022 98.4968 97.0262 98.934 97.0262 99.4172V99.4977C97.0262 99.5361 97.0146 99.5668 96.9913 99.5898C96.9603 99.6205 96.9255 99.6358 96.8867 99.6358H95.5265C95.4878 99.6358 95.4568 99.6205 95.4335 99.5898C95.4025 99.5668 95.387 99.5361 95.387 99.4977V99.4632C95.387 99.1104 95.263 98.8151 95.015 98.5773C94.767 98.3319 94.4376 98.2092 94.0269 98.2092C93.6084 98.2092 93.2751 98.3357 93.0271 98.5888C92.7713 98.8496 92.6434 99.1871 92.6434 99.6013V102.271C92.6434 102.685 92.7791 103.018 93.0503 103.271C93.3216 103.532 93.6665 103.663 94.085 103.663C94.488 103.663 94.8096 103.555 95.0499 103.341C95.2902 103.133 95.4103 102.842 95.4103 102.466V101.948C95.4103 101.91 95.3909 101.891 95.3522 101.891H94.0501C94.0114 101.891 93.9804 101.876 93.9571 101.845C93.9261 101.822 93.9106 101.791 93.9106 101.753V100.694C93.9106 100.656 93.9261 100.625 93.9571 100.602C93.9804 100.572 94.0114 100.556 94.0501 100.556H96.8867C96.9255 100.556 96.9603 100.572 96.9913 100.602C97.0146 100.625 97.0262 100.656 97.0262 100.694V102.213C97.0262 102.796 96.9022 103.302 96.6542 103.732C96.4062 104.161 96.0574 104.491 95.6079 104.721C95.1507 104.944 94.6236 105.055 94.0269 105.055ZM67.8813 114.317C67.8658 114.332 67.862 114.347 67.8697 114.363C67.8775 114.378 67.893 114.386 67.9162 114.386H71.0667C71.1054 114.386 71.1403 114.397 71.1713 114.42C71.1946 114.451 71.2062 114.485 71.2062 114.524V115.64C71.2062 115.678 71.1946 115.709 71.1713 115.732C71.1403 115.762 71.1054 115.778 71.0667 115.778H65.8353C65.7965 115.778 65.7616 115.762 65.7306 115.732C65.7074 115.709 65.6958 115.678 65.6958 115.64V114.581C65.6958 114.512 65.719 114.455 65.7655 114.409C66.1453 114.04 66.5328 113.642 66.9281 113.212C67.3233 112.775 67.5713 112.503 67.6721 112.395C67.8891 112.142 68.11 111.9 68.3347 111.67C69.04 110.896 69.3926 110.32 69.3926 109.945C69.3926 109.676 69.2958 109.454 69.102 109.277C68.9082 109.108 68.6564 109.024 68.3463 109.024C68.0363 109.024 67.7845 109.108 67.5907 109.277C67.3969 109.454 67.3001 109.684 67.3001 109.968V110.255C67.3001 110.294 67.2846 110.328 67.2536 110.359C67.2303 110.382 67.1993 110.393 67.1606 110.393H65.7888C65.75 110.393 65.719 110.382 65.6958 110.359C65.6648 110.328 65.6493 110.294 65.6493 110.255V109.714C65.6725 109.3 65.8043 108.932 66.0445 108.61C66.2848 108.295 66.6025 108.054 66.9978 107.885C67.4008 107.716 67.8503 107.632 68.3463 107.632C68.8966 107.632 69.3771 107.732 69.7879 107.931C70.1909 108.138 70.5048 108.414 70.7296 108.759C70.9466 109.105 71.0551 109.488 71.0551 109.91C71.0551 110.232 70.9737 110.562 70.8109 110.899C70.6482 111.237 70.404 111.601 70.0785 111.992C69.8383 112.292 69.5786 112.587 69.2996 112.878C69.0206 113.17 68.606 113.592 68.0557 114.144L67.8813 114.317ZM74.9845 115.904C74.1319 115.904 73.4577 115.666 72.9616 115.191C72.4656 114.723 72.2176 114.083 72.2176 113.27V110.232C72.2176 109.434 72.4656 108.802 72.9616 108.334C73.4577 107.866 74.1319 107.632 74.9845 107.632C75.837 107.632 76.5151 107.866 77.0189 108.334C77.5149 108.802 77.7629 109.434 77.7629 110.232V113.27C77.7629 114.083 77.5149 114.723 77.0189 115.191C76.5151 115.666 75.837 115.904 74.9845 115.904ZM74.9845 114.512C75.3332 114.512 75.6122 114.405 75.8215 114.19C76.023 113.983 76.1237 113.703 76.1237 113.35V110.186C76.1237 109.833 76.023 109.553 75.8215 109.346C75.6122 109.131 75.3332 109.024 74.9845 109.024C74.6434 109.024 74.3722 109.131 74.1707 109.346C73.9614 109.553 73.8568 109.833 73.8568 110.186V113.35C73.8568 113.703 73.9614 113.983 74.1707 114.19C74.3722 114.405 74.6434 114.512 74.9845 114.512ZM81.018 114.317C81.0025 114.332 80.9987 114.347 81.0064 114.363C81.0142 114.378 81.0297 114.386 81.0529 114.386H84.2034C84.2421 114.386 84.277 114.397 84.308 114.42C84.3313 114.451 84.3429 114.485 84.3429 114.524V115.64C84.3429 115.678 84.3313 115.709 84.308 115.732C84.277 115.762 84.2421 115.778 84.2034 115.778H78.972C78.9332 115.778 78.9022 115.762 78.879 115.732C78.848 115.709 78.8325 115.678 78.8325 115.64V114.581C78.8325 114.512 78.8557 114.455 78.9022 114.409C79.282 114.04 79.6695 113.642 80.0648 113.212C80.46 112.775 80.708 112.503 80.8088 112.395C81.0258 112.142 81.2467 111.9 81.4714 111.67C82.1767 110.896 82.5293 110.32 82.5293 109.945C82.5293 109.676 82.4325 109.454 82.2387 109.277C82.045 109.108 81.7931 109.024 81.4831 109.024C81.173 109.024 80.9212 109.108 80.7274 109.277C80.5336 109.454 80.4368 109.684 80.4368 109.968V110.255C80.4368 110.294 80.4251 110.328 80.4019 110.359C80.3709 110.382 80.336 110.393 80.2973 110.393H78.9255C78.8867 110.393 78.8557 110.382 78.8325 110.359C78.8015 110.328 78.786 110.294 78.786 110.255V109.714C78.8092 109.3 78.941 108.932 79.1812 108.61C79.4215 108.295 79.7431 108.054 80.1461 107.885C80.5414 107.716 80.987 107.632 81.4831 107.632C82.0333 107.632 82.5138 107.732 82.9246 107.931C83.3276 108.138 83.6415 108.414 83.8663 108.759C84.0833 109.105 84.1918 109.488 84.1918 109.91C84.1918 110.232 84.1104 110.562 83.9476 110.899C83.7849 111.237 83.5408 111.601 83.2152 111.992C82.975 112.292 82.7154 112.587 82.4363 112.878C82.1573 113.17 81.7427 113.592 81.1924 114.144L81.018 114.317ZM90.2021 111.935C90.3571 112.288 90.4346 112.694 90.4346 113.155C90.4346 113.569 90.3649 113.952 90.2254 114.305C90.0394 114.796 89.7293 115.179 89.2953 115.456C88.8536 115.732 88.3343 115.87 87.7375 115.87C87.1485 115.87 86.6331 115.724 86.1913 115.433C85.7418 115.141 85.4202 114.746 85.2264 114.248C85.1179 113.948 85.0559 113.626 85.0404 113.281C85.0404 113.189 85.0869 113.143 85.1799 113.143H86.5517C86.6447 113.143 86.6912 113.189 86.6912 113.281C86.7222 113.534 86.7649 113.722 86.8191 113.845C86.8889 114.044 87.0051 114.198 87.1679 114.305C87.3229 114.42 87.5089 114.478 87.7259 114.478C88.1599 114.478 88.4583 114.29 88.6211 113.914C88.7296 113.684 88.7838 113.415 88.7838 113.108C88.7838 112.748 88.7257 112.453 88.6094 112.223C88.4312 111.862 88.1328 111.682 87.7143 111.682C87.629 111.682 87.5399 111.705 87.4469 111.751C87.3539 111.805 87.2415 111.877 87.1097 111.969C87.0787 111.992 87.0477 112.004 87.0167 112.004C86.9702 112.004 86.9354 111.981 86.9121 111.935L86.2262 110.98C86.2107 110.957 86.203 110.93 86.203 110.899C86.203 110.853 86.2185 110.815 86.2495 110.784L88.0979 109.185C88.1134 109.17 88.1212 109.155 88.1212 109.139C88.1134 109.124 88.0979 109.116 88.0747 109.116H85.3427C85.3039 109.116 85.2729 109.101 85.2497 109.07C85.2187 109.047 85.2032 109.016 85.2032 108.978V107.862C85.2032 107.824 85.2187 107.793 85.2497 107.77C85.2729 107.739 85.3039 107.724 85.3427 107.724H90.1905C90.2292 107.724 90.2641 107.739 90.2951 107.77C90.3184 107.793 90.33 107.824 90.33 107.862V109.128C90.33 109.189 90.3029 109.247 90.2486 109.3L88.7257 110.681C88.7102 110.696 88.7063 110.712 88.7141 110.727C88.7141 110.742 88.7296 110.75 88.7606 110.75C89.4348 110.88 89.9153 111.275 90.2021 111.935Z" fill="#252530"/>
</g>
<defs>
<filter id="filter0_ddd_1734_47784" x="0.0999775" y="9.53674e-07" width="156" height="168" filterUnits="userSpaceOnUse" color-interpolation-filters="sRGB">
<feFlood flood-opacity="0" result="BackgroundImageFix"/>
<feColorMatrix in="SourceAlpha" type="matrix" values="0 0 0 0 0 0 0 0 0 0 0 0 0 0 0 0 0 0 127 0" result="hardAlpha"/>
<feOffset dy="4.78807"/>
<feGaussianBlur stdDeviation="2.67334"/>
<feColorMatrix type="matrix" values="0 0 0 0 0.278431 0 0 0 0 0.403922 0 0 0 0 0.533333 0 0 0 0.0403893 0"/>
<feBlend mode="normal" in2="BackgroundImageFix" result="effect1_dropShadow_1734_47784"/>
<feColorMatrix in="SourceAlpha" type="matrix" values="0 0 0 0 0 0 0 0 0 0 0 0 0 0 0 0 0 0 127 0" result="hardAlpha"/>
<feOffset dy="4.8"/>
<feGaussianBlur stdDeviation="6"/>
<feColorMatrix type="matrix" values="0 0 0 0 0.278431 0 0 0 0 0.403922 0 0 0 0 0.533333 0 0 0 0.03 0"/>
<feBlend mode="normal" in2="effect1_dropShadow_1734_47784" result="effect2_dropShadow_1734_47784"/>
<feColorMatrix in="SourceAlpha" type="matrix" values="0 0 0 0 0 0 0 0 0 0 0 0 0 0 0 0 0 0 127 0" result="hardAlpha"/>
<feOffset dy="12"/>
<feGaussianBlur stdDeviation="12"/>
<feColorMatrix type="matrix" values="0 0 0 0 0.278431 0 0 0 0 0.403922 0 0 0 0 0.533333 0 0 0 0.05 0"/>
<feBlend mode="normal" in2="effect2_dropShadow_1734_47784" result="effect3_dropShadow_1734_47784"/>
<feBlend mode="normal" in="SourceGraphic" in2="effect3_dropShadow_1734_47784" result="shape"/>
</filter>
</defs>
</svg>
