<svg width="157" height="168" viewBox="0 0 157 168" fill="none" xmlns="http://www.w3.org/2000/svg">
<g filter="url(#filter0_ddd_1734_47793)">
<path d="M33.4517 105.423L79.3721 128.548L123.549 105.423V14.9912H33.4517V105.423Z" fill="white"/>
<path d="M124.479 15.3365L32.5216 107.034L80.1858 130.389L124.479 107.954V15.3365Z" fill="#F2F3F2"/>
<path d="M30.4291 45.1352V107.379L32.0566 108.184L77.977 131.31L79.372 132L80.7671 131.31L125.06 108.184L126.687 107.379V12H30.4291V45.1352ZM33.4517 105.653V14.9914H123.665V105.653L79.372 128.779L33.4517 105.653Z" fill="#DCDEDC"/>
<path d="M78.5582 16.4871C79.0232 16.4871 79.4882 16.4871 79.9533 16.6021L78.5582 19.2483C76.4656 19.1333 74.6056 20.744 74.4893 22.815C74.3731 24.8859 76.0006 26.7267 78.0932 26.8418H78.5582C79.4882 26.8418 80.4183 26.4966 81.1158 25.9214L82.6271 28.4525C81.4646 29.2579 80.0695 29.7181 78.5582 29.7181C74.8381 29.8332 71.6992 27.0719 71.583 23.3902C71.4667 19.7085 74.2568 16.6021 77.9769 16.4871H78.5582ZM83.3246 22.1246L85.0684 25.001L83.3246 27.7622L81.6971 25.001H78.3257L80.0695 22.1246H83.3246ZM80.5345 21.0892C80.5345 20.629 80.6508 20.1687 80.8833 19.8236C81.1158 19.4784 81.5808 19.1333 81.9296 18.9032L82.1621 18.7881C82.6271 18.558 82.7434 18.443 82.7434 18.2128C82.7434 17.9827 82.3946 17.7526 82.1621 17.7526C81.6971 17.7526 81.3483 17.9827 81.1158 18.443L80.5345 17.8677C80.6508 17.6376 80.8833 17.4075 81.1158 17.1774C81.4646 16.9473 81.8133 16.9473 82.1621 16.9473C82.5109 16.9473 82.9759 17.0623 83.2084 17.2924C83.4409 17.5225 83.6734 17.8677 83.6734 18.2128C83.6734 18.7881 83.3246 19.2483 82.6271 19.4784L82.2783 19.7085C81.9296 19.9386 81.6971 20.0537 81.5808 20.3988H83.6734V21.2042L80.5345 21.0892ZM78.5582 35.4708L89.6023 29.2579V12H67.3978V29.1429L78.5582 35.4708Z" fill="#FF492C"/>
<path d="M128.896 76.1995H28.2201L24.5 84.2532L28.2201 92.3068H128.896L132.5 84.2532L128.896 76.1995Z" fill="#23CCA2"/>
<path d="M44.3098 66.4085C44.2556 66.4315 44.2556 66.4545 44.3098 66.4775C45.1158 66.8917 45.5189 67.5782 45.5189 68.537C45.5189 69.3577 45.236 69.979 44.6702 70.4008C44.1122 70.815 43.3759 71.0221 42.4614 71.0221H39.1481C39.1094 71.0221 39.0745 71.0068 39.0435 70.9761C39.0125 70.9454 38.997 70.9109 38.997 70.8725V62.3126C38.997 62.2743 39.0125 62.2397 39.0435 62.2091C39.0745 62.1784 39.1094 62.163 39.1481 62.163H42.3568C44.3796 62.163 45.391 62.9722 45.391 64.5906C45.391 65.4344 45.0306 66.0403 44.3098 66.4085ZM40.8687 63.6932C40.8222 63.6932 40.7989 63.7162 40.7989 63.7623V65.7297C40.7989 65.7757 40.8222 65.7987 40.8687 65.7987H42.3568C42.7598 65.7987 43.0737 65.7028 43.2984 65.5111C43.5154 65.327 43.6239 65.0777 43.6239 64.7632C43.6239 64.4334 43.5154 64.1726 43.2984 63.9809C43.0737 63.7891 42.7598 63.6932 42.3568 63.6932H40.8687ZM42.4614 69.4804C42.8566 69.4804 43.1628 69.3807 43.3798 69.1813C43.6045 68.9818 43.7169 68.7095 43.7169 68.3644C43.7169 68.0192 43.6045 67.7469 43.3798 67.5475C43.1628 67.3481 42.8528 67.2484 42.4498 67.2484H40.8687C40.8222 67.2484 40.7989 67.2714 40.7989 67.3174V69.4114C40.7989 69.4574 40.8222 69.4804 40.8687 69.4804H42.4614ZM50.5759 64.6712C50.5759 64.6252 50.5875 64.5868 50.6108 64.5561C50.6418 64.5331 50.6805 64.5216 50.727 64.5216H52.2151C52.2616 64.5216 52.3003 64.5331 52.3313 64.5561C52.3623 64.5868 52.3778 64.6252 52.3778 64.6712V70.8725C52.3778 70.9109 52.3623 70.9454 52.3313 70.9761C52.3003 71.0068 52.2616 71.0221 52.2151 71.0221H50.727C50.6805 71.0221 50.6418 71.0068 50.6108 70.9761C50.5875 70.9454 50.5759 70.9109 50.5759 70.8725V70.4353C50.5759 70.4123 50.5643 70.4008 50.541 70.4008C50.5255 70.3931 50.51 70.4008 50.4945 70.4238C50.1535 70.884 49.6265 71.1141 48.9135 71.1141C48.2625 71.1141 47.7277 70.9185 47.3092 70.5274C46.8907 70.1439 46.6814 69.5993 46.6814 68.8936V64.6712C46.6814 64.6252 46.6969 64.5868 46.7279 64.5561C46.7589 64.5331 46.7938 64.5216 46.8325 64.5216H48.3206C48.3593 64.5216 48.3942 64.5331 48.4252 64.5561C48.4562 64.5868 48.4717 64.6252 48.4717 64.6712V68.4564C48.4717 68.7939 48.5647 69.0662 48.7507 69.2733C48.929 69.4881 49.1809 69.5954 49.5064 69.5954C49.8009 69.5954 50.0411 69.5072 50.2272 69.3308C50.4132 69.1621 50.5294 68.9358 50.5759 68.652V64.6712ZM56.3305 71.1141C55.757 71.1141 55.2571 71.0336 54.8308 70.8725C54.4045 70.7115 54.0752 70.489 53.8427 70.2052C53.6024 69.9138 53.4823 69.5878 53.4823 69.2273V69.1007C53.4823 69.0547 53.4978 69.0163 53.5288 68.9857C53.5598 68.9627 53.5985 68.9511 53.645 68.9511H55.0633C55.1021 68.9511 55.1369 68.9627 55.1679 68.9857C55.1989 69.0163 55.2144 69.0547 55.2144 69.1007V69.1122C55.2144 69.2963 55.3191 69.4535 55.5283 69.5839C55.7376 69.7143 55.9972 69.7795 56.3072 69.7795C56.6017 69.7795 56.8381 69.722 57.0164 69.6069C57.1946 69.4919 57.2838 69.3538 57.2838 69.1928C57.2838 69.0394 57.2063 68.9243 57.0513 68.8476C56.8963 68.7709 56.6444 68.6904 56.2956 68.606C55.9003 68.5063 55.5865 68.4104 55.354 68.3184C54.8114 68.1266 54.3774 67.8965 54.0519 67.628C53.7264 67.3596 53.5636 66.9722 53.5636 66.466C53.5636 65.8447 53.8078 65.35 54.296 64.9818C54.7843 64.6137 55.4353 64.4296 56.2491 64.4296C56.7916 64.4296 57.2683 64.5139 57.679 64.6827C58.0898 64.8591 58.4076 65.1046 58.6323 65.419C58.8571 65.7258 58.9695 66.0787 58.9695 66.4775C58.9695 66.5235 58.954 66.5581 58.923 66.5811C58.8997 66.6117 58.8648 66.6271 58.8183 66.6271H57.4465C57.4078 66.6271 57.3729 66.6117 57.3419 66.5811C57.3109 66.5581 57.2954 66.5235 57.2954 66.4775C57.2954 66.2934 57.1985 66.1362 57.0048 66.0058C56.8188 65.8831 56.5669 65.8217 56.2491 65.8217C55.9701 65.8217 55.7415 65.8716 55.5632 65.9713C55.3772 66.071 55.2842 66.2091 55.2842 66.3855C55.2842 66.5542 55.3733 66.6808 55.5516 66.7651C55.7298 66.8495 56.0205 66.9416 56.4235 67.0413L56.749 67.1218L57.1326 67.2254C57.7372 67.4018 58.2138 67.628 58.5626 67.9042C58.9113 68.188 59.0857 68.5945 59.0857 69.1237C59.0857 69.745 58.8377 70.2321 58.3417 70.5849C57.8379 70.9377 57.1675 71.1141 56.3305 71.1141ZM61.0969 63.7853C60.8024 63.7853 60.5621 63.6894 60.3761 63.4976C60.1824 63.3059 60.0855 63.0681 60.0855 62.7843C60.0855 62.4852 60.1785 62.2436 60.3645 62.0595C60.5505 61.8754 60.7946 61.7834 61.0969 61.7834C61.3914 61.7834 61.6355 61.8754 61.8293 62.0595C62.0153 62.2436 62.1083 62.4852 62.1083 62.7843C62.1083 63.0681 62.0114 63.3059 61.8177 63.4976C61.6239 63.6894 61.3837 63.7853 61.0969 63.7853ZM60.3296 71.0221C60.2831 71.0221 60.2482 71.0068 60.225 70.9761C60.194 70.9454 60.1785 70.9109 60.1785 70.8725V64.6597C60.1785 64.6137 60.194 64.5753 60.225 64.5446C60.2482 64.5139 60.2831 64.4986 60.3296 64.4986H61.8293C61.8681 64.4986 61.9029 64.5139 61.9339 64.5446C61.9649 64.5753 61.9804 64.6137 61.9804 64.6597V70.8725C61.9804 70.9109 61.9649 70.9454 61.9339 70.9761C61.9029 71.0068 61.8681 71.0221 61.8293 71.0221H60.3296ZM66.8166 64.4181C67.4986 64.4181 68.045 64.6252 68.4558 65.0394C68.8743 65.4535 69.0836 66.0135 69.0836 66.7191V70.8725C69.0836 70.9109 69.0719 70.9454 69.0487 70.9761C69.0177 71.0068 68.9789 71.0221 68.9324 71.0221H67.4328C67.394 71.0221 67.3591 71.0068 67.3281 70.9761C67.2971 70.9454 67.2816 70.9109 67.2816 70.8725V67.0873C67.2816 66.7498 67.1886 66.4737 67.0026 66.2589C66.8089 66.0518 66.5531 65.9483 66.2353 65.9483C65.9176 65.9483 65.6657 66.0518 65.4797 66.2589C65.2859 66.4737 65.189 66.7498 65.189 67.0873V70.8725C65.189 70.9109 65.1735 70.9454 65.1425 70.9761C65.1115 71.0068 65.0767 71.0221 65.0379 71.0221H63.5382C63.4917 71.0221 63.4569 71.0068 63.4336 70.9761C63.4026 70.9454 63.3871 70.9109 63.3871 70.8725V64.6712C63.3871 64.6252 63.4026 64.5868 63.4336 64.5561C63.4569 64.5331 63.4917 64.5216 63.5382 64.5216H65.0379C65.0767 64.5216 65.1115 64.5331 65.1425 64.5561C65.1735 64.5868 65.189 64.6252 65.189 64.6712V65.1084C65.189 65.1391 65.1968 65.1582 65.2123 65.1659C65.2278 65.1736 65.2394 65.1698 65.2472 65.1544C65.5959 64.6635 66.1191 64.4181 66.8166 64.4181ZM76.1634 67.0988C76.2099 67.4209 76.2254 67.7814 76.2099 68.1803C76.2022 68.28 76.1479 68.3299 76.0472 68.3299H72.0945C72.0403 68.3299 72.0209 68.349 72.0364 68.3874C72.0674 68.5561 72.1178 68.7249 72.1875 68.8936C72.4045 69.3692 72.8541 69.6069 73.5361 69.6069C74.0864 69.5993 74.5165 69.3807 74.8265 68.9511C74.8653 68.8975 74.904 68.8706 74.9428 68.8706C74.966 68.8706 74.997 68.8859 75.0358 68.9166L75.9542 69.8255C76.0007 69.8639 76.0239 69.8984 76.0239 69.9291C76.0239 69.9521 76.0045 69.9866 75.9658 70.0326C75.6868 70.3778 75.3264 70.6463 74.8846 70.838C74.4351 71.0298 73.9469 71.1256 73.4198 71.1256C72.6913 71.1256 72.0713 70.9607 71.5598 70.6309C71.056 70.3011 70.6917 69.8409 70.467 69.2503C70.2887 68.8284 70.1996 68.2762 70.1996 67.5935C70.1996 67.1256 70.2655 66.7153 70.3972 66.3625C70.591 65.7642 70.932 65.2886 71.4203 64.9358C71.9085 64.583 72.4898 64.4066 73.1641 64.4066C74.0166 64.4066 74.7025 64.652 75.2218 65.1429C75.7333 65.6261 76.0472 66.2781 76.1634 67.0988ZM73.1757 65.9483C72.6409 65.9483 72.2883 66.1976 72.1178 66.6961C72.0868 66.8035 72.0558 66.9377 72.0248 67.0988C72.0248 67.1448 72.048 67.1678 72.0945 67.1678H74.3034C74.3576 67.1678 74.377 67.1448 74.3615 67.0988C74.315 66.8534 74.2917 66.7345 74.2917 66.7421C74.2142 66.489 74.0786 66.2934 73.8849 66.1554C73.6988 66.0173 73.4625 65.9483 73.1757 65.9483ZM79.8603 71.1141C79.2868 71.1141 78.7869 71.0336 78.3606 70.8725C77.9344 70.7115 77.605 70.489 77.3725 70.2052C77.1322 69.9138 77.0121 69.5878 77.0121 69.2273V69.1007C77.0121 69.0547 77.0276 69.0163 77.0586 68.9857C77.0896 68.9627 77.1283 68.9511 77.1748 68.9511H78.5931C78.6319 68.9511 78.6668 68.9627 78.6978 68.9857C78.7288 69.0163 78.7443 69.0547 78.7443 69.1007V69.1122C78.7443 69.2963 78.8489 69.4535 79.0582 69.5839C79.2674 69.7143 79.527 69.7795 79.8371 69.7795C80.1316 69.7795 80.368 69.722 80.5462 69.6069C80.7245 69.4919 80.8136 69.3538 80.8136 69.1928C80.8136 69.0394 80.7361 68.9243 80.5811 68.8476C80.4261 68.7709 80.1742 68.6904 79.8254 68.606C79.4302 68.5063 79.1163 68.4104 78.8838 68.3184C78.3413 68.1266 77.9072 67.8965 77.5817 67.628C77.2562 67.3596 77.0935 66.9722 77.0935 66.466C77.0935 65.8447 77.3376 65.35 77.8259 64.9818C78.3141 64.6137 78.9652 64.4296 79.7789 64.4296C80.3214 64.4296 80.7981 64.5139 81.2089 64.6827C81.6196 64.8591 81.9374 65.1046 82.1621 65.419C82.3869 65.7258 82.4993 66.0787 82.4993 66.4775C82.4993 66.5235 82.4838 66.5581 82.4528 66.5811C82.4295 66.6117 82.3946 66.6271 82.3481 66.6271H80.9763C80.9376 66.6271 80.9027 66.6117 80.8717 66.5811C80.8407 66.5581 80.8252 66.5235 80.8252 66.4775C80.8252 66.2934 80.7283 66.1362 80.5346 66.0058C80.3486 65.8831 80.0967 65.8217 79.7789 65.8217C79.4999 65.8217 79.2713 65.8716 79.093 65.9713C78.907 66.071 78.814 66.2091 78.814 66.3855C78.814 66.5542 78.9031 66.6808 79.0814 66.7651C79.2597 66.8495 79.5503 66.9416 79.9533 67.0413L80.2788 67.1218L80.6625 67.2254C81.267 67.4018 81.7436 67.628 82.0924 67.9042C82.4411 68.188 82.6155 68.5945 82.6155 69.1237C82.6155 69.745 82.3675 70.2321 81.8715 70.5849C81.3677 70.9377 80.6973 71.1141 79.8603 71.1141ZM86.1845 71.1141C85.611 71.1141 85.1111 71.0336 84.6848 70.8725C84.2586 70.7115 83.9292 70.489 83.6967 70.2052C83.4642 69.9138 83.3479 69.5878 83.3479 69.2273V69.1007C83.3479 69.0547 83.3634 69.0163 83.3944 68.9857C83.4254 68.9627 83.4603 68.9511 83.4991 68.9511H84.9174C84.9639 68.9511 85.0026 68.9627 85.0336 68.9857C85.0569 69.0163 85.0685 69.0547 85.0685 69.1007V69.1122C85.0685 69.2963 85.1731 69.4535 85.3824 69.5839C85.5916 69.7143 85.8551 69.7795 86.1729 69.7795C86.4597 69.7795 86.6922 69.722 86.8704 69.6069C87.0564 69.4919 87.1494 69.3538 87.1494 69.1928C87.1494 69.0394 87.0719 68.9243 86.9169 68.8476C86.7619 68.7709 86.51 68.6904 86.1613 68.606C85.7583 68.5063 85.4405 68.4104 85.208 68.3184C84.6655 68.1266 84.2315 67.8965 83.9059 67.628C83.5804 67.3596 83.4177 66.9722 83.4177 66.466C83.4177 65.8447 83.6657 65.35 84.1617 64.9818C84.65 64.6137 85.301 64.4296 86.1148 64.4296C86.6573 64.4296 87.1339 64.5139 87.5447 64.6827C87.9477 64.8591 88.2655 65.1046 88.498 65.419C88.7227 65.7258 88.8351 66.0787 88.8351 66.4775C88.8351 66.5235 88.8196 66.5581 88.7886 66.5811C88.7576 66.6117 88.7227 66.6271 88.684 66.6271H87.3122C87.2657 66.6271 87.2308 66.6117 87.2076 66.5811C87.1766 66.5581 87.1611 66.5235 87.1611 66.4775C87.1611 66.2934 87.0642 66.1362 86.8704 66.0058C86.6767 65.8831 86.4248 65.8217 86.1148 65.8217C85.828 65.8217 85.5955 65.8716 85.4172 65.9713C85.239 66.071 85.1499 66.2091 85.1499 66.3855C85.1499 66.5542 85.239 66.6808 85.4172 66.7651C85.5878 66.8495 85.8784 66.9416 86.2892 67.0413C86.3822 67.0643 86.4868 67.0911 86.603 67.1218C86.727 67.1525 86.8549 67.187 86.9867 67.2254C87.5912 67.4018 88.0717 67.628 88.4282 67.9042C88.777 68.188 88.9514 68.5945 88.9514 69.1237C88.9514 69.745 88.6995 70.2321 88.1957 70.5849C87.6997 70.9377 87.0293 71.1141 86.1845 71.1141ZM94.6362 71.0221C94.5432 71.0221 94.4851 70.9799 94.4618 70.8955L92.1949 62.3241L92.1832 62.2781C92.1832 62.2014 92.2297 62.163 92.3227 62.163H93.9154C94.0007 62.163 94.0549 62.2052 94.0782 62.2896L95.2872 67.444C95.295 67.4746 95.3105 67.49 95.3337 67.49C95.3492 67.49 95.3608 67.4746 95.3686 67.444L96.5428 62.3011C96.566 62.2091 96.6203 62.163 96.7055 62.163H98.2517C98.3525 62.163 98.4145 62.2052 98.4377 62.2896L99.7165 67.444C99.7242 67.467 99.7359 67.4823 99.7514 67.49C99.7669 67.49 99.7785 67.4746 99.7863 67.444L100.972 62.3011C100.995 62.2091 101.05 62.163 101.135 62.163H102.646C102.762 62.163 102.809 62.2167 102.786 62.3241L100.681 70.8955C100.658 70.9799 100.6 71.0221 100.507 71.0221H98.9841C98.8988 71.0221 98.8446 70.9799 98.8213 70.8955L97.5193 65.419C97.5115 65.3807 97.496 65.3615 97.4728 65.3615C97.4573 65.3615 97.4457 65.3807 97.4379 65.419L96.2289 70.884C96.2056 70.9761 96.1475 71.0221 96.0545 71.0221H94.6362ZM104.727 63.7853C104.44 63.7853 104.2 63.6894 104.006 63.4976C103.813 63.3059 103.716 63.0681 103.716 62.7843C103.716 62.4852 103.809 62.2436 103.995 62.0595C104.188 61.8754 104.433 61.7834 104.727 61.7834C105.029 61.7834 105.273 61.8754 105.459 62.0595C105.645 62.2436 105.738 62.4852 105.738 62.7843C105.738 63.0681 105.642 63.3059 105.448 63.4976C105.254 63.6894 105.014 63.7853 104.727 63.7853ZM103.96 71.0221C103.921 71.0221 103.886 71.0068 103.855 70.9761C103.824 70.9454 103.809 70.9109 103.809 70.8725V64.6597C103.809 64.6137 103.824 64.5753 103.855 64.5446C103.886 64.5139 103.921 64.4986 103.96 64.4986H105.459C105.498 64.4986 105.533 64.5139 105.564 64.5446C105.595 64.5753 105.611 64.6137 105.611 64.6597V70.8725C105.611 70.9109 105.595 70.9454 105.564 70.9761C105.533 71.0068 105.498 71.0221 105.459 71.0221H103.96ZM110.784 65.7987C110.784 65.8371 110.772 65.8716 110.749 65.9023C110.718 65.9329 110.679 65.9483 110.633 65.9483H109.412C109.366 65.9483 109.342 65.9674 109.342 66.0058V68.698C109.342 68.9742 109.4 69.1813 109.517 69.3193C109.633 69.4497 109.819 69.5149 110.075 69.5149H110.493C110.54 69.5149 110.579 69.5302 110.61 69.5609C110.633 69.5916 110.644 69.6261 110.644 69.6645V70.8725C110.644 70.9646 110.594 71.0183 110.493 71.0336C110.137 71.0489 109.881 71.0566 109.726 71.0566C109.021 71.0566 108.494 70.9416 108.145 70.7115C107.796 70.4813 107.618 70.0441 107.61 69.3999V66.0058C107.61 65.9674 107.587 65.9483 107.54 65.9483H106.808C106.769 65.9483 106.734 65.9329 106.703 65.9023C106.672 65.8716 106.657 65.8371 106.657 65.7987V64.6712C106.657 64.6252 106.672 64.5868 106.703 64.5561C106.734 64.5331 106.769 64.5216 106.808 64.5216H107.54C107.587 64.5216 107.61 64.4986 107.61 64.4526V62.9454C107.61 62.907 107.622 62.8725 107.645 62.8418C107.676 62.8112 107.715 62.7958 107.761 62.7958H109.191C109.23 62.7958 109.265 62.8112 109.296 62.8418C109.327 62.8725 109.342 62.907 109.342 62.9454V64.4526C109.342 64.4986 109.366 64.5216 109.412 64.5216H110.633C110.679 64.5216 110.718 64.5331 110.749 64.5561C110.772 64.5868 110.784 64.6252 110.784 64.6712V65.7987ZM115.306 64.4181C115.988 64.4181 116.538 64.6252 116.957 65.0394C117.375 65.4535 117.585 66.0135 117.585 66.7191V70.8725C117.585 70.9109 117.569 70.9454 117.538 70.9761C117.507 71.0068 117.468 71.0221 117.422 71.0221H115.934C115.887 71.0221 115.849 71.0068 115.818 70.9761C115.794 70.9454 115.783 70.9109 115.783 70.8725V67.0873C115.783 66.7498 115.686 66.4737 115.492 66.2589C115.298 66.0518 115.043 65.9483 114.725 65.9483C114.415 65.9483 114.163 66.0518 113.969 66.2589C113.775 66.4737 113.679 66.7498 113.679 67.0873V70.8725C113.679 70.9109 113.663 70.9454 113.632 70.9761C113.601 71.0068 113.566 71.0221 113.527 71.0221H112.028C111.989 71.0221 111.954 71.0068 111.923 70.9761C111.892 70.9454 111.877 70.9109 111.877 70.8725V62.3126C111.877 62.2743 111.892 62.2397 111.923 62.2091C111.954 62.1784 111.989 62.163 112.028 62.163H113.527C113.566 62.163 113.601 62.1784 113.632 62.2091C113.663 62.2397 113.679 62.2743 113.679 62.3126V65.1084C113.679 65.1391 113.686 65.1582 113.702 65.1659C113.717 65.1736 113.733 65.1698 113.748 65.1544C114.097 64.6635 114.616 64.4181 115.306 64.4181ZM47.2743 50.8879C47.2743 50.9262 47.2588 50.9607 47.2278 50.9914C47.1968 51.0221 47.158 51.0374 47.1115 51.0374H42.9264C42.8799 51.0374 42.8566 51.0604 42.8566 51.1065V53.0624C42.8566 53.1084 42.8799 53.1314 42.9264 53.1314H45.67C45.7165 53.1314 45.7552 53.1429 45.7862 53.1659C45.8095 53.1966 45.8211 53.2349 45.8211 53.281V54.512C45.8211 54.5504 45.8095 54.5849 45.7862 54.6156C45.7552 54.6463 45.7165 54.6616 45.67 54.6616H42.9264C42.8799 54.6616 42.8566 54.6808 42.8566 54.7191V56.7671C42.8566 56.8131 42.8799 56.8361 42.9264 56.8361H47.1115C47.158 56.8361 47.1968 56.8514 47.2278 56.8821C47.2588 56.9128 47.2743 56.9473 47.2743 56.9857V58.2167C47.2743 58.2551 47.2588 58.2896 47.2278 58.3203C47.1968 58.351 47.158 58.3663 47.1115 58.3663H41.2058C41.1671 58.3663 41.1322 58.351 41.1012 58.3203C41.0702 58.2896 41.0547 58.2551 41.0547 58.2167V49.6568C41.0547 49.6185 41.0702 49.5839 41.1012 49.5533C41.1322 49.5226 41.1671 49.5072 41.2058 49.5072H47.1115C47.158 49.5072 47.1968 49.5226 47.2278 49.5533C47.2588 49.5839 47.2743 49.6185 47.2743 49.6568V50.8879ZM51.0293 51.7623C51.5873 51.7623 52.0833 51.8581 52.5174 52.0499C52.9514 52.234 53.2885 52.4909 53.5288 52.8208C53.769 53.1506 53.8892 53.5187 53.8892 53.9253V58.2167C53.8892 58.2551 53.8775 58.2896 53.8543 58.3203C53.8233 58.351 53.7845 58.3663 53.738 58.3663H52.25C52.2035 58.3663 52.1647 58.351 52.1337 58.3203C52.1027 58.2896 52.0872 58.2551 52.0872 58.2167V57.8025C52.0872 57.7719 52.0795 57.7527 52.064 57.745C52.0485 57.7373 52.033 57.745 52.0175 57.768C51.6609 58.2359 51.0836 58.4698 50.2853 58.4698C49.6188 58.4698 49.084 58.3088 48.681 57.9866C48.2702 57.6645 48.0648 57.1928 48.0648 56.5715C48.0648 55.9195 48.2935 55.4133 48.7507 55.0528C49.2157 54.6999 49.8745 54.5235 50.727 54.5235H52.0291C52.0678 54.5235 52.0872 54.5005 52.0872 54.4545V54.1784C52.0872 53.9023 52.002 53.6837 51.8315 53.5226C51.6609 53.3692 51.4052 53.2925 51.0642 53.2925C50.8007 53.2925 50.5837 53.3385 50.4132 53.4305C50.2349 53.5226 50.1225 53.653 50.076 53.8217C50.045 53.9138 49.9869 53.9559 49.9016 53.9483L48.3555 53.7527C48.2547 53.7297 48.2082 53.6913 48.216 53.6376C48.247 53.2771 48.3903 52.955 48.6461 52.6712C48.8941 52.3874 49.2274 52.165 49.6459 52.0039C50.0566 51.8428 50.5178 51.7623 51.0293 51.7623ZM50.7735 57.1352C51.1378 57.1352 51.4478 57.0394 51.7036 56.8476C51.9593 56.6558 52.0872 56.4066 52.0872 56.0998V55.6511C52.0872 55.605 52.0678 55.582 52.0291 55.582H51.1107C50.7232 55.582 50.4209 55.6549 50.2039 55.8006C49.9869 55.9387 49.8784 56.1419 49.8784 56.4104C49.8784 56.6328 49.9598 56.8092 50.1225 56.9396C50.2853 57.07 50.5023 57.1352 50.7735 57.1352ZM57.7837 58.4583C57.2101 58.4583 56.7103 58.3778 56.284 58.2167C55.8577 58.0557 55.5283 57.8332 55.2958 57.5494C55.0633 57.258 54.9471 56.932 54.9471 56.5715V56.4449C54.9471 56.3989 54.9626 56.3605 54.9936 56.3299C55.0168 56.3069 55.0517 56.2953 55.0982 56.2953H56.5165C56.5552 56.2953 56.5901 56.3069 56.6211 56.3299C56.6521 56.3605 56.6676 56.3989 56.6676 56.4449V56.4564C56.6676 56.6405 56.7723 56.7977 56.9815 56.9281C57.1908 57.0585 57.4543 57.1237 57.772 57.1237C58.0588 57.1237 58.2913 57.0662 58.4696 56.9511C58.6478 56.8361 58.7369 56.698 58.7369 56.537C58.7369 56.3836 58.6633 56.2685 58.5161 56.1918C58.3611 56.1151 58.1092 56.0346 57.7604 55.9502C57.3574 55.8505 57.0396 55.7546 56.8071 55.6626C56.2646 55.4708 55.8306 55.2407 55.5051 54.9722C55.1796 54.7038 55.0168 54.3164 55.0168 53.8102C55.0168 53.1889 55.2648 52.6942 55.7608 52.326C56.2491 51.9579 56.8963 51.7738 57.7023 51.7738C58.2526 51.7738 58.7292 51.8581 59.1322 52.0269C59.543 52.2033 59.8607 52.4488 60.0855 52.7632C60.318 53.07 60.4343 53.4229 60.4343 53.8217C60.4343 53.8677 60.4188 53.9022 60.3878 53.9253C60.3568 53.9559 60.318 53.9713 60.2715 53.9713H58.9113C58.8648 53.9713 58.8261 53.9559 58.7951 53.9253C58.7641 53.9022 58.7486 53.8677 58.7486 53.8217C58.7486 53.6376 58.6556 53.4804 58.4696 53.35C58.2758 53.2273 58.02 53.1659 57.7023 53.1659C57.4233 53.1659 57.1946 53.2158 57.0164 53.3155C56.8381 53.4152 56.749 53.5533 56.749 53.7297C56.749 53.8984 56.8343 54.025 57.0048 54.1093C57.183 54.1937 57.4775 54.2858 57.8883 54.3855C57.9813 54.4085 58.0859 54.4353 58.2022 54.466C58.3262 54.4967 58.4541 54.5312 58.5858 54.5696C59.1903 54.746 59.667 54.9722 60.0157 55.2484C60.3645 55.5322 60.5389 55.9387 60.5389 56.4679C60.5389 57.0892 60.2909 57.5763 59.7949 57.9291C59.2988 58.2819 58.6284 58.4583 57.7837 58.4583ZM62.5501 51.1295C62.2633 51.1295 62.0231 51.0336 61.8293 50.8418C61.6355 50.6501 61.5387 50.4123 61.5387 50.1285C61.5387 49.8294 61.6317 49.5878 61.8177 49.4037C62.0114 49.2196 62.2556 49.1276 62.5501 49.1276C62.8523 49.1276 63.0965 49.2196 63.2825 49.4037C63.4685 49.5878 63.5615 49.8294 63.5615 50.1285C63.5615 50.4123 63.4646 50.6501 63.2709 50.8418C63.0848 51.0336 62.8446 51.1295 62.5501 51.1295ZM61.7828 58.3663C61.7441 58.3663 61.7092 58.351 61.6782 58.3203C61.6472 58.2896 61.6317 58.2551 61.6317 58.2167V52.0039C61.6317 51.9579 61.6472 51.9195 61.6782 51.8888C61.7092 51.8581 61.7441 51.8428 61.7828 51.8428H63.2825C63.3212 51.8428 63.3561 51.8581 63.3871 51.8888C63.4181 51.9195 63.4336 51.9579 63.4336 52.0039V58.2167C63.4336 58.2551 63.4181 58.2896 63.3871 58.3203C63.3561 58.351 63.3212 58.3663 63.2825 58.3663H61.7828ZM70.6646 54.443C70.7111 54.7651 70.7266 55.1256 70.7111 55.5245C70.7034 55.6242 70.6491 55.6741 70.5484 55.6741H66.5957C66.5415 55.6741 66.5221 55.6932 66.5376 55.7316C66.5686 55.9003 66.6151 56.0691 66.6771 56.2378C66.9019 56.7134 67.3552 56.9511 68.0373 56.9511C68.5798 56.9435 69.0099 56.7249 69.3277 56.2953C69.3664 56.2417 69.4052 56.2148 69.4439 56.2148C69.4672 56.2148 69.4982 56.2301 69.5369 56.2608L70.4554 57.1697C70.4941 57.2081 70.5135 57.2426 70.5135 57.2733C70.5135 57.2963 70.498 57.3308 70.467 57.3768C70.188 57.722 69.8276 57.9905 69.3858 58.1822C68.9363 58.374 68.448 58.4698 67.921 58.4698C67.1925 58.4698 66.5725 58.3049 66.061 57.9751C65.5572 57.6453 65.1929 57.1851 64.9682 56.5945C64.7899 56.1726 64.7008 55.6204 64.7008 54.9377C64.7008 54.4698 64.7628 54.0595 64.8868 53.7067C65.0883 53.1084 65.4332 52.6328 65.9214 52.28C66.4097 51.9272 66.991 51.7508 67.6653 51.7508C68.5178 51.7508 69.2037 51.9962 69.723 52.4871C70.2345 52.9703 70.5484 53.6223 70.6646 54.443ZM67.6769 53.2925C67.1421 53.2925 66.7895 53.5418 66.619 54.0403C66.588 54.1477 66.557 54.2819 66.526 54.443C66.526 54.489 66.5492 54.512 66.5957 54.512H68.8045C68.8588 54.512 68.8743 54.489 68.851 54.443C68.8123 54.1976 68.7929 54.0787 68.7929 54.0863C68.7154 53.8332 68.5798 53.6376 68.386 53.4996C68.2 53.3615 67.9636 53.2925 67.6769 53.2925ZM74.3499 58.4583C73.7841 58.4583 73.2881 58.3778 72.8618 58.2167C72.4355 58.0557 72.1062 57.8332 71.8737 57.5494C71.6334 57.258 71.5133 56.932 71.5133 56.5715V56.4449C71.5133 56.3989 71.5288 56.3605 71.5598 56.3299C71.5908 56.3069 71.6256 56.2953 71.6644 56.2953H73.0943C73.1331 56.2953 73.168 56.3069 73.199 56.3299C73.23 56.3605 73.2455 56.3989 73.2455 56.4449V56.4564C73.2455 56.6405 73.3501 56.7977 73.5593 56.9281C73.7686 57.0585 74.0282 57.1237 74.3382 57.1237C74.6328 57.1237 74.8691 57.0662 75.0474 56.9511C75.2256 56.8361 75.3148 56.698 75.3148 56.537C75.3148 56.3836 75.2373 56.2685 75.0823 56.1918C74.9273 56.1151 74.6754 56.0346 74.3266 55.9502C73.9313 55.8505 73.6175 55.7546 73.385 55.6626C72.8347 55.4708 72.4007 55.2407 72.0829 54.9722C71.7574 54.7038 71.5946 54.3164 71.5946 53.8102C71.5946 53.1889 71.8388 52.6942 72.327 52.326C72.8153 51.9579 73.4663 51.7738 74.2801 51.7738C74.8226 51.7738 75.2993 51.8581 75.71 52.0269C76.1208 52.2033 76.4386 52.4488 76.6633 52.7632C76.8881 53.07 77.0005 53.4229 77.0005 53.8217C77.0005 53.8677 76.985 53.9022 76.954 53.9253C76.923 53.9559 76.8881 53.9713 76.8493 53.9713H75.4775C75.4388 53.9713 75.4039 53.9559 75.3729 53.9253C75.3419 53.9022 75.3264 53.8677 75.3264 53.8217C75.3264 53.6376 75.2295 53.4804 75.0358 53.35C74.8498 53.2273 74.5979 53.1659 74.2801 53.1659C74.0011 53.1659 73.7686 53.2158 73.5826 53.3155C73.4043 53.4152 73.3152 53.5533 73.3152 53.7297C73.3152 53.8984 73.4043 54.025 73.5826 54.1093C73.7531 54.1937 74.0437 54.2858 74.4545 54.3855L74.78 54.466L75.1636 54.5696C75.7682 54.746 76.2448 54.9722 76.5936 55.2484C76.9423 55.5322 77.1167 55.9387 77.1167 56.4679C77.1167 57.0892 76.8687 57.5763 76.3727 57.9291C75.8689 58.2819 75.1946 58.4583 74.3499 58.4583ZM81.918 53.1429C81.918 53.1813 81.9025 53.2158 81.8715 53.2464C81.8405 53.2771 81.8018 53.2925 81.7552 53.2925H80.5346C80.4881 53.2925 80.4648 53.3116 80.4648 53.35V56.0422C80.4648 56.3184 80.523 56.5255 80.6392 56.6635C80.7555 56.7939 80.9415 56.8591 81.1972 56.8591H81.6157C81.6622 56.8591 81.701 56.8744 81.732 56.9051C81.763 56.9358 81.7785 56.9703 81.7785 57.0087V58.2167C81.7785 58.3088 81.7242 58.3625 81.6157 58.3778C81.2592 58.3931 81.0035 58.4008 80.8485 58.4008C80.1432 58.4008 79.6162 58.2858 79.2674 58.0557C78.9186 57.8255 78.7404 57.3883 78.7326 56.7441V53.35C78.7326 53.3116 78.7094 53.2925 78.6629 53.2925H77.9305C77.8917 53.2925 77.8569 53.2771 77.8259 53.2464C77.7949 53.2158 77.7794 53.1813 77.7794 53.1429V52.0154C77.7794 51.9694 77.7949 51.931 77.8259 51.9003C77.8569 51.8773 77.8917 51.8658 77.9305 51.8658H78.6629C78.7094 51.8658 78.7326 51.8428 78.7326 51.7968V50.2896C78.7326 50.2512 78.7481 50.2167 78.7791 50.186C78.8024 50.1554 78.8373 50.14 78.8838 50.14H80.3137C80.3602 50.14 80.3951 50.1554 80.4183 50.186C80.4493 50.2167 80.4648 50.2512 80.4648 50.2896V51.7968C80.4648 51.8428 80.4881 51.8658 80.5346 51.8658H81.7552C81.8018 51.8658 81.8405 51.8773 81.8715 51.9003C81.9025 51.931 81.918 51.9694 81.918 52.0154V53.1429ZM91.8461 49.5072C91.8926 49.5072 91.9314 49.5226 91.9624 49.5533C91.9934 49.5839 92.0089 49.6185 92.0089 49.6568V50.8994C92.0089 50.9454 91.9934 50.9799 91.9624 51.0029C91.9314 51.0336 91.8926 51.0489 91.8461 51.0489H89.5559C89.5171 51.0489 89.4978 51.072 89.4978 51.118V58.2167C89.4978 58.2551 89.4823 58.2896 89.4513 58.3203C89.4203 58.351 89.3854 58.3663 89.3466 58.3663H87.847C87.8082 58.3663 87.7733 58.351 87.7423 58.3203C87.7113 58.2896 87.6958 58.2551 87.6958 58.2167V51.118C87.6958 51.072 87.6726 51.0489 87.6261 51.0489H85.4056C85.3591 51.0489 85.3242 51.0336 85.301 51.0029C85.27 50.9799 85.2545 50.9454 85.2545 50.8994V49.6568C85.2545 49.6185 85.27 49.5839 85.301 49.5533C85.3242 49.5226 85.3591 49.5072 85.4056 49.5072H91.8461ZM94.8687 58.4698C94.1557 58.4698 93.5434 58.2819 93.0319 57.9061C92.5204 57.5379 92.1677 57.0317 91.974 56.3874C91.8577 55.9962 91.7996 55.5667 91.7996 55.0988C91.7996 54.6002 91.8577 54.1554 91.974 53.7642C92.1755 53.1352 92.532 52.6443 93.0435 52.2915C93.555 51.9387 94.1673 51.7623 94.8803 51.7623C95.5779 51.7623 96.1746 51.9348 96.6706 52.28C97.1667 52.6328 97.5154 53.1237 97.7169 53.7527C97.8564 54.1745 97.9262 54.6156 97.9262 55.0758C97.9262 55.5283 97.8642 55.954 97.7402 56.3529C97.5542 57.0125 97.2093 57.5302 96.7055 57.9061C96.194 58.2819 95.5817 58.4698 94.8687 58.4698ZM94.8687 56.9396C95.1477 56.9396 95.388 56.8553 95.5895 56.6865C95.7832 56.5178 95.9227 56.2838 96.008 55.9847C96.0777 55.7162 96.1126 55.4209 96.1126 55.0988C96.1126 54.746 96.0777 54.4468 96.008 54.2014C95.915 53.9176 95.7677 53.6952 95.5662 53.5341C95.3725 53.373 95.1361 53.2925 94.8571 53.2925C94.5626 53.2925 94.3223 53.373 94.1363 53.5341C93.9425 53.6952 93.803 53.9176 93.7178 54.2014C93.648 54.4085 93.6132 54.7076 93.6132 55.0988C93.6132 55.4823 93.6442 55.7776 93.7062 55.9847C93.7914 56.2838 93.9348 56.5178 94.1363 56.6865C94.3378 56.8553 94.5819 56.9396 94.8687 56.9396ZM101.914 58.3663C101.875 58.3663 101.84 58.351 101.809 58.3203C101.778 58.2896 101.763 58.2551 101.763 58.2167V49.6568C101.763 49.6185 101.778 49.5839 101.809 49.5533C101.84 49.5226 101.875 49.5072 101.914 49.5072H105.111C105.754 49.5072 106.316 49.6185 106.796 49.8409C107.277 50.0633 107.649 50.3778 107.912 50.7843C108.176 51.1908 108.308 51.6587 108.308 52.188V55.6856C108.308 56.2148 108.176 56.6827 107.912 57.0892C107.649 57.4957 107.277 57.8102 106.796 58.0326C106.316 58.2551 105.754 58.3663 105.111 58.3663H101.914ZM103.565 56.7671C103.565 56.8131 103.584 56.8361 103.623 56.8361H105.18C105.568 56.8361 105.882 56.7057 106.122 56.4449C106.37 56.1841 106.498 55.8351 106.506 55.3979V52.4871C106.506 52.0422 106.386 51.6894 106.145 51.4286C105.897 51.1678 105.568 51.0374 105.157 51.0374H103.623C103.584 51.0374 103.565 51.0604 103.565 51.1065V56.7671ZM112.446 58.4698C111.733 58.4698 111.121 58.2819 110.61 57.9061C110.098 57.5379 109.749 57.0317 109.563 56.3874C109.439 55.9962 109.377 55.5667 109.377 55.0988C109.377 54.6002 109.439 54.1554 109.563 53.7642C109.757 53.1352 110.11 52.6443 110.621 52.2915C111.133 51.9387 111.749 51.7623 112.47 51.7623C113.167 51.7623 113.764 51.9348 114.26 52.28C114.748 52.6328 115.097 53.1237 115.306 53.7527C115.438 54.1745 115.504 54.6156 115.504 55.0758C115.504 55.5283 115.446 55.954 115.329 56.3529C115.143 57.0125 114.795 57.5302 114.283 57.9061C113.779 58.2819 113.167 58.4698 112.446 58.4698ZM112.446 56.9396C112.733 56.9396 112.973 56.8553 113.167 56.6865C113.361 56.5178 113.5 56.2838 113.586 55.9847C113.655 55.7162 113.69 55.4209 113.69 55.0988C113.69 54.746 113.655 54.4468 113.586 54.2014C113.493 53.9176 113.349 53.6952 113.155 53.5341C112.962 53.373 112.721 53.2925 112.435 53.2925C112.148 53.2925 111.908 53.373 111.714 53.5341C111.52 53.6952 111.381 53.9176 111.295 54.2014C111.233 54.4085 111.202 54.7076 111.202 55.0988C111.202 55.4823 111.23 55.7776 111.284 55.9847C111.369 56.2838 111.512 56.5178 111.714 56.6865C111.915 56.8553 112.16 56.9396 112.446 56.9396Z" fill="#252530"/>
<path d="M57.4465 81.6987C57.4465 81.7371 57.4349 81.7678 57.4116 81.7908C57.3806 81.8214 57.3457 81.8368 57.307 81.8368H53.3427C53.304 81.8368 53.2846 81.856 53.2846 81.8943V84.0458C53.2846 84.0841 53.304 84.1033 53.3427 84.1033H56.0049C56.0437 84.1033 56.0786 84.1148 56.1096 84.1378C56.1328 84.1685 56.1444 84.203 56.1444 84.2414V85.1158C56.1444 85.1541 56.1328 85.1886 56.1096 85.2193C56.0786 85.2423 56.0437 85.2539 56.0049 85.2539H53.3427C53.304 85.2539 53.2846 85.273 53.2846 85.3114V87.5319C53.2846 87.5702 53.304 87.5894 53.3427 87.5894H57.307C57.3457 87.5894 57.3806 87.6048 57.4116 87.6354C57.4349 87.6585 57.4465 87.6891 57.4465 87.7275V88.6019C57.4465 88.6402 57.4349 88.6709 57.4116 88.6939C57.3806 88.7246 57.3457 88.7399 57.307 88.7399H52.0755C52.0368 88.7399 52.0058 88.7246 51.9825 88.6939C51.9515 88.6709 51.936 88.6402 51.936 88.6019V80.8243C51.936 80.786 51.9515 80.7553 51.9825 80.7323C52.0058 80.7016 52.0368 80.6863 52.0755 80.6863H57.307C57.3457 80.6863 57.3806 80.7016 57.4116 80.7323C57.4349 80.7553 57.4465 80.786 57.4465 80.8243V81.6987ZM61.5386 82.7687C62.1664 82.7687 62.6702 82.9528 63.0499 83.321C63.4219 83.6891 63.6079 84.1915 63.6079 84.8282V88.6019C63.6079 88.6402 63.5924 88.6709 63.5614 88.6939C63.5382 88.7246 63.5072 88.7399 63.4684 88.7399H62.3989C62.3601 88.7399 62.3253 88.7246 62.2943 88.6939C62.271 88.6709 62.2594 88.6402 62.2594 88.6019V85.1043C62.2594 84.7514 62.1586 84.4638 61.9571 84.2414C61.7556 84.0266 61.4882 83.9192 61.155 83.9192C60.8217 83.9192 60.5505 84.0266 60.3412 84.2414C60.1397 84.4561 60.0389 84.7399 60.0389 85.0928V88.6019C60.0389 88.6402 60.0273 88.6709 60.0041 88.6939C59.9731 88.7246 59.9382 88.7399 59.8994 88.7399H58.8299C58.7911 88.7399 58.7601 88.7246 58.7369 88.6939C58.7059 88.6709 58.6904 88.6402 58.6904 88.6019V82.9988C58.6904 82.9605 58.7059 82.9259 58.7369 82.8953C58.7601 82.8723 58.7911 82.8608 58.8299 82.8608H59.8994C59.9382 82.8608 59.9731 82.8723 60.0041 82.8953C60.0273 82.9259 60.0389 82.9605 60.0389 82.9988V83.367C60.0389 83.39 60.0467 83.4053 60.0622 83.413C60.0777 83.4207 60.0893 83.413 60.0971 83.39C60.4148 82.9758 60.8953 82.7687 61.5386 82.7687ZM68.1651 83.8042C68.1651 83.8425 68.1496 83.8732 68.1186 83.8962C68.0953 83.9269 68.0643 83.9423 68.0256 83.9423H66.8398C66.8011 83.9423 66.7817 83.9614 66.7817 83.9998V86.7725C66.7817 87.064 66.8437 87.2749 66.9677 87.4053C67.0994 87.5357 67.3048 87.6009 67.5838 87.6009H67.9326C67.9713 87.6009 68.0023 87.6124 68.0256 87.6354C68.0566 87.6661 68.0721 87.7006 68.0721 87.739V88.6019C68.0721 88.6863 68.0256 88.7361 67.9326 88.7515L67.3281 88.763C66.7158 88.763 66.2585 88.6594 65.9563 88.4523C65.654 88.2452 65.499 87.854 65.4913 87.2788V83.9998C65.4913 83.9614 65.4719 83.9423 65.4331 83.9423H64.7705C64.7317 83.9423 64.6969 83.9269 64.6659 83.8962C64.6426 83.8732 64.631 83.8425 64.631 83.8042V82.9988C64.631 82.9605 64.6426 82.9259 64.6659 82.8953C64.6969 82.8723 64.7317 82.8608 64.7705 82.8608H65.4331C65.4719 82.8608 65.4913 82.8416 65.4913 82.8032V81.4571C65.4913 81.4188 65.5029 81.3842 65.5261 81.3536C65.5571 81.3306 65.592 81.319 65.6308 81.319H66.6422C66.6809 81.319 66.7119 81.3306 66.7352 81.3536C66.7662 81.3842 66.7817 81.4188 66.7817 81.4571V82.8032C66.7817 82.8416 66.8011 82.8608 66.8398 82.8608H68.0256C68.0643 82.8608 68.0953 82.8723 68.1186 82.8953C68.1496 82.9259 68.1651 82.9605 68.1651 82.9988V83.8042ZM74.2568 85.1388C74.2878 85.3305 74.3033 85.5453 74.3033 85.7831L74.2917 86.1398C74.2917 86.2318 74.2452 86.2778 74.1522 86.2778H70.5134C70.4747 86.2778 70.4553 86.297 70.4553 86.3353C70.4786 86.5885 70.5134 86.761 70.5599 86.8531C70.7459 87.4053 71.1993 87.6853 71.9201 87.693C72.4471 87.693 72.8656 87.4782 73.1756 87.0487C73.2067 87.0026 73.2454 86.9796 73.2919 86.9796C73.3229 86.9796 73.35 86.9911 73.3733 87.0142L74.0941 87.6009C74.1638 87.6546 74.1754 87.716 74.1289 87.785C73.8887 88.1225 73.5709 88.3833 73.1756 88.5674C72.7726 88.7515 72.327 88.8435 71.8387 88.8435C71.2342 88.8435 70.7188 88.7093 70.2925 88.4408C69.874 88.1724 69.5679 87.7965 69.3741 87.3133C69.1959 86.8991 69.1068 86.3238 69.1068 85.5875C69.1068 85.1426 69.1533 84.7821 69.2463 84.506C69.4013 83.9691 69.6958 83.5434 70.1298 83.2289C70.5561 82.9221 71.0715 82.7687 71.676 82.7687C73.2028 82.7687 74.0631 83.5587 74.2568 85.1388ZM71.676 83.9192C71.3892 83.9192 71.149 83.9921 70.9552 84.1378C70.7692 84.2759 70.6374 84.4715 70.5599 84.7246C70.5134 84.855 70.4824 85.0237 70.4669 85.2308C70.4514 85.2692 70.4669 85.2884 70.5134 85.2884H72.8734C72.9121 85.2884 72.9315 85.2692 72.9315 85.2308C72.916 85.0391 72.8928 84.8934 72.8618 84.7936C72.792 84.5175 72.6564 84.3027 72.4549 84.1493C72.2456 83.9959 71.986 83.9192 71.676 83.9192ZM78.3025 82.7917C78.5505 82.7917 78.7675 82.8416 78.9535 82.9413C79.0155 82.972 79.0387 83.0295 79.0232 83.1139L78.8256 84.1493C78.8178 84.2414 78.7636 84.2682 78.6628 84.2299C78.5466 84.1915 78.411 84.1724 78.2559 84.1724C78.1552 84.1724 78.0777 84.1762 78.0234 84.1839C77.6979 84.1992 77.4267 84.3104 77.2097 84.5175C76.9927 84.7323 76.8842 85.0084 76.8842 85.3459V88.6019C76.8842 88.6402 76.8725 88.6709 76.8493 88.6939C76.8183 88.7246 76.7834 88.7399 76.7446 88.7399H75.6751C75.6364 88.7399 75.6054 88.7246 75.5821 88.6939C75.5511 88.6709 75.5356 88.6402 75.5356 88.6019V82.9988C75.5356 82.9605 75.5511 82.9259 75.5821 82.8953C75.6054 82.8723 75.6364 82.8608 75.6751 82.8608H76.7446C76.7834 82.8608 76.8183 82.8723 76.8493 82.8953C76.8725 82.9259 76.8842 82.9605 76.8842 82.9988V83.5166C76.8842 83.5472 76.888 83.5626 76.8958 83.5626C76.9113 83.5702 76.9268 83.5626 76.9423 83.5396C77.2678 83.041 77.7212 82.7917 78.3025 82.7917ZM84.9406 84.3794C85.0801 84.7706 85.1498 85.25 85.1498 85.8176C85.1498 86.3622 85.0839 86.8301 84.9522 87.2213C84.7817 87.7275 84.5104 88.1225 84.1384 88.4063C83.7586 88.6901 83.282 88.832 82.7085 88.832C82.1582 88.832 81.7164 88.6364 81.3832 88.2452C81.3677 88.2299 81.3522 88.226 81.3367 88.2337C81.3212 88.2414 81.3134 88.2567 81.3134 88.2797V90.7764C81.3134 90.8147 81.3018 90.8454 81.2786 90.8684C81.2476 90.8991 81.2127 90.9144 81.1739 90.9144H80.1044C80.0656 90.9144 80.0346 90.8991 80.0114 90.8684C79.9804 90.8454 79.9649 90.8147 79.9649 90.7764V82.9988C79.9649 82.9605 79.9804 82.9259 80.0114 82.8953C80.0346 82.8723 80.0656 82.8608 80.1044 82.8608H81.1739C81.2127 82.8608 81.2476 82.8723 81.2786 82.8953C81.3018 82.9259 81.3134 82.9605 81.3134 82.9988V83.344C81.3134 83.367 81.3212 83.3823 81.3367 83.39C81.3522 83.3977 81.3677 83.39 81.3832 83.367C81.7242 82.9681 82.1698 82.7687 82.7201 82.7687C83.2704 82.7687 83.7354 82.9106 84.1152 83.1944C84.4949 83.4782 84.7701 83.8732 84.9406 84.3794ZM83.4293 87.1982C83.6618 86.8454 83.778 86.3775 83.778 85.7946C83.778 85.2347 83.685 84.7936 83.499 84.4715C83.282 84.0957 82.9526 83.9077 82.5108 83.9077C82.1078 83.9077 81.8056 84.0918 81.6041 84.46C81.4258 84.7591 81.3367 85.204 81.3367 85.7946C81.3367 86.4005 81.4336 86.8608 81.6273 87.1752C81.8288 87.5127 82.1195 87.6815 82.4992 87.6815C82.91 87.6815 83.22 87.5204 83.4293 87.1982ZM89.2187 82.7917C89.4667 82.7917 89.6837 82.8416 89.8697 82.9413C89.9317 82.972 89.955 83.0295 89.9395 83.1139L89.7419 84.1493C89.7341 84.2414 89.6798 84.2682 89.5791 84.2299C89.4628 84.1915 89.3272 84.1724 89.1722 84.1724C89.0715 84.1724 88.994 84.1762 88.9397 84.1839C88.6142 84.1992 88.3429 84.3104 88.1259 84.5175C87.9089 84.7323 87.8004 85.0084 87.8004 85.3459V88.6019C87.8004 88.6402 87.7888 88.6709 87.7655 88.6939C87.7345 88.7246 87.6997 88.7399 87.6609 88.7399H86.5914C86.5526 88.7399 86.5216 88.7246 86.4984 88.6939C86.4674 88.6709 86.4519 88.6402 86.4519 88.6019V82.9988C86.4519 82.9605 86.4674 82.9259 86.4984 82.8953C86.5216 82.8723 86.5526 82.8608 86.5914 82.8608H87.6609C87.6997 82.8608 87.7345 82.8723 87.7655 82.8953C87.7888 82.9259 87.8004 82.9605 87.8004 82.9988V83.5166C87.8004 83.5472 87.8043 83.5626 87.812 83.5626C87.8275 83.5702 87.843 83.5626 87.8585 83.5396C88.184 83.041 88.6374 82.7917 89.2187 82.7917ZM91.5903 82.0554C91.35 82.0554 91.1524 81.9787 90.9974 81.8253C90.8424 81.6719 90.7649 81.4763 90.7649 81.2385C90.7649 81.0007 90.8424 80.8051 90.9974 80.6517C91.1524 80.4983 91.35 80.4216 91.5903 80.4216C91.8305 80.4216 92.0282 80.4983 92.1832 80.6517C92.3382 80.8051 92.4157 81.0007 92.4157 81.2385C92.4157 81.4763 92.3382 81.6719 92.1832 81.8253C92.0282 81.9787 91.8305 82.0554 91.5903 82.0554ZM91.0323 88.7399C90.9935 88.7399 90.9625 88.7246 90.9393 88.6939C90.9083 88.6709 90.8928 88.6402 90.8928 88.6019V82.9873C90.8928 82.949 90.9083 82.9183 90.9393 82.8953C90.9625 82.8646 90.9935 82.8492 91.0323 82.8492H92.1018C92.1406 82.8492 92.1754 82.8646 92.2064 82.8953C92.2297 82.9183 92.2413 82.949 92.2413 82.9873V88.6019C92.2413 88.6402 92.2297 88.6709 92.2064 88.6939C92.1754 88.7246 92.1406 88.7399 92.1018 88.7399H91.0323ZM95.9963 88.809C95.5081 88.809 95.0779 88.7361 94.7059 88.5904C94.3416 88.4523 94.0588 88.2567 93.8572 88.0036C93.6557 87.7582 93.555 87.482 93.555 87.1752V87.0717C93.555 87.0333 93.5666 86.9988 93.5899 86.9681C93.6209 86.9451 93.6557 86.9336 93.6945 86.9336H94.7175C94.7563 86.9336 94.7912 86.9451 94.8222 86.9681C94.8454 86.9988 94.857 87.0333 94.857 87.0717V87.0947C94.857 87.2864 94.9617 87.4552 95.1709 87.6009C95.3879 87.739 95.6592 87.808 95.9847 87.808C96.2947 87.808 96.5466 87.7467 96.7403 87.6239C96.9341 87.4935 97.031 87.3325 97.031 87.1407C97.031 86.9643 96.9496 86.8301 96.7868 86.738C96.6318 86.6537 96.3761 86.5616 96.0196 86.4619L95.5778 86.3238C95.1825 86.2088 94.8493 86.0861 94.578 85.9557C94.3068 85.8253 94.0781 85.645 93.8921 85.4149C93.7061 85.1925 93.6131 84.9049 93.6131 84.552C93.6131 84.0151 93.8262 83.5894 94.2525 83.2749C94.6788 82.9528 95.2407 82.7917 95.9382 82.7917C96.411 82.7917 96.8256 82.8646 97.1821 83.0103C97.5386 83.1637 97.8138 83.3708 98.0075 83.6316C98.2013 83.9001 98.2981 84.203 98.2981 84.5405C98.2981 84.5789 98.2865 84.6134 98.2633 84.6441C98.2323 84.6671 98.1974 84.6786 98.1586 84.6786H97.1705C97.1317 84.6786 97.0969 84.6671 97.0659 84.6441C97.0426 84.6134 97.031 84.5789 97.031 84.5405C97.031 84.3411 96.9341 84.1762 96.7403 84.0458C96.5388 83.9077 96.2676 83.8387 95.9266 83.8387C95.6243 83.8387 95.3802 83.8924 95.1942 83.9998C95.0004 84.1148 94.9035 84.2721 94.9035 84.4715C94.9035 84.6556 94.9927 84.7936 95.1709 84.8857C95.3569 84.9854 95.6631 85.0928 96.0893 85.2078L96.3451 85.2769C96.7558 85.3996 97.1007 85.5223 97.3797 85.645C97.6588 85.7754 97.8951 85.9518 98.0889 86.1743C98.2826 86.4044 98.3795 86.6997 98.3795 87.0602C98.3795 87.6048 98.1625 88.0305 97.7285 88.3373C97.2945 88.6517 96.7171 88.809 95.9963 88.809ZM104.529 85.1388C104.56 85.3305 104.576 85.5453 104.576 85.7831L104.564 86.1398C104.564 86.2318 104.518 86.2778 104.425 86.2778H100.786C100.747 86.2778 100.728 86.297 100.728 86.3353C100.751 86.5885 100.786 86.761 100.832 86.8531C101.018 87.4053 101.472 87.6853 102.193 87.693C102.72 87.693 103.138 87.4782 103.448 87.0487C103.479 87.0026 103.518 86.9796 103.564 86.9796C103.595 86.9796 103.623 86.9911 103.646 87.0142L104.367 87.6009C104.436 87.6546 104.448 87.716 104.401 87.785C104.161 88.1225 103.84 88.3833 103.437 88.5674C103.041 88.7515 102.6 88.8435 102.111 88.8435C101.507 88.8435 100.991 88.7093 100.565 88.4408C100.147 88.1724 99.8405 87.7965 99.6467 87.3133C99.4684 86.8991 99.3793 86.3238 99.3793 85.5875C99.3793 85.1426 99.4258 84.7821 99.5188 84.506C99.6738 83.9691 99.9645 83.5434 100.391 83.2289C100.825 82.9221 101.344 82.7687 101.949 82.7687C103.475 82.7687 104.336 83.5587 104.529 85.1388ZM101.949 83.9192C101.662 83.9192 101.422 83.9921 101.228 84.1378C101.042 84.2759 100.91 84.4715 100.832 84.7246C100.786 84.855 100.755 85.0237 100.739 85.2308C100.724 85.2692 100.739 85.2884 100.786 85.2884H103.146C103.185 85.2884 103.204 85.2692 103.204 85.2308C103.189 85.0391 103.165 84.8934 103.134 84.7936C103.065 84.5175 102.925 84.3027 102.716 84.1493C102.514 83.9959 102.259 83.9192 101.949 83.9192Z" fill="#242530"/>
<path d="M62.5733 105.055C61.9533 105.055 61.4107 104.955 60.9457 104.756C60.4807 104.564 60.1242 104.284 59.8762 103.916C59.6204 103.555 59.4926 103.133 59.4926 102.65V102.397C59.4926 102.359 59.5081 102.328 59.5391 102.305C59.5623 102.274 59.5933 102.259 59.6321 102.259H60.9574C60.9961 102.259 61.031 102.274 61.062 102.305C61.0852 102.328 61.0969 102.359 61.0969 102.397V102.57C61.0969 102.876 61.2402 103.133 61.527 103.341C61.8138 103.555 62.2013 103.663 62.6895 103.663C63.1003 103.663 63.4064 103.578 63.6079 103.41C63.8095 103.233 63.9102 103.018 63.9102 102.765C63.9102 102.581 63.8482 102.428 63.7242 102.305C63.6002 102.175 63.4297 102.063 63.2127 101.971C63.0034 101.872 62.6663 101.737 62.2013 101.569C61.682 101.392 61.2402 101.212 60.876 101.028C60.5195 100.844 60.2211 100.591 59.9808 100.269C59.7328 99.9541 59.6088 99.5629 59.6088 99.0951C59.6088 98.6349 59.7289 98.2322 59.9692 97.887C60.2095 97.5418 60.5427 97.2772 60.969 97.0931C61.3952 96.9091 61.8874 96.817 62.4454 96.817C63.0344 96.817 63.5576 96.9206 64.0148 97.1277C64.4799 97.3348 64.8441 97.6262 65.1076 98.0021C65.3634 98.3702 65.4913 98.7998 65.4913 99.2907V99.4632C65.4913 99.5016 65.4796 99.5323 65.4564 99.5553C65.4254 99.586 65.3905 99.6013 65.3518 99.6013H64.0148C63.9761 99.6013 63.9451 99.586 63.9218 99.5553C63.8908 99.5323 63.8753 99.5016 63.8753 99.4632V99.3712C63.8753 99.049 63.7436 98.7729 63.4801 98.5428C63.2088 98.3204 62.8407 98.2092 62.3757 98.2092C62.0114 98.2092 61.7246 98.2859 61.5154 98.4393C61.3139 98.5927 61.2131 98.8036 61.2131 99.072C61.2131 99.2638 61.2751 99.4249 61.3991 99.5553C61.5154 99.6857 61.6936 99.8007 61.9339 99.9004C62.1664 100.008 62.5307 100.15 63.0267 100.326C63.5769 100.526 64.0071 100.702 64.3171 100.855C64.6349 101.009 64.9216 101.235 65.1774 101.534C65.4254 101.841 65.5494 102.236 65.5494 102.719C65.5494 103.44 65.282 104.008 64.7472 104.422C64.2125 104.844 63.4878 105.055 62.5733 105.055ZM70.06 96.8976C70.5716 96.8976 71.0211 97.0011 71.4086 97.2082C71.7961 97.4153 72.0984 97.7068 72.3154 98.0826C72.5246 98.4661 72.6293 98.9033 72.6293 99.3942C72.6293 99.8774 72.5208 100.303 72.3037 100.671C72.079 101.039 71.7651 101.327 71.3621 101.534C70.9668 101.734 70.5096 101.833 69.9903 101.833H68.3395C68.3007 101.833 68.2814 101.852 68.2814 101.891V104.825C68.2814 104.863 68.2659 104.894 68.2349 104.917C68.2116 104.947 68.1806 104.963 68.1419 104.963H66.7817C66.7429 104.963 66.7081 104.947 66.6771 104.917C66.6538 104.894 66.6422 104.863 66.6422 104.825V97.0356C66.6422 96.9973 66.6538 96.9627 66.6771 96.9321C66.7081 96.9091 66.7429 96.8976 66.7817 96.8976H70.06ZM69.8159 100.533C70.1724 100.533 70.4592 100.43 70.6762 100.223C70.8932 100.023 71.0017 99.7585 71.0017 99.4287C71.0017 99.0912 70.8932 98.8189 70.6762 98.6118C70.4592 98.4048 70.1724 98.3012 69.8159 98.3012H68.3395C68.3007 98.3012 68.2814 98.3204 68.2814 98.3587V100.476C68.2814 100.514 68.3007 100.533 68.3395 100.533H69.8159ZM78.1048 104.963C78.0273 104.963 77.9731 104.928 77.9421 104.859L76.4889 101.672C76.4734 101.642 76.4501 101.626 76.4191 101.626H75.338C75.2992 101.626 75.2799 101.645 75.2799 101.684V104.825C75.2799 104.863 75.2644 104.894 75.2334 104.917C75.2101 104.947 75.1791 104.963 75.1403 104.963H73.7802C73.7414 104.963 73.7065 104.947 73.6755 104.917C73.6523 104.894 73.6407 104.863 73.6407 104.825V97.0471C73.6407 97.0088 73.6523 96.9781 73.6755 96.9551C73.7065 96.9244 73.7414 96.9091 73.7802 96.9091H77.105C77.6011 96.9091 78.0351 97.0088 78.4071 97.2082C78.7868 97.4076 79.0775 97.6914 79.279 98.0596C79.4882 98.4278 79.5929 98.8535 79.5929 99.3367C79.5929 99.8582 79.4611 100.303 79.1976 100.671C78.9341 101.047 78.566 101.312 78.0932 101.465C78.0544 101.48 78.0428 101.507 78.0583 101.546L79.6394 104.802C79.6549 104.832 79.6626 104.855 79.6626 104.871C79.6626 104.932 79.62 104.963 79.5348 104.963H78.1048ZM75.338 98.3012C75.2992 98.3012 75.2799 98.3204 75.2799 98.3587V100.326C75.2799 100.364 75.2992 100.384 75.338 100.384H76.8609C77.1864 100.384 77.4499 100.288 77.6514 100.096C77.8607 99.9043 77.9653 99.655 77.9653 99.3482C77.9653 99.0414 77.8607 98.7883 77.6514 98.5888C77.4499 98.3971 77.1864 98.3012 76.8609 98.3012H75.338ZM80.9182 104.963C80.8794 104.963 80.8484 104.947 80.8252 104.917C80.7942 104.894 80.7787 104.863 80.7787 104.825V97.0471C80.7787 97.0088 80.7942 96.9781 80.8252 96.9551C80.8484 96.9244 80.8794 96.9091 80.9182 96.9091H82.2783C82.3171 96.9091 82.352 96.9244 82.383 96.9551C82.4062 96.9781 82.4179 97.0088 82.4179 97.0471V104.825C82.4179 104.863 82.4062 104.894 82.383 104.917C82.352 104.947 82.3171 104.963 82.2783 104.963H80.9182ZM88.5096 97.0471C88.5096 97.0088 88.5251 96.9781 88.5561 96.9551C88.5793 96.9244 88.6103 96.9091 88.6491 96.9091H90.0092C90.048 96.9091 90.0829 96.9244 90.1139 96.9551C90.1371 96.9781 90.1487 97.0088 90.1487 97.0471V104.825C90.1487 104.863 90.1371 104.894 90.1139 104.917C90.0829 104.947 90.048 104.963 90.0092 104.963H88.6956C88.6181 104.963 88.5638 104.932 88.5328 104.871L85.5218 99.9465C85.5063 99.9234 85.4908 99.9158 85.4753 99.9234C85.4598 99.9234 85.4521 99.9388 85.4521 99.9695L85.4753 104.825C85.4753 104.863 85.4637 104.894 85.4405 104.917C85.4095 104.947 85.3746 104.963 85.3358 104.963H83.9757C83.9369 104.963 83.9059 104.947 83.8826 104.917C83.8516 104.894 83.8361 104.863 83.8361 104.825V97.0471C83.8361 97.0088 83.8516 96.9781 83.8826 96.9551C83.9059 96.9244 83.9369 96.9091 83.9757 96.9091H85.2893C85.3668 96.9091 85.4211 96.9397 85.4521 97.0011L88.4514 101.902C88.4669 101.925 88.4824 101.933 88.4979 101.925C88.5134 101.925 88.5212 101.91 88.5212 101.879L88.5096 97.0471ZM94.4269 105.055C93.8301 105.055 93.3031 104.936 92.8458 104.698C92.3886 104.46 92.0359 104.131 91.7879 103.709C91.5322 103.279 91.4043 102.784 91.4043 102.225V99.6473C91.4043 99.0874 91.5322 98.5927 91.7879 98.1631C92.0359 97.7336 92.3886 97.4 92.8458 97.1622C93.3031 96.9321 93.8301 96.817 94.4269 96.817C95.0159 96.817 95.5391 96.9321 95.9963 97.1622C96.4458 97.3923 96.7985 97.7068 97.0542 98.1056C97.3022 98.4968 97.4262 98.934 97.4262 99.4172V99.4977C97.4262 99.5361 97.4146 99.5668 97.3914 99.5898C97.3604 99.6205 97.3255 99.6358 97.2867 99.6358H95.9266C95.8878 99.6358 95.8568 99.6205 95.8336 99.5898C95.8026 99.5668 95.7871 99.5361 95.7871 99.4977V99.4632C95.7871 99.1104 95.6631 98.8151 95.4151 98.5773C95.167 98.3319 94.8377 98.2092 94.4269 98.2092C94.0084 98.2092 93.6751 98.3357 93.4271 98.5888C93.1713 98.8496 93.0435 99.1871 93.0435 99.6013V102.271C93.0435 102.685 93.1791 103.018 93.4504 103.271C93.7216 103.532 94.0665 103.663 94.485 103.663C94.888 103.663 95.2097 103.555 95.4499 103.341C95.6902 103.133 95.8103 102.842 95.8103 102.466V101.948C95.8103 101.91 95.7909 101.891 95.7522 101.891H94.4501C94.4114 101.891 94.3804 101.876 94.3571 101.845C94.3261 101.822 94.3106 101.791 94.3106 101.753V100.694C94.3106 100.656 94.3261 100.625 94.3571 100.602C94.3804 100.572 94.4114 100.556 94.4501 100.556H97.2867C97.3255 100.556 97.3604 100.572 97.3914 100.602C97.4146 100.625 97.4262 100.656 97.4262 100.694V102.213C97.4262 102.796 97.3022 103.302 97.0542 103.732C96.8062 104.161 96.4575 104.491 96.0079 104.721C95.5507 104.944 95.0237 105.055 94.4269 105.055ZM68.2814 114.317C68.2659 114.332 68.262 114.347 68.2697 114.363C68.2775 114.378 68.293 114.386 68.3162 114.386H71.4667C71.5055 114.386 71.5403 114.397 71.5713 114.42C71.5946 114.451 71.6062 114.485 71.6062 114.524V115.64C71.6062 115.678 71.5946 115.709 71.5713 115.732C71.5403 115.762 71.5055 115.778 71.4667 115.778H66.2353C66.1965 115.778 66.1617 115.762 66.1307 115.732C66.1074 115.709 66.0958 115.678 66.0958 115.64V114.581C66.0958 114.512 66.119 114.455 66.1655 114.409C66.5453 114.04 66.9328 113.642 67.3281 113.212C67.7233 112.775 67.9713 112.503 68.0721 112.395C68.2891 112.142 68.51 111.9 68.7348 111.67C69.44 110.896 69.7927 110.32 69.7927 109.945C69.7927 109.676 69.6958 109.454 69.502 109.277C69.3083 109.108 69.0564 109.024 68.7464 109.024C68.4364 109.024 68.1845 109.108 67.9907 109.277C67.797 109.454 67.7001 109.684 67.7001 109.968V110.255C67.7001 110.294 67.6846 110.328 67.6536 110.359C67.6303 110.382 67.5993 110.393 67.5606 110.393H66.1888C66.15 110.393 66.119 110.382 66.0958 110.359C66.0648 110.328 66.0493 110.294 66.0493 110.255V109.714C66.0725 109.3 66.2043 108.932 66.4445 108.61C66.6848 108.295 67.0026 108.054 67.3978 107.885C67.8008 107.716 68.2504 107.632 68.7464 107.632C69.2966 107.632 69.7772 107.732 70.1879 107.931C70.5909 108.138 70.9048 108.414 71.1296 108.759C71.3466 109.105 71.4551 109.488 71.4551 109.91C71.4551 110.232 71.3737 110.562 71.211 110.899C71.0482 111.237 70.8041 111.601 70.4786 111.992C70.2383 112.292 69.9787 112.587 69.6997 112.878C69.4206 113.17 69.006 113.592 68.4557 114.144L68.2814 114.317ZM75.3845 115.904C74.5319 115.904 73.8577 115.666 73.3617 115.191C72.8656 114.723 72.6176 114.083 72.6176 113.27V110.232C72.6176 109.434 72.8656 108.802 73.3617 108.334C73.8577 107.866 74.5319 107.632 75.3845 107.632C76.237 107.632 76.9152 107.866 77.4189 108.334C77.9149 108.802 78.163 109.434 78.163 110.232V113.27C78.163 114.083 77.9149 114.723 77.4189 115.191C76.9152 115.666 76.237 115.904 75.3845 115.904ZM75.3845 114.512C75.7332 114.512 76.0123 114.405 76.2215 114.19C76.423 113.983 76.5238 113.703 76.5238 113.35V110.186C76.5238 109.833 76.423 109.553 76.2215 109.346C76.0123 109.131 75.7332 109.024 75.3845 109.024C75.0435 109.024 74.7722 109.131 74.5707 109.346C74.3614 109.553 74.2568 109.833 74.2568 110.186V113.35C74.2568 113.703 74.3614 113.983 74.5707 114.19C74.7722 114.405 75.0435 114.512 75.3845 114.512ZM81.4181 114.317C81.4026 114.332 81.3987 114.347 81.4064 114.363C81.4142 114.378 81.4297 114.386 81.4529 114.386H84.6034C84.6422 114.386 84.6771 114.397 84.7081 114.42C84.7313 114.451 84.7429 114.485 84.7429 114.524V115.64C84.7429 115.678 84.7313 115.709 84.7081 115.732C84.6771 115.762 84.6422 115.778 84.6034 115.778H79.372C79.3332 115.778 79.3022 115.762 79.279 115.732C79.248 115.709 79.2325 115.678 79.2325 115.64V114.581C79.2325 114.512 79.2557 114.455 79.3022 114.409C79.682 114.04 80.0695 113.642 80.4648 113.212C80.86 112.775 81.1081 112.503 81.2088 112.395C81.4258 112.142 81.6467 111.9 81.8715 111.67C82.5767 110.896 82.9294 110.32 82.9294 109.945C82.9294 109.676 82.8325 109.454 82.6387 109.277C82.445 109.108 82.1931 109.024 81.8831 109.024C81.5731 109.024 81.3212 109.108 81.1274 109.277C80.9337 109.454 80.8368 109.684 80.8368 109.968V110.255C80.8368 110.294 80.8252 110.328 80.8019 110.359C80.7709 110.382 80.736 110.393 80.6973 110.393H79.3255C79.2867 110.393 79.2557 110.382 79.2325 110.359C79.2015 110.328 79.186 110.294 79.186 110.255V109.714C79.2092 109.3 79.341 108.932 79.5812 108.61C79.8215 108.295 80.1431 108.054 80.5462 107.885C80.9414 107.716 81.3871 107.632 81.8831 107.632C82.4333 107.632 82.9139 107.732 83.3246 107.931C83.7276 108.138 84.0415 108.414 84.2663 108.759C84.4833 109.105 84.5918 109.488 84.5918 109.91C84.5918 110.232 84.5104 110.562 84.3477 110.899C84.1849 111.237 83.9408 111.601 83.6153 111.992C83.375 112.292 83.1154 112.587 82.8364 112.878C82.5574 113.17 82.1427 113.592 81.5924 114.144L81.4181 114.317ZM90.6021 111.935C90.7571 112.288 90.8346 112.694 90.8346 113.155C90.8346 113.569 90.7649 113.952 90.6254 114.305C90.4394 114.796 90.1294 115.179 89.6954 115.456C89.2536 115.732 88.7343 115.87 88.1375 115.87C87.5485 115.87 87.0331 115.724 86.5914 115.433C86.1419 115.141 85.8202 114.746 85.6265 114.248C85.518 113.948 85.456 113.626 85.4405 113.281C85.4405 113.189 85.487 113.143 85.58 113.143H86.9518C87.0448 113.143 87.0913 113.189 87.0913 113.281C87.1223 113.534 87.1649 113.722 87.2191 113.845C87.2889 114.044 87.4051 114.198 87.5679 114.305C87.7229 114.42 87.9089 114.478 88.1259 114.478C88.5599 114.478 88.8583 114.29 89.0211 113.914C89.1296 113.684 89.1838 113.415 89.1838 113.108C89.1838 112.748 89.1257 112.453 89.0095 112.223C88.8312 111.862 88.5328 111.682 88.1143 111.682C88.029 111.682 87.9399 111.705 87.8469 111.751C87.7539 111.805 87.6415 111.877 87.5098 111.969C87.4788 111.992 87.4478 112.004 87.4168 112.004C87.3703 112.004 87.3354 111.981 87.3121 111.935L86.6262 110.98C86.6107 110.957 86.603 110.93 86.603 110.899C86.603 110.853 86.6185 110.815 86.6495 110.784L88.4979 109.185C88.5134 109.17 88.5212 109.155 88.5212 109.139C88.5134 109.124 88.4979 109.116 88.4747 109.116H85.7427C85.704 109.116 85.673 109.101 85.6497 109.07C85.6187 109.047 85.6032 109.016 85.6032 108.978V107.862C85.6032 107.824 85.6187 107.793 85.6497 107.77C85.673 107.739 85.704 107.724 85.7427 107.724H90.5905C90.6293 107.724 90.6641 107.739 90.6951 107.77C90.7184 107.793 90.73 107.824 90.73 107.862V109.128C90.73 109.189 90.7029 109.247 90.6486 109.3L89.1257 110.681C89.1102 110.696 89.1063 110.712 89.1141 110.727C89.1141 110.742 89.1296 110.75 89.1606 110.75C89.8349 110.88 90.3154 111.275 90.6021 111.935Z" fill="#252530"/>
</g>
<defs>
<filter id="filter0_ddd_1734_47793" x="0.500002" y="9.53674e-07" width="156" height="168" filterUnits="userSpaceOnUse" color-interpolation-filters="sRGB">
<feFlood flood-opacity="0" result="BackgroundImageFix"/>
<feColorMatrix in="SourceAlpha" type="matrix" values="0 0 0 0 0 0 0 0 0 0 0 0 0 0 0 0 0 0 127 0" result="hardAlpha"/>
<feOffset dy="4.78807"/>
<feGaussianBlur stdDeviation="2.67334"/>
<feColorMatrix type="matrix" values="0 0 0 0 0.278431 0 0 0 0 0.403922 0 0 0 0 0.533333 0 0 0 0.0403893 0"/>
<feBlend mode="normal" in2="BackgroundImageFix" result="effect1_dropShadow_1734_47793"/>
<feColorMatrix in="SourceAlpha" type="matrix" values="0 0 0 0 0 0 0 0 0 0 0 0 0 0 0 0 0 0 127 0" result="hardAlpha"/>
<feOffset dy="4.8"/>
<feGaussianBlur stdDeviation="6"/>
<feColorMatrix type="matrix" values="0 0 0 0 0.278431 0 0 0 0 0.403922 0 0 0 0 0.533333 0 0 0 0.03 0"/>
<feBlend mode="normal" in2="effect1_dropShadow_1734_47793" result="effect2_dropShadow_1734_47793"/>
<feColorMatrix in="SourceAlpha" type="matrix" values="0 0 0 0 0 0 0 0 0 0 0 0 0 0 0 0 0 0 127 0" result="hardAlpha"/>
<feOffset dy="12"/>
<feGaussianBlur stdDeviation="12"/>
<feColorMatrix type="matrix" values="0 0 0 0 0.278431 0 0 0 0 0.403922 0 0 0 0 0.533333 0 0 0 0.05 0"/>
<feBlend mode="normal" in2="effect2_dropShadow_1734_47793" result="effect3_dropShadow_1734_47793"/>
<feBlend mode="normal" in="SourceGraphic" in2="effect3_dropShadow_1734_47793" result="shape"/>
</filter>
</defs>
</svg>
