<svg width="157" height="168" viewBox="0 0 157 168" fill="none" xmlns="http://www.w3.org/2000/svg">
<g filter="url(#filter0_ddd_1734_47748)">
<path d="M33.4515 105.423L79.3719 128.548L123.548 105.423V14.9912H33.4515V105.423Z" fill="white"/>
<path d="M124.478 15.3365L32.5214 107.034L80.1855 130.389L124.478 107.954V15.3365Z" fill="#F2F3F2"/>
<path d="M30.4287 45.1352V107.379L32.0563 108.184L77.9766 131.31L79.3717 132L80.7667 131.31L125.059 108.184L126.687 107.379V12H30.4287V45.1352ZM33.4513 105.653V14.9914H123.664V105.653L79.3717 128.779L33.4513 105.653Z" fill="#DCDEDC"/>
<path d="M78.5581 16.4871C79.0231 16.4871 79.4882 16.4871 79.9532 16.6021L78.5581 19.2483C76.4656 19.1333 74.6055 20.744 74.4892 22.815C74.373 24.8859 76.0005 26.7268 78.0931 26.8418H78.5581C79.4882 26.8418 80.4182 26.4966 81.1157 25.9214L82.627 28.4525C81.4645 29.2579 80.0694 29.7181 78.5581 29.7181C74.838 29.8332 71.6991 27.0719 71.5829 23.3902C71.4666 19.7085 74.2567 16.6021 77.9769 16.4871H78.5581ZM83.3245 22.1246L85.0683 25.001L83.3245 27.7622L81.697 25.001H78.3256L80.0694 22.1246H83.3245ZM80.5344 21.0892C80.5344 20.629 80.6507 20.1687 80.8832 19.8236C81.1157 19.4784 81.5807 19.1333 81.9295 18.9032L82.162 18.7881C82.627 18.558 82.7433 18.443 82.7433 18.2128C82.7433 17.9827 82.3945 17.7526 82.162 17.7526C81.697 17.7526 81.3482 17.9827 81.1157 18.443L80.5344 17.8677C80.6507 17.6376 80.8832 17.4075 81.1157 17.1774C81.4645 16.9473 81.8132 16.9473 82.162 16.9473C82.5108 16.9473 82.9758 17.0623 83.2083 17.2924C83.4408 17.5225 83.6733 17.8677 83.6733 18.2128C83.6733 18.7881 83.3245 19.2483 82.627 19.4784L82.2783 19.7085C81.9295 19.9386 81.697 20.0537 81.5807 20.3988H83.6733V21.2042L80.5344 21.0892ZM78.5581 35.4708L89.6023 29.2579V12H67.3977V29.1429L78.5581 35.4708ZM128.896 76.1994H28.2201L24.5 84.2531L28.2201 92.3068H128.896L132.5 84.2531L128.896 76.1994Z" fill="#FF492C"/>
<path d="M46.2279 71.022C46.1581 71.022 46.1 70.999 46.0535 70.953C46.007 70.8993 45.9838 70.8379 45.9838 70.7689V56.7785C45.9838 56.7095 46.007 56.6481 46.0535 56.5944C46.1 56.5484 46.1581 56.5254 46.2279 56.5254H48.6809C48.7506 56.5254 48.8087 56.5484 48.8552 56.5944C48.9095 56.6481 48.9366 56.7095 48.9366 56.7785V68.4103C48.9366 68.4794 48.9715 68.5139 49.0412 68.5139H55.877C55.9467 68.5139 56.0087 68.5369 56.063 68.5829C56.1095 68.6366 56.1327 68.698 56.1327 68.767V70.7689C56.1327 70.8379 56.1095 70.8993 56.063 70.953C56.0087 70.999 55.9467 71.022 55.877 71.022H46.2279ZM67.2815 64.6021C67.3668 65.1237 67.3939 65.7104 67.3629 66.3624C67.3551 66.5311 67.266 66.6155 67.0955 66.6155H60.6318C60.5465 66.6155 60.5194 66.65 60.5504 66.7191C60.5891 66.9952 60.6628 67.2713 60.7713 67.5474C61.1355 68.3145 61.8757 68.698 62.9917 68.698C63.883 68.6903 64.5883 68.3336 65.1076 67.628C65.1618 67.5436 65.2238 67.5014 65.2936 67.5014C65.3401 67.5014 65.3904 67.5283 65.4447 67.582L66.9444 69.0546C67.0141 69.1237 67.049 69.185 67.049 69.2387C67.049 69.2694 67.0219 69.3269 66.9676 69.4113C66.5104 69.9712 65.9175 70.4084 65.1889 70.7229C64.4682 71.0297 63.6738 71.1831 62.8057 71.1831C61.6044 71.1831 60.5891 70.9146 59.7599 70.3777C58.9306 69.8408 58.3338 69.0891 57.9696 68.1227C57.675 67.4324 57.5278 66.5273 57.5278 65.4075C57.5278 64.6481 57.6324 63.9808 57.8417 63.4055C58.1672 62.4238 58.7291 61.6414 59.5274 61.0585C60.3334 60.4832 61.2867 60.1956 62.3872 60.1956C63.7823 60.1956 64.9022 60.5944 65.747 61.3921C66.5917 62.1898 67.1032 63.2598 67.2815 64.6021ZM62.4105 62.7152C61.5269 62.7152 60.9457 63.1217 60.6667 63.9348C60.6124 64.1189 60.5659 64.3413 60.5271 64.6021C60.5271 64.6711 60.562 64.7056 60.6318 64.7056H64.2473C64.3325 64.7056 64.3597 64.6711 64.3287 64.6021C64.2589 64.2032 64.224 64.0115 64.224 64.0268C64.1 63.6126 63.883 63.2905 63.573 63.0604C63.2552 62.8303 62.8677 62.7152 62.4105 62.7152ZM73.3732 60.2071C74.28 60.2071 75.0899 60.3643 75.8029 60.6788C76.5159 60.9856 77.0701 61.4113 77.4654 61.9559C77.8606 62.4928 78.0583 63.0911 78.0583 63.7507V70.7689C78.0583 70.8379 78.035 70.8993 77.9885 70.953C77.942 70.999 77.8839 71.022 77.8141 71.022H75.3612C75.2914 71.022 75.2333 70.999 75.1868 70.953C75.1325 70.8993 75.1054 70.8379 75.1054 70.7689V70.0901C75.1054 70.0518 75.0938 70.0249 75.0705 70.0096C75.0395 69.9942 75.0124 70.0057 74.9891 70.0441C74.4001 70.8034 73.4585 71.1831 72.1642 71.1831C71.0714 71.1831 70.1917 70.9223 69.5252 70.4007C68.8509 69.8792 68.5138 69.1045 68.5138 68.0767C68.5138 67.0182 68.8936 66.1937 69.6531 65.6031C70.4049 65.0201 71.4783 64.7286 72.8733 64.7286H75.0008C75.0705 64.7286 75.1054 64.6941 75.1054 64.6251V64.1649C75.1054 63.7124 74.9659 63.3557 74.6869 63.0949C74.4079 62.8418 73.9894 62.7152 73.4313 62.7152C73.0051 62.7152 72.6486 62.7919 72.3618 62.9453C72.075 63.0987 71.889 63.3135 71.8038 63.5896C71.765 63.743 71.6759 63.8121 71.5364 63.7967L69.0021 63.4631C68.8316 63.4324 68.7541 63.371 68.7696 63.279C68.8238 62.6961 69.0563 62.1706 69.4671 61.7028C69.8778 61.2349 70.4242 60.8705 71.1063 60.6098C71.7805 60.3413 72.5362 60.2071 73.3732 60.2071ZM72.9547 69.0086C73.5515 69.0086 74.0591 68.8514 74.4776 68.5369C74.8961 68.2224 75.1054 67.8159 75.1054 67.3173V66.5695C75.1054 66.5005 75.0705 66.4659 75.0008 66.4659H73.5011C72.8733 66.4659 72.3812 66.5848 72.0247 66.8226C71.6682 67.0527 71.4899 67.3825 71.4899 67.8121C71.4899 68.1879 71.6217 68.4794 71.8852 68.6865C72.1487 68.9012 72.5052 69.0086 72.9547 69.0086ZM86.8122 56.7785C86.8122 56.7095 86.8354 56.6481 86.8819 56.5944C86.9284 56.5484 86.9866 56.5254 87.0563 56.5254H89.5093C89.579 56.5254 89.6372 56.5484 89.6837 56.5944C89.7302 56.6481 89.7534 56.7095 89.7534 56.7785V70.7689C89.7534 70.8379 89.7302 70.8993 89.6837 70.953C89.6372 70.999 89.579 71.022 89.5093 71.022H87.0563C86.9866 71.022 86.9284 70.999 86.8819 70.953C86.8354 70.8993 86.8122 70.8379 86.8122 70.7689V70.0901C86.8122 70.0518 86.7967 70.0287 86.7657 70.0211C86.7347 70.0134 86.7076 70.0211 86.6843 70.0441C86.0953 70.8034 85.2931 71.1831 84.2778 71.1831C83.3013 71.1831 82.4604 70.9146 81.7551 70.3777C81.0499 69.8408 80.5422 69.1045 80.2322 68.1687C79.9997 67.4477 79.8834 66.6117 79.8834 65.6606C79.8834 64.6788 80.0074 63.8236 80.2555 63.0949C80.581 62.2052 81.0886 61.5033 81.7784 60.9894C82.4682 60.4679 83.3207 60.2071 84.336 60.2071C85.3435 60.2071 86.1263 60.5522 86.6843 61.2426C86.7076 61.2886 86.7347 61.3039 86.7657 61.2886C86.7967 61.2732 86.8122 61.2464 86.8122 61.208V56.7785ZM86.3704 67.7891C86.6494 67.2828 86.7889 66.5848 86.7889 65.6951C86.7889 64.7747 86.6339 64.0498 86.3239 63.5206C86.0062 62.9837 85.5411 62.7152 84.9289 62.7152C84.2701 62.7152 83.7741 62.9837 83.4408 63.5206C83.0921 64.0652 82.9177 64.7977 82.9177 65.7181C82.9177 66.5465 83.0649 67.2368 83.3594 67.7891C83.7082 68.3873 84.2236 68.6865 84.9056 68.6865C85.5334 68.6865 86.0217 68.3873 86.3704 67.7891ZM101.495 64.6021C101.58 65.1237 101.607 65.7104 101.576 66.3624C101.569 66.5311 101.48 66.6155 101.309 66.6155H94.8453C94.7601 66.6155 94.733 66.65 94.764 66.7191C94.8027 66.9952 94.8763 67.2713 94.9848 67.5474C95.3491 68.3145 96.0892 68.698 97.2053 68.698C98.0966 68.6903 98.8019 68.3336 99.3211 67.628C99.3754 67.5436 99.4374 67.5014 99.5071 67.5014C99.5536 67.5014 99.604 67.5283 99.6583 67.582L101.158 69.0546C101.228 69.1237 101.263 69.185 101.263 69.2387C101.263 69.2694 101.235 69.3269 101.181 69.4113C100.724 69.9712 100.131 70.4084 99.4025 70.7229C98.6817 71.0297 97.8873 71.1831 97.0193 71.1831C95.818 71.1831 94.8027 70.9146 93.9734 70.3777C93.1441 69.8408 92.5474 69.0891 92.1831 68.1227C91.8886 67.4324 91.7414 66.5273 91.7414 65.4075C91.7414 64.6481 91.846 63.9808 92.0552 63.4055C92.3807 62.4238 92.9426 61.6414 93.7409 61.0585C94.547 60.4832 95.5002 60.1956 96.6008 60.1956C97.9958 60.1956 99.1157 60.5944 99.9605 61.3921C100.805 62.1898 101.317 63.2598 101.495 64.6021ZM96.624 62.7152C95.7405 62.7152 95.1592 63.1217 94.8802 63.9348C94.826 64.1189 94.7795 64.3413 94.7407 64.6021C94.7407 64.6711 94.7756 64.7056 94.8453 64.7056H98.4608C98.5461 64.7056 98.5732 64.6711 98.5422 64.6021C98.4725 64.2032 98.4376 64.0115 98.4376 64.0268C98.3136 63.6126 98.0966 63.2905 97.7866 63.0604C97.4688 62.8303 97.0813 62.7152 96.624 62.7152ZM108.761 60.2301C109.265 60.2301 109.66 60.326 109.947 60.5177C110.063 60.5791 110.106 60.6826 110.075 60.8284L109.633 63.1984C109.625 63.3595 109.528 63.4055 109.342 63.3365C109.133 63.2675 108.889 63.233 108.61 63.233C108.501 63.233 108.35 63.2483 108.156 63.279C107.653 63.3173 107.226 63.4976 106.878 63.8197C106.529 64.1496 106.354 64.5829 106.354 65.1198V70.7689C106.354 70.8379 106.331 70.8993 106.285 70.953C106.23 70.999 106.168 71.022 106.099 71.022H103.657C103.588 71.022 103.526 70.999 103.471 70.953C103.425 70.8993 103.402 70.8379 103.402 70.7689V60.6213C103.402 60.5522 103.425 60.4947 103.471 60.4487C103.526 60.4027 103.588 60.3797 103.657 60.3797H106.099C106.168 60.3797 106.23 60.4027 106.285 60.4487C106.331 60.4947 106.354 60.5522 106.354 60.6213V61.4151C106.354 61.4535 106.366 61.4803 106.389 61.4957C106.42 61.511 106.444 61.5033 106.459 61.4727C107.033 60.6443 107.8 60.2301 108.761 60.2301Z" fill="#252530"/>
<path d="M57.4464 81.6987C57.4464 81.7371 57.4347 81.7678 57.4115 81.7908C57.3805 81.8214 57.3456 81.8368 57.3069 81.8368H53.3426C53.3038 81.8368 53.2845 81.856 53.2845 81.8943V84.0458C53.2845 84.0841 53.3038 84.1033 53.3426 84.1033H56.0048C56.0436 84.1033 56.0784 84.1148 56.1094 84.1378C56.1327 84.1685 56.1443 84.203 56.1443 84.2414V85.1158C56.1443 85.1541 56.1327 85.1886 56.1094 85.2193C56.0784 85.2423 56.0436 85.2539 56.0048 85.2539H53.3426C53.3038 85.2539 53.2845 85.273 53.2845 85.3114V87.5319C53.2845 87.5702 53.3038 87.5894 53.3426 87.5894H57.3069C57.3456 87.5894 57.3805 87.6048 57.4115 87.6354C57.4347 87.6585 57.4464 87.6891 57.4464 87.7275V88.6019C57.4464 88.6402 57.4347 88.6709 57.4115 88.6939C57.3805 88.7246 57.3456 88.7399 57.3069 88.7399H52.0754C52.0367 88.7399 52.0057 88.7246 51.9824 88.6939C51.9514 88.6709 51.9359 88.6402 51.9359 88.6019V80.8243C51.9359 80.786 51.9514 80.7553 51.9824 80.7323C52.0057 80.7016 52.0367 80.6863 52.0754 80.6863H57.3069C57.3456 80.6863 57.3805 80.7016 57.4115 80.7323C57.4347 80.7553 57.4464 80.786 57.4464 80.8243V81.6987ZM61.5385 82.7687C62.1663 82.7687 62.67 82.9528 63.0498 83.321C63.4218 83.6891 63.6078 84.1915 63.6078 84.8282V88.6019C63.6078 88.6402 63.5923 88.6709 63.5613 88.6939C63.5381 88.7246 63.5071 88.7399 63.4683 88.7399H62.3988C62.36 88.7399 62.3251 88.7246 62.2941 88.6939C62.2709 88.6709 62.2593 88.6402 62.2593 88.6019V85.1043C62.2593 84.7514 62.1585 84.4638 61.957 84.2414C61.7555 84.0266 61.4881 83.9192 61.1549 83.9192C60.8216 83.9192 60.5503 84.0266 60.3411 84.2414C60.1396 84.4561 60.0388 84.7399 60.0388 85.0928V88.6019C60.0388 88.6402 60.0272 88.6709 60.0039 88.6939C59.9729 88.7246 59.9381 88.7399 59.8993 88.7399H58.8298C58.791 88.7399 58.76 88.7246 58.7368 88.6939C58.7058 88.6709 58.6903 88.6402 58.6903 88.6019V82.9988C58.6903 82.9605 58.7058 82.9259 58.7368 82.8953C58.76 82.8723 58.791 82.8608 58.8298 82.8608H59.8993C59.9381 82.8608 59.9729 82.8723 60.0039 82.8953C60.0272 82.9259 60.0388 82.9605 60.0388 82.9988V83.367C60.0388 83.39 60.0466 83.4053 60.0621 83.413C60.0776 83.4207 60.0892 83.413 60.0969 83.39C60.4147 82.9758 60.8952 82.7687 61.5385 82.7687ZM68.165 83.8042C68.165 83.8425 68.1495 83.8732 68.1185 83.8962C68.0952 83.9269 68.0642 83.9423 68.0255 83.9423H66.8397C66.8009 83.9423 66.7816 83.9614 66.7816 83.9998V86.7725C66.7816 87.064 66.8436 87.2749 66.9676 87.4053C67.0993 87.5357 67.3047 87.6009 67.5837 87.6009H67.9325C67.9712 87.6009 68.0022 87.6124 68.0255 87.6354C68.0565 87.6661 68.072 87.7006 68.072 87.739V88.6019C68.072 88.6863 68.0255 88.7361 67.9325 88.7515L67.328 88.763C66.7157 88.763 66.2584 88.6594 65.9562 88.4523C65.6539 88.2452 65.4989 87.854 65.4911 87.2788V83.9998C65.4911 83.9614 65.4718 83.9423 65.433 83.9423H64.7704C64.7316 83.9423 64.6967 83.9269 64.6657 83.8962C64.6425 83.8732 64.6309 83.8425 64.6309 83.8042V82.9988C64.6309 82.9605 64.6425 82.9259 64.6657 82.8953C64.6967 82.8723 64.7316 82.8608 64.7704 82.8608H65.433C65.4718 82.8608 65.4911 82.8416 65.4911 82.8032V81.4571C65.4911 81.4188 65.5028 81.3842 65.526 81.3536C65.557 81.3306 65.5919 81.319 65.6306 81.319H66.6421C66.6808 81.319 66.7118 81.3306 66.7351 81.3536C66.7661 81.3842 66.7816 81.4188 66.7816 81.4571V82.8032C66.7816 82.8416 66.8009 82.8608 66.8397 82.8608H68.0255C68.0642 82.8608 68.0952 82.8723 68.1185 82.8953C68.1495 82.9259 68.165 82.9605 68.165 82.9988V83.8042ZM74.2567 85.1388C74.2877 85.3305 74.3032 85.5453 74.3032 85.7831L74.2916 86.1398C74.2916 86.2318 74.2451 86.2778 74.1521 86.2778H70.5133C70.4746 86.2778 70.4552 86.297 70.4552 86.3353C70.4784 86.5885 70.5133 86.761 70.5598 86.8531C70.7458 87.4053 71.1992 87.6853 71.92 87.693C72.447 87.693 72.8655 87.4782 73.1755 87.0487C73.2065 87.0026 73.2453 86.9796 73.2918 86.9796C73.3228 86.9796 73.3499 86.9911 73.3732 87.0142L74.0939 87.6009C74.1637 87.6546 74.1753 87.716 74.1288 87.785C73.8886 88.1225 73.5708 88.3833 73.1755 88.5674C72.7725 88.7515 72.3269 88.8435 71.8386 88.8435C71.2341 88.8435 70.7187 88.7093 70.2924 88.4408C69.8739 88.1724 69.5678 87.7965 69.374 87.3133C69.1958 86.8991 69.1066 86.3238 69.1066 85.5875C69.1066 85.1426 69.1531 84.7821 69.2461 84.506C69.4011 83.9691 69.6957 83.5434 70.1297 83.2289C70.5559 82.9221 71.0713 82.7687 71.6758 82.7687C73.2027 82.7687 74.0629 83.5587 74.2567 85.1388ZM71.6758 83.9192C71.3891 83.9192 71.1488 83.9921 70.9551 84.1378C70.7691 84.2759 70.6373 84.4715 70.5598 84.7246C70.5133 84.855 70.4823 85.0237 70.4668 85.2308C70.4513 85.2692 70.4668 85.2884 70.5133 85.2884H72.8733C72.912 85.2884 72.9314 85.2692 72.9314 85.2308C72.9159 85.0391 72.8926 84.8934 72.8616 84.7936C72.7919 84.5175 72.6563 84.3027 72.4548 84.1493C72.2455 83.9959 71.9859 83.9192 71.6758 83.9192ZM78.3023 82.7917C78.5503 82.7917 78.7673 82.8416 78.9534 82.9413C79.0154 82.972 79.0386 83.0295 79.0231 83.1139L78.8255 84.1493C78.8177 84.2414 78.7635 84.2682 78.6627 84.2299C78.5465 84.1915 78.4108 84.1724 78.2558 84.1724C78.1551 84.1724 78.0776 84.1762 78.0233 84.1839C77.6978 84.1992 77.4266 84.3104 77.2095 84.5175C76.9925 84.7323 76.884 85.0084 76.884 85.3459V88.6019C76.884 88.6402 76.8724 88.6709 76.8492 88.6939C76.8182 88.7246 76.7833 88.7399 76.7445 88.7399H75.675C75.6362 88.7399 75.6052 88.7246 75.582 88.6939C75.551 88.6709 75.5355 88.6402 75.5355 88.6019V82.9988C75.5355 82.9605 75.551 82.9259 75.582 82.8953C75.6052 82.8723 75.6362 82.8608 75.675 82.8608H76.7445C76.7833 82.8608 76.8182 82.8723 76.8492 82.8953C76.8724 82.9259 76.884 82.9605 76.884 82.9988V83.5166C76.884 83.5472 76.8879 83.5626 76.8957 83.5626C76.9112 83.5702 76.9267 83.5626 76.9422 83.5396C77.2677 83.041 77.7211 82.7917 78.3023 82.7917ZM84.9404 84.3794C85.0799 84.7706 85.1497 85.25 85.1497 85.8176C85.1497 86.3622 85.0838 86.8301 84.9521 87.2213C84.7816 87.7275 84.5103 88.1225 84.1383 88.4063C83.7585 88.6901 83.2819 88.832 82.7084 88.832C82.1581 88.832 81.7163 88.6364 81.3831 88.2452C81.3676 88.2299 81.3521 88.226 81.3366 88.2337C81.3211 88.2414 81.3133 88.2567 81.3133 88.2797V90.7764C81.3133 90.8147 81.3017 90.8454 81.2784 90.8684C81.2474 90.8991 81.2126 90.9144 81.1738 90.9144H80.1043C80.0655 90.9144 80.0345 90.8991 80.0113 90.8684C79.9803 90.8454 79.9648 90.8147 79.9648 90.7764V82.9988C79.9648 82.9605 79.9803 82.9259 80.0113 82.8953C80.0345 82.8723 80.0655 82.8608 80.1043 82.8608H81.1738C81.2126 82.8608 81.2474 82.8723 81.2784 82.8953C81.3017 82.9259 81.3133 82.9605 81.3133 82.9988V83.344C81.3133 83.367 81.3211 83.3823 81.3366 83.39C81.3521 83.3977 81.3676 83.39 81.3831 83.367C81.7241 82.9681 82.1697 82.7687 82.72 82.7687C83.2703 82.7687 83.7353 82.9106 84.115 83.1944C84.4948 83.4782 84.7699 83.8732 84.9404 84.3794ZM83.4291 87.1982C83.6616 86.8454 83.7779 86.3775 83.7779 85.7946C83.7779 85.2347 83.6849 84.7936 83.4989 84.4715C83.2819 84.0957 82.9525 83.9077 82.5107 83.9077C82.1077 83.9077 81.8055 84.0918 81.6039 84.46C81.4257 84.7591 81.3366 85.204 81.3366 85.7946C81.3366 86.4005 81.4334 86.8608 81.6272 87.1752C81.8287 87.5127 82.1193 87.6815 82.4991 87.6815C82.9099 87.6815 83.2199 87.5204 83.4291 87.1982ZM89.2186 82.7917C89.4666 82.7917 89.6836 82.8416 89.8696 82.9413C89.9316 82.972 89.9549 83.0295 89.9394 83.1139L89.7417 84.1493C89.734 84.2414 89.6797 84.2682 89.579 84.2299C89.4627 84.1915 89.3271 84.1724 89.1721 84.1724C89.0713 84.1724 88.9938 84.1762 88.9396 84.1839C88.6141 84.1992 88.3428 84.3104 88.1258 84.5175C87.9088 84.7323 87.8003 85.0084 87.8003 85.3459V88.6019C87.8003 88.6402 87.7887 88.6709 87.7654 88.6939C87.7344 88.7246 87.6995 88.7399 87.6608 88.7399H86.5912C86.5525 88.7399 86.5215 88.7246 86.4982 88.6939C86.4672 88.6709 86.4517 88.6402 86.4517 88.6019V82.9988C86.4517 82.9605 86.4672 82.9259 86.4982 82.8953C86.5215 82.8723 86.5525 82.8608 86.5912 82.8608H87.6608C87.6995 82.8608 87.7344 82.8723 87.7654 82.8953C87.7887 82.9259 87.8003 82.9605 87.8003 82.9988V83.5166C87.8003 83.5472 87.8042 83.5626 87.8119 83.5626C87.8274 83.5702 87.8429 83.5626 87.8584 83.5396C88.1839 83.041 88.6373 82.7917 89.2186 82.7917ZM91.5902 82.0554C91.3499 82.0554 91.1523 81.9787 90.9973 81.8253C90.8423 81.6719 90.7648 81.4763 90.7648 81.2385C90.7648 81.0007 90.8423 80.8051 90.9973 80.6517C91.1523 80.4983 91.3499 80.4216 91.5902 80.4216C91.8304 80.4216 92.0281 80.4983 92.1831 80.6517C92.3381 80.8051 92.4156 81.0007 92.4156 81.2385C92.4156 81.4763 92.3381 81.6719 92.1831 81.8253C92.0281 81.9787 91.8304 82.0554 91.5902 82.0554ZM91.0321 88.7399C90.9934 88.7399 90.9624 88.7246 90.9391 88.6939C90.9081 88.6709 90.8926 88.6402 90.8926 88.6019V82.9873C90.8926 82.949 90.9081 82.9183 90.9391 82.8953C90.9624 82.8646 90.9934 82.8492 91.0321 82.8492H92.1017C92.1404 82.8492 92.1753 82.8646 92.2063 82.8953C92.2296 82.9183 92.2412 82.949 92.2412 82.9873V88.6019C92.2412 88.6402 92.2296 88.6709 92.2063 88.6939C92.1753 88.7246 92.1404 88.7399 92.1017 88.7399H91.0321ZM95.9962 88.809C95.5079 88.809 95.0778 88.7361 94.7058 88.5904C94.3415 88.4523 94.0586 88.2567 93.8571 88.0036C93.6556 87.7582 93.5549 87.482 93.5549 87.1752V87.0717C93.5549 87.0333 93.5665 86.9988 93.5897 86.9681C93.6207 86.9451 93.6556 86.9336 93.6944 86.9336H94.7174C94.7562 86.9336 94.791 86.9451 94.822 86.9681C94.8453 86.9988 94.8569 87.0333 94.8569 87.0717V87.0947C94.8569 87.2864 94.9615 87.4552 95.1708 87.6009C95.3878 87.739 95.6591 87.808 95.9846 87.808C96.2946 87.808 96.5465 87.7467 96.7402 87.6239C96.934 87.4935 97.0309 87.3325 97.0309 87.1407C97.0309 86.9643 96.9495 86.8301 96.7867 86.738C96.6317 86.6537 96.376 86.5616 96.0194 86.4619L95.5777 86.3238C95.1824 86.2088 94.8492 86.0861 94.5779 85.9557C94.3066 85.8253 94.078 85.645 93.892 85.4149C93.706 85.1925 93.613 84.9049 93.613 84.552C93.613 84.0151 93.8261 83.5894 94.2524 83.2749C94.6787 82.9528 95.2405 82.7917 95.9381 82.7917C96.4108 82.7917 96.8255 82.8646 97.182 83.0103C97.5385 83.1637 97.8136 83.3708 98.0074 83.6316C98.2011 83.9001 98.298 84.203 98.298 84.5405C98.298 84.5789 98.2864 84.6134 98.2631 84.6441C98.2321 84.6671 98.1973 84.6786 98.1585 84.6786H97.1704C97.1316 84.6786 97.0967 84.6671 97.0657 84.6441C97.0425 84.6134 97.0309 84.5789 97.0309 84.5405C97.0309 84.3411 96.934 84.1762 96.7402 84.0458C96.5387 83.9077 96.2675 83.8387 95.9264 83.8387C95.6242 83.8387 95.38 83.8924 95.194 83.9998C95.0003 84.1148 94.9034 84.2721 94.9034 84.4715C94.9034 84.6556 94.9925 84.7936 95.1708 84.8857C95.3568 84.9854 95.6629 85.0928 96.0892 85.2078L96.345 85.2769C96.7557 85.3996 97.1006 85.5223 97.3796 85.645C97.6586 85.7754 97.895 85.9518 98.0888 86.1743C98.2825 86.4044 98.3794 86.6997 98.3794 87.0602C98.3794 87.6048 98.1624 88.0305 97.7284 88.3373C97.2944 88.6517 96.717 88.809 95.9962 88.809ZM104.529 85.1388C104.56 85.3305 104.576 85.5453 104.576 85.7831L104.564 86.1398C104.564 86.2318 104.518 86.2778 104.425 86.2778H100.786C100.747 86.2778 100.728 86.297 100.728 86.3353C100.751 86.5885 100.786 86.761 100.832 86.8531C101.018 87.4053 101.472 87.6853 102.193 87.693C102.72 87.693 103.138 87.4782 103.448 87.0487C103.479 87.0026 103.518 86.9796 103.564 86.9796C103.595 86.9796 103.622 86.9911 103.646 87.0142L104.366 87.6009C104.436 87.6546 104.448 87.716 104.401 87.785C104.161 88.1225 103.839 88.3833 103.436 88.5674C103.041 88.7515 102.599 88.8435 102.111 88.8435C101.507 88.8435 100.991 88.7093 100.565 88.4408C100.146 88.1724 99.8403 87.7965 99.6466 87.3133C99.4683 86.8991 99.3792 86.3238 99.3792 85.5875C99.3792 85.1426 99.4257 84.7821 99.5187 84.506C99.6737 83.9691 99.9643 83.5434 100.391 83.2289C100.825 82.9221 101.344 82.7687 101.948 82.7687C103.475 82.7687 104.335 83.5587 104.529 85.1388ZM101.948 83.9192C101.662 83.9192 101.421 83.9921 101.228 84.1378C101.042 84.2759 100.91 84.4715 100.832 84.7246C100.786 84.855 100.755 85.0237 100.739 85.2308C100.724 85.2692 100.739 85.2884 100.786 85.2884H103.146C103.185 85.2884 103.204 85.2692 103.204 85.2308C103.188 85.0391 103.165 84.8934 103.134 84.7936C103.064 84.5175 102.925 84.3027 102.716 84.1493C102.514 83.9959 102.258 83.9192 101.948 83.9192Z" fill="white"/>
<path d="M59.5738 105.055C58.9538 105.055 58.4112 104.955 57.9462 104.756C57.4812 104.564 57.1247 104.284 56.8767 103.916C56.6209 103.555 56.493 103.133 56.493 102.65V102.397C56.493 102.359 56.5085 102.328 56.5395 102.305C56.5628 102.274 56.5938 102.259 56.6325 102.259H57.9578C57.9966 102.259 58.0315 102.274 58.0625 102.305C58.0857 102.328 58.0973 102.359 58.0973 102.397V102.57C58.0973 102.876 58.2407 103.133 58.5275 103.341C58.8142 103.555 59.2018 103.663 59.69 103.663C60.1008 103.663 60.4069 103.578 60.6084 103.41C60.8099 103.233 60.9107 103.018 60.9107 102.765C60.9107 102.581 60.8487 102.428 60.7247 102.305C60.6007 102.175 60.4302 102.063 60.2132 101.971C60.0039 101.872 59.6668 101.737 59.2018 101.569C58.6825 101.392 58.2407 101.212 57.8765 101.028C57.52 100.844 57.2216 100.591 56.9813 100.269C56.7333 99.9541 56.6093 99.5629 56.6093 99.0951C56.6093 98.6349 56.7294 98.2322 56.9697 97.887C57.2099 97.5418 57.5432 97.2772 57.9695 97.0931C58.3957 96.9091 58.8879 96.817 59.4459 96.817C60.0349 96.817 60.5581 96.9206 61.0153 97.1277C61.4803 97.3348 61.8446 97.6262 62.1081 98.0021C62.3639 98.3702 62.4918 98.7998 62.4918 99.2907V99.4632C62.4918 99.5016 62.4801 99.5323 62.4569 99.5553C62.4259 99.586 62.391 99.6013 62.3522 99.6013H61.0153C60.9766 99.6013 60.9456 99.586 60.9223 99.5553C60.8913 99.5323 60.8758 99.5016 60.8758 99.4632V99.3712C60.8758 99.049 60.7441 98.7729 60.4806 98.5428C60.2093 98.3204 59.8412 98.2092 59.3761 98.2092C59.0119 98.2092 58.7251 98.2859 58.5159 98.4393C58.3144 98.5927 58.2136 98.8036 58.2136 99.072C58.2136 99.2638 58.2756 99.4249 58.3996 99.5553C58.5159 99.6857 58.6941 99.8007 58.9344 99.9004C59.1669 100.008 59.5311 100.15 60.0272 100.326C60.5774 100.526 61.0076 100.702 61.3176 100.855C61.6353 101.009 61.9221 101.235 62.1779 101.534C62.4259 101.841 62.5499 102.236 62.5499 102.719C62.5499 103.44 62.2825 104.008 61.7477 104.422C61.213 104.844 60.4883 105.055 59.5738 105.055ZM66.6536 105.055C66.0569 105.055 65.5337 104.94 65.0842 104.71C64.627 104.48 64.2704 104.157 64.0147 103.743C63.7667 103.321 63.6427 102.838 63.6427 102.294V97.0471C63.6427 97.0088 63.6543 96.9781 63.6775 96.9551C63.7085 96.9244 63.7434 96.9091 63.7822 96.9091H65.1423C65.1811 96.9091 65.2121 96.9244 65.2353 96.9551C65.2663 96.9781 65.2818 97.0088 65.2818 97.0471V102.305C65.2818 102.712 65.4097 103.038 65.6655 103.283C65.9135 103.536 66.2429 103.663 66.6536 103.663C67.0644 103.663 67.3977 103.536 67.6534 103.283C67.9014 103.038 68.0254 102.712 68.0254 102.305V97.0471C68.0254 97.0088 68.0409 96.9781 68.0719 96.9551C68.0952 96.9244 68.1262 96.9091 68.1649 96.9091H69.5251C69.5639 96.9091 69.5987 96.9244 69.6297 96.9551C69.653 96.9781 69.6646 97.0088 69.6646 97.0471V102.294C69.6646 102.838 69.5406 103.321 69.2926 103.743C69.0369 104.157 68.6842 104.48 68.2347 104.71C67.7774 104.94 67.2504 105.055 66.6536 105.055ZM76.2446 97.0011C76.2834 96.9397 76.3376 96.9091 76.4074 96.9091H77.7675C77.8063 96.9091 77.8412 96.9244 77.8722 96.9551C77.8954 96.9781 77.907 97.0088 77.907 97.0471V104.825C77.907 104.863 77.8954 104.894 77.8722 104.917C77.8412 104.947 77.8063 104.963 77.7675 104.963H76.4074C76.3686 104.963 76.3376 104.947 76.3144 104.917C76.2834 104.894 76.2679 104.863 76.2679 104.825V99.7509C76.2679 99.7202 76.2601 99.7048 76.2446 99.7048C76.2291 99.7048 76.2136 99.7163 76.1981 99.7394L74.9658 101.649C74.9271 101.711 74.8728 101.741 74.803 101.741H74.1172C74.0474 101.741 73.9931 101.711 73.9544 101.649L72.7221 99.7394C72.7066 99.7163 72.6911 99.7048 72.6756 99.7048C72.6601 99.7125 72.6524 99.7317 72.6524 99.7624V104.825C72.6524 104.863 72.6369 104.894 72.6058 104.917C72.5826 104.947 72.5516 104.963 72.5128 104.963H71.1527C71.1139 104.963 71.079 104.947 71.048 104.917C71.0248 104.894 71.0132 104.863 71.0132 104.825V97.0471C71.0132 97.0088 71.0248 96.9781 71.048 96.9551C71.079 96.9244 71.1139 96.9091 71.1527 96.9091H72.5128C72.5826 96.9091 72.6369 96.9397 72.6756 97.0011L74.4194 99.6818C74.4427 99.7279 74.4659 99.7279 74.4892 99.6818L76.2446 97.0011ZM84.5568 97.0011C84.5955 96.9397 84.6498 96.9091 84.7195 96.9091H86.0797C86.1184 96.9091 86.1494 96.9244 86.1727 96.9551C86.2037 96.9781 86.2192 97.0088 86.2192 97.0471V104.825C86.2192 104.863 86.2037 104.894 86.1727 104.917C86.1494 104.947 86.1184 104.963 86.0797 104.963H84.7195C84.6808 104.963 84.6459 104.947 84.6149 104.917C84.5916 104.894 84.58 104.863 84.58 104.825V99.7509C84.58 99.7202 84.5723 99.7048 84.5568 99.7048C84.5413 99.7048 84.5258 99.7163 84.5103 99.7394L83.278 101.649C83.2392 101.711 83.185 101.741 83.1152 101.741H82.4293C82.3596 101.741 82.3053 101.711 82.2666 101.649L81.0343 99.7394C81.0188 99.7163 81.0033 99.7048 80.9878 99.7048C80.9723 99.7125 80.9645 99.7317 80.9645 99.7624V104.825C80.9645 104.863 80.9529 104.894 80.9296 104.917C80.8986 104.947 80.8638 104.963 80.825 104.963H79.4648C79.4261 104.963 79.3951 104.947 79.3718 104.917C79.3408 104.894 79.3253 104.863 79.3253 104.825V97.0471C79.3253 97.0088 79.3408 96.9781 79.3718 96.9551C79.3951 96.9244 79.4261 96.9091 79.4648 96.9091H80.825C80.8948 96.9091 80.949 96.9397 80.9878 97.0011L82.7316 99.6818C82.7548 99.7279 82.7781 99.7279 82.8013 99.6818L84.5568 97.0011ZM93.2874 98.1631C93.2874 98.2015 93.2758 98.2322 93.2526 98.2552C93.2216 98.2859 93.1867 98.3012 93.1479 98.3012H89.3348C89.2961 98.3012 89.2767 98.3204 89.2767 98.3587V100.142C89.2767 100.18 89.2961 100.2 89.3348 100.2H91.8343C91.873 100.2 91.904 100.211 91.9273 100.234C91.9583 100.265 91.9738 100.299 91.9738 100.338V101.454C91.9738 101.492 91.9583 101.527 91.9273 101.557C91.904 101.58 91.873 101.592 91.8343 101.592H89.3348C89.2961 101.592 89.2767 101.611 89.2767 101.649V103.513C89.2767 103.551 89.2961 103.571 89.3348 103.571H93.1479C93.1867 103.571 93.2216 103.582 93.2526 103.605C93.2758 103.636 93.2874 103.67 93.2874 103.709V104.825C93.2874 104.863 93.2758 104.894 93.2526 104.917C93.2216 104.947 93.1867 104.963 93.1479 104.963H87.777C87.7383 104.963 87.7034 104.947 87.6724 104.917C87.6491 104.894 87.6375 104.863 87.6375 104.825V97.0471C87.6375 97.0088 87.6491 96.9781 87.6724 96.9551C87.7034 96.9244 87.7383 96.9091 87.777 96.9091H93.1479C93.1867 96.9091 93.2216 96.9244 93.2526 96.9551C93.2758 96.9781 93.2874 97.0088 93.2874 97.0471V98.1631ZM98.8909 104.963C98.8134 104.963 98.7591 104.928 98.7281 104.859L97.275 101.672C97.2595 101.642 97.2362 101.626 97.2052 101.626H96.124C96.0853 101.626 96.0659 101.645 96.0659 101.684V104.825C96.0659 104.863 96.0504 104.894 96.0194 104.917C95.9962 104.947 95.9652 104.963 95.9264 104.963H94.5662C94.5275 104.963 94.4926 104.947 94.4616 104.917C94.4384 104.894 94.4267 104.863 94.4267 104.825V97.0471C94.4267 97.0088 94.4384 96.9781 94.4616 96.9551C94.4926 96.9244 94.5275 96.9091 94.5662 96.9091H97.8911C98.3871 96.9091 98.8211 97.0088 99.1932 97.2082C99.5729 97.4076 99.8635 97.6914 100.065 98.0596C100.274 98.4278 100.379 98.8535 100.379 99.3367C100.379 99.8582 100.247 100.303 99.9837 100.671C99.7202 101.047 99.352 101.312 98.8793 101.465C98.8405 101.48 98.8289 101.507 98.8444 101.546L100.425 104.802C100.441 104.832 100.449 104.855 100.449 104.871C100.449 104.932 100.406 104.963 100.321 104.963H98.8909ZM96.124 98.3012C96.0853 98.3012 96.0659 98.3204 96.0659 98.3587V100.326C96.0659 100.364 96.0853 100.384 96.124 100.384H97.647C97.9725 100.384 98.236 100.288 98.4375 100.096C98.6468 99.9043 98.7514 99.655 98.7514 99.3482C98.7514 99.0414 98.6468 98.7883 98.4375 98.5888C98.236 98.3971 97.9725 98.3012 97.647 98.3012H96.124ZM68.2812 114.317C68.2657 114.332 68.2618 114.347 68.2696 114.363C68.2773 114.378 68.2928 114.386 68.3161 114.386H71.4666C71.5053 114.386 71.5402 114.397 71.5712 114.42C71.5944 114.451 71.6061 114.485 71.6061 114.524V115.64C71.6061 115.678 71.5944 115.709 71.5712 115.732C71.5402 115.762 71.5053 115.778 71.4666 115.778H66.2351C66.1964 115.778 66.1615 115.762 66.1305 115.732C66.1072 115.709 66.0956 115.678 66.0956 115.64V114.581C66.0956 114.512 66.1189 114.455 66.1654 114.409C66.5451 114.04 66.9327 113.642 67.3279 113.212C67.7232 112.775 67.9712 112.503 68.0719 112.395C68.289 112.142 68.5098 111.9 68.7346 111.67C69.4399 110.896 69.7925 110.32 69.7925 109.945C69.7925 109.676 69.6956 109.454 69.5019 109.277C69.3081 109.108 69.0562 109.024 68.7462 109.024C68.4362 109.024 68.1843 109.108 67.9906 109.277C67.7968 109.454 67.6999 109.684 67.6999 109.968V110.255C67.6999 110.294 67.6844 110.328 67.6534 110.359C67.6302 110.382 67.5992 110.393 67.5604 110.393H66.1886C66.1499 110.393 66.1189 110.382 66.0956 110.359C66.0646 110.328 66.0491 110.294 66.0491 110.255V109.714C66.0724 109.3 66.2041 108.932 66.4444 108.61C66.6846 108.295 67.0024 108.054 67.3977 107.885C67.8007 107.716 68.2502 107.632 68.7462 107.632C69.2965 107.632 69.777 107.732 70.1878 107.931C70.5908 108.138 70.9047 108.414 71.1294 108.759C71.3464 109.105 71.4549 109.488 71.4549 109.91C71.4549 110.232 71.3736 110.562 71.2108 110.899C71.048 111.237 70.8039 111.601 70.4784 111.992C70.2381 112.292 69.9785 112.587 69.6995 112.878C69.4205 113.17 69.0058 113.592 68.4556 114.144L68.2812 114.317ZM75.3843 115.904C74.5318 115.904 73.8575 115.666 73.3615 115.191C72.8655 114.723 72.6175 114.083 72.6175 113.27V110.232C72.6175 109.434 72.8655 108.802 73.3615 108.334C73.8575 107.866 74.5318 107.632 75.3843 107.632C76.2368 107.632 76.915 107.866 77.4188 108.334C77.9148 108.802 78.1628 109.434 78.1628 110.232V113.27C78.1628 114.083 77.9148 114.723 77.4188 115.191C76.915 115.666 76.2368 115.904 75.3843 115.904ZM75.3843 114.512C75.7331 114.512 76.0121 114.405 76.2214 114.19C76.4229 113.983 76.5236 113.703 76.5236 113.35V110.186C76.5236 109.833 76.4229 109.553 76.2214 109.346C76.0121 109.131 75.7331 109.024 75.3843 109.024C75.0433 109.024 74.7721 109.131 74.5705 109.346C74.3613 109.553 74.2567 109.833 74.2567 110.186V113.35C74.2567 113.703 74.3613 113.983 74.5705 114.19C74.7721 114.405 75.0433 114.512 75.3843 114.512ZM81.4179 114.317C81.4024 114.332 81.3985 114.347 81.4063 114.363C81.414 114.378 81.4295 114.386 81.4528 114.386H84.6033C84.642 114.386 84.6769 114.397 84.7079 114.42C84.7311 114.451 84.7428 114.485 84.7428 114.524V115.64C84.7428 115.678 84.7311 115.709 84.7079 115.732C84.6769 115.762 84.642 115.778 84.6033 115.778H79.3718C79.3331 115.778 79.3021 115.762 79.2788 115.732C79.2478 115.709 79.2323 115.678 79.2323 115.64V114.581C79.2323 114.512 79.2556 114.455 79.3021 114.409C79.6818 114.04 80.0694 113.642 80.4646 113.212C80.8599 112.775 81.1079 112.503 81.2086 112.395C81.4257 112.142 81.6465 111.9 81.8713 111.67C82.5766 110.896 82.9292 110.32 82.9292 109.945C82.9292 109.676 82.8323 109.454 82.6386 109.277C82.4448 109.108 82.1929 109.024 81.8829 109.024C81.5729 109.024 81.321 109.108 81.1273 109.277C80.9335 109.454 80.8366 109.684 80.8366 109.968V110.255C80.8366 110.294 80.825 110.328 80.8018 110.359C80.7708 110.382 80.7359 110.393 80.6971 110.393H79.3253C79.2866 110.393 79.2556 110.382 79.2323 110.359C79.2013 110.328 79.1858 110.294 79.1858 110.255V109.714C79.2091 109.3 79.3408 108.932 79.5811 108.61C79.8213 108.295 80.143 108.054 80.546 107.885C80.9413 107.716 81.3869 107.632 81.8829 107.632C82.4332 107.632 82.9137 107.732 83.3245 107.931C83.7275 108.138 84.0414 108.414 84.2661 108.759C84.4831 109.105 84.5916 109.488 84.5916 109.91C84.5916 110.232 84.5103 110.562 84.3475 110.899C84.1848 111.237 83.9406 111.601 83.6151 111.992C83.3748 112.292 83.1152 112.587 82.8362 112.878C82.5572 113.17 82.1426 113.592 81.5923 114.144L81.4179 114.317ZM90.602 111.935C90.757 112.288 90.8345 112.694 90.8345 113.155C90.8345 113.569 90.7647 113.952 90.6252 114.305C90.4392 114.796 90.1292 115.179 89.6952 115.456C89.2534 115.732 88.7342 115.87 88.1374 115.87C87.5484 115.87 87.033 115.724 86.5912 115.433C86.1417 115.141 85.8201 114.746 85.6263 114.248C85.5178 113.948 85.4558 113.626 85.4403 113.281C85.4403 113.189 85.4868 113.143 85.5798 113.143H86.9516C87.0446 113.143 87.0911 113.189 87.0911 113.281C87.1221 113.534 87.1647 113.722 87.219 113.845C87.2887 114.044 87.405 114.198 87.5677 114.305C87.7228 114.42 87.9088 114.478 88.1258 114.478C88.5598 114.478 88.8582 114.29 89.0209 113.914C89.1294 113.684 89.1837 113.415 89.1837 113.108C89.1837 112.748 89.1255 112.453 89.0093 112.223C88.831 111.862 88.5327 111.682 88.1141 111.682C88.0289 111.682 87.9398 111.705 87.8468 111.751C87.7538 111.805 87.6414 111.877 87.5096 111.969C87.4786 111.992 87.4476 112.004 87.4166 112.004C87.3701 112.004 87.3352 111.981 87.312 111.935L86.6261 110.98C86.6106 110.957 86.6028 110.93 86.6028 110.899C86.6028 110.853 86.6183 110.815 86.6493 110.784L88.4978 109.185C88.5133 109.17 88.521 109.155 88.521 109.139C88.5133 109.124 88.4978 109.116 88.4745 109.116H85.7426C85.7038 109.116 85.6728 109.101 85.6496 109.07C85.6186 109.047 85.6031 109.016 85.6031 108.978V107.862C85.6031 107.824 85.6186 107.793 85.6496 107.77C85.6728 107.739 85.7038 107.724 85.7426 107.724H90.5903C90.6291 107.724 90.664 107.739 90.695 107.77C90.7182 107.793 90.7299 107.824 90.7299 107.862V109.128C90.7299 109.189 90.7027 109.247 90.6485 109.3L89.1256 110.681C89.1101 110.696 89.1062 110.712 89.1139 110.727C89.1139 110.742 89.1294 110.75 89.1604 110.75C89.8347 110.88 90.3152 111.275 90.602 111.935Z" fill="#252530"/>
</g>
<defs>
<filter id="filter0_ddd_1734_47748" x="0.500002" y="9.53674e-07" width="156" height="168" filterUnits="userSpaceOnUse" color-interpolation-filters="sRGB">
<feFlood flood-opacity="0" result="BackgroundImageFix"/>
<feColorMatrix in="SourceAlpha" type="matrix" values="0 0 0 0 0 0 0 0 0 0 0 0 0 0 0 0 0 0 127 0" result="hardAlpha"/>
<feOffset dy="4.78807"/>
<feGaussianBlur stdDeviation="2.67334"/>
<feColorMatrix type="matrix" values="0 0 0 0 0.278431 0 0 0 0 0.403922 0 0 0 0 0.533333 0 0 0 0.0403893 0"/>
<feBlend mode="normal" in2="BackgroundImageFix" result="effect1_dropShadow_1734_47748"/>
<feColorMatrix in="SourceAlpha" type="matrix" values="0 0 0 0 0 0 0 0 0 0 0 0 0 0 0 0 0 0 127 0" result="hardAlpha"/>
<feOffset dy="4.8"/>
<feGaussianBlur stdDeviation="6"/>
<feColorMatrix type="matrix" values="0 0 0 0 0.278431 0 0 0 0 0.403922 0 0 0 0 0.533333 0 0 0 0.03 0"/>
<feBlend mode="normal" in2="effect1_dropShadow_1734_47748" result="effect2_dropShadow_1734_47748"/>
<feColorMatrix in="SourceAlpha" type="matrix" values="0 0 0 0 0 0 0 0 0 0 0 0 0 0 0 0 0 0 127 0" result="hardAlpha"/>
<feOffset dy="12"/>
<feGaussianBlur stdDeviation="12"/>
<feColorMatrix type="matrix" values="0 0 0 0 0.278431 0 0 0 0 0.403922 0 0 0 0 0.533333 0 0 0 0.05 0"/>
<feBlend mode="normal" in2="effect2_dropShadow_1734_47748" result="effect3_dropShadow_1734_47748"/>
<feBlend mode="normal" in="SourceGraphic" in2="effect3_dropShadow_1734_47748" result="shape"/>
</filter>
</defs>
</svg>
