<svg width="157" height="168" viewBox="0 0 157 168" fill="none" xmlns="http://www.w3.org/2000/svg">
<g filter="url(#filter0_ddd_1734_47765)">
<path d="M33.2518 105.423L79.1722 128.549L123.349 105.423V14.9915H33.2518V105.423Z" fill="white"/>
<path d="M124.279 15.3368L32.3218 107.034L79.9859 130.39L124.279 107.954V15.3368Z" fill="#F2F3F2"/>
<path d="M30.2291 45.1352V107.379L31.8567 108.184L77.777 131.31L79.1721 132L80.5671 131.31L124.86 108.184L126.487 107.379V12H30.2291V45.1352ZM33.2517 105.653V14.9914H123.465V105.653L79.1721 128.779L33.2517 105.653Z" fill="#DCDEDC"/>
<path d="M78.3582 16.4871C78.8232 16.4871 79.2882 16.4871 79.7532 16.6021L78.3582 19.2483C76.2656 19.1333 74.4055 20.744 74.2893 22.815C74.173 24.8859 75.8006 26.7268 77.8932 26.8418H78.3582C79.2882 26.8418 80.2182 26.4966 80.9158 25.9214L82.4271 28.4525C81.2645 29.2579 79.8695 29.7181 78.3582 29.7181C74.638 29.8332 71.4992 27.0719 71.3829 23.3902C71.2667 19.7085 74.0568 16.6021 77.7769 16.4871H78.3582ZM83.1246 22.1246L84.8684 25.001L83.1246 27.7622L81.497 25.001H78.1257L79.8695 22.1246H83.1246ZM80.3345 21.0892C80.3345 20.629 80.4507 20.1687 80.6833 19.8236C80.9158 19.4784 81.3808 19.1333 81.7295 18.9032L81.962 18.7881C82.4271 18.558 82.5433 18.443 82.5433 18.2128C82.5433 17.9827 82.1946 17.7526 81.962 17.7526C81.497 17.7526 81.1483 17.9827 80.9158 18.443L80.3345 17.8677C80.4507 17.6376 80.6833 17.4075 80.9158 17.1774C81.2645 16.9473 81.6133 16.9473 81.962 16.9473C82.3108 16.9473 82.7758 17.0623 83.0083 17.2924C83.2408 17.5225 83.4733 17.8677 83.4733 18.2128C83.4733 18.7881 83.1246 19.2483 82.4271 19.4784L82.0783 19.7085C81.7295 19.9386 81.497 20.0537 81.3808 20.3988H83.4733V21.2042L80.3345 21.0892ZM78.3582 35.4708L89.4023 29.2579V12H67.1978V29.1429L78.3582 35.4708ZM128.696 76.1994H28.0202L24.3 84.2531L28.0202 92.3068H128.696L132.3 84.2531L128.696 76.1994Z" fill="#FF492C"/>
<path d="M53.2475 71.022C53.1932 71.022 53.1467 71.0028 53.1079 70.9644C53.0692 70.9261 53.0498 70.8801 53.0498 70.8264V59.9424C53.0498 59.8887 53.0692 59.8427 53.1079 59.8043C53.1467 59.766 53.1932 59.7468 53.2475 59.7468H55.154C55.2083 59.7468 55.2548 59.766 55.2935 59.8043C55.3323 59.8427 55.3517 59.8887 55.3517 59.9424V68.997C55.3517 69.0507 55.3788 69.0776 55.433 69.0776H60.7575C60.8117 69.0776 60.8543 69.0929 60.8853 69.1236C60.9241 69.1619 60.9435 69.208 60.9435 69.2616V70.8264C60.9435 70.8801 60.9241 70.9261 60.8853 70.9644C60.8543 71.0028 60.8117 71.022 60.7575 71.022H53.2475ZM69.6276 66.0287C69.6896 66.4352 69.709 66.8916 69.6858 67.3978C69.678 67.5282 69.6083 67.5934 69.4765 67.5934H64.4427C64.3807 67.5934 64.3613 67.6202 64.3846 67.6739C64.4156 67.8887 64.4737 68.1034 64.559 68.3182C64.8457 68.9165 65.4231 69.2156 66.2912 69.2156C66.9809 69.208 67.5273 68.928 67.9303 68.3757C67.9768 68.3144 68.0272 68.2837 68.0815 68.2837C68.1125 68.2837 68.1473 68.3067 68.1861 68.3527L69.3603 69.4917C69.4145 69.5454 69.4416 69.5953 69.4416 69.6413C69.4416 69.6567 69.4223 69.6988 69.3835 69.7679C69.0192 70.2051 68.5581 70.5464 68.0001 70.7918C67.4343 71.0296 66.8143 71.1485 66.14 71.1485C65.21 71.1485 64.4195 70.9414 63.7684 70.5272C63.1252 70.1054 62.664 69.5186 62.385 68.7669C62.1525 68.23 62.0363 67.5282 62.0363 66.6615C62.0363 66.0708 62.1176 65.5493 62.2804 65.0967C62.5284 64.3297 62.9663 63.7238 63.5941 63.2789C64.2141 62.8264 64.9542 62.6001 65.8145 62.6001C66.8996 62.6001 67.7715 62.9107 68.4302 63.532C69.0813 64.1533 69.4804 64.9855 69.6276 66.0287ZM65.8261 64.5675C65.1441 64.5675 64.6946 64.882 64.4776 65.5109C64.4388 65.649 64.4001 65.8216 64.3613 66.0287C64.3613 66.0824 64.3885 66.1092 64.4427 66.1092H67.2677C67.3297 66.1092 67.3491 66.0824 67.3258 66.0287C67.2716 65.7142 67.2444 65.5646 67.2444 65.58C67.1514 65.2578 66.9809 65.0085 66.7329 64.8321C66.4927 64.6557 66.1904 64.5675 65.8261 64.5675ZM74.3592 62.6116C75.0645 62.6116 75.6922 62.7343 76.2425 62.9798C76.8005 63.2175 77.2345 63.5474 77.5445 63.9692C77.8546 64.3834 78.0096 64.8513 78.0096 65.3729V70.8264C78.0096 70.8801 77.9902 70.9261 77.9514 70.9644C77.9127 71.0028 77.8662 71.022 77.8119 71.022H75.9054C75.8511 71.022 75.8046 71.0028 75.7659 70.9644C75.7271 70.9261 75.7077 70.8801 75.7077 70.8264V70.2971C75.7077 70.2664 75.6961 70.2434 75.6729 70.2281C75.6574 70.2204 75.638 70.2319 75.6147 70.2626C75.1575 70.8532 74.4251 71.1485 73.4175 71.1485C72.5727 71.1485 71.8868 70.9453 71.3598 70.5387C70.8406 70.1322 70.5809 69.5301 70.5809 68.7324C70.5809 67.904 70.8754 67.2636 71.4645 66.811C72.0457 66.3508 72.8789 66.1207 73.9639 66.1207H75.6264C75.6806 66.1207 75.7077 66.0939 75.7077 66.0402V65.695C75.7077 65.3345 75.5992 65.0545 75.3822 64.8551C75.1652 64.6634 74.8397 64.5675 74.4057 64.5675C74.0724 64.5675 73.7934 64.625 73.5687 64.7401C73.3439 64.8551 73.2005 65.02 73.1385 65.2348C73.1075 65.3575 73.0378 65.4112 72.9293 65.3959L70.9529 65.1428C70.8289 65.1197 70.7708 65.0699 70.7786 64.9932C70.8251 64.5483 71.0072 64.1418 71.325 63.7736C71.6427 63.4055 72.0651 63.1217 72.5921 62.9222C73.1191 62.7151 73.7082 62.6116 74.3592 62.6116ZM74.0337 69.4572C74.4987 69.4572 74.894 69.3345 75.2195 69.0891C75.545 68.8436 75.7077 68.5253 75.7077 68.1341V67.5589C75.7077 67.5052 75.6806 67.4783 75.6264 67.4783H74.4522C73.9639 67.4783 73.5842 67.5704 73.3129 67.7545C73.0339 67.9385 72.8944 68.1955 72.8944 68.5253C72.8944 68.8168 72.999 69.0469 73.2083 69.2156C73.4098 69.3767 73.6849 69.4572 74.0337 69.4572ZM84.8104 59.9424C84.8104 59.8887 84.8298 59.8427 84.8685 59.8043C84.9073 59.766 84.9538 59.7468 85.0081 59.7468H86.903C86.9572 59.7468 87.0037 59.766 87.0425 59.8043C87.0812 59.8427 87.1006 59.8887 87.1006 59.9424V70.8264C87.1006 70.8801 87.0812 70.9261 87.0425 70.9644C87.0037 71.0028 86.9572 71.022 86.903 71.022H85.0081C84.9538 71.022 84.9073 71.0028 84.8685 70.9644C84.8298 70.9261 84.8104 70.8801 84.8104 70.8264V70.2971C84.8104 70.2664 84.7988 70.2473 84.7755 70.2396C84.7523 70.2319 84.729 70.2396 84.7058 70.2626C84.2563 70.8532 83.6324 71.1485 82.8341 71.1485C82.0746 71.1485 81.4236 70.9414 80.881 70.5272C80.3308 70.1054 79.9355 69.5301 79.6952 68.8014C79.5092 68.2415 79.4162 67.5895 79.4162 66.8455C79.4162 66.0862 79.517 65.4227 79.7185 64.8551C79.9665 64.1648 80.3579 63.6202 80.8927 63.2214C81.4274 62.8149 82.094 62.6116 82.8922 62.6116C83.6673 62.6116 84.2718 62.8801 84.7058 63.417C84.729 63.4476 84.7523 63.4592 84.7755 63.4515C84.7988 63.4438 84.8104 63.4208 84.8104 63.3825V59.9424ZM84.4617 68.5138C84.6787 68.115 84.7872 67.5704 84.7872 66.8801C84.7872 66.1591 84.6709 65.5953 84.4384 65.1888C84.1827 64.7746 83.8184 64.5675 83.3456 64.5675C82.8341 64.5675 82.4466 64.7746 82.1831 65.1888C81.9118 65.6106 81.7762 66.1821 81.7762 66.9031C81.7762 67.5474 81.8924 68.0843 82.125 68.5138C82.3962 68.974 82.7953 69.2041 83.3224 69.2041C83.8106 69.2041 84.1904 68.974 84.4617 68.5138ZM96.2382 66.0287C96.3002 66.4352 96.3196 66.8916 96.2963 67.3978C96.2886 67.5282 96.2188 67.5934 96.0871 67.5934H91.0533C90.9913 67.5934 90.9719 67.6202 90.9951 67.6739C91.0261 67.8887 91.0843 68.1034 91.1695 68.3182C91.4563 68.9165 92.0337 69.2156 92.9017 69.2156C93.5915 69.208 94.1379 68.928 94.5409 68.3757C94.5874 68.3144 94.6378 68.2837 94.692 68.2837C94.723 68.2837 94.7579 68.3067 94.7966 68.3527L95.9708 69.4917C96.0251 69.5454 96.0522 69.5953 96.0522 69.6413C96.0522 69.6567 96.0328 69.6988 95.9941 69.7679C95.6298 70.2051 95.1687 70.5464 94.6106 70.7918C94.0449 71.0296 93.4248 71.1485 92.7506 71.1485C91.8205 71.1485 91.03 70.9414 90.379 70.5272C89.7357 70.1054 89.2746 69.5186 88.9956 68.7669C88.7631 68.23 88.6468 67.5282 88.6468 66.6615C88.6468 66.0708 88.7282 65.5493 88.8909 65.0967C89.1389 64.3297 89.5768 63.7238 90.2046 63.2789C90.8246 62.8264 91.5648 62.6001 92.4251 62.6001C93.5101 62.6001 94.382 62.9107 95.0408 63.532C95.6918 64.1533 96.0909 64.9855 96.2382 66.0287ZM92.4367 64.5675C91.7547 64.5675 91.3051 64.882 91.0881 65.5109C91.0494 65.649 91.0106 65.8216 90.9719 66.0287C90.9719 66.0824 90.999 66.1092 91.0533 66.1092H93.8782C93.9402 66.1092 93.9596 66.0824 93.9364 66.0287C93.8821 65.7142 93.855 65.5646 93.855 65.58C93.762 65.2578 93.5915 65.0085 93.3435 64.8321C93.1032 64.6557 92.8009 64.5675 92.4367 64.5675ZM101.877 62.6346C102.272 62.6346 102.582 62.7075 102.807 62.8532C102.892 62.8992 102.927 62.9798 102.911 63.0948L102.562 64.9357C102.555 65.0661 102.481 65.1044 102.342 65.0507C102.179 64.997 101.989 64.9702 101.772 64.9702C101.679 64.9702 101.559 64.9778 101.412 64.9932C101.016 65.0315 100.683 65.1734 100.412 65.4189C100.14 65.672 100.005 66.0095 100.005 66.4313V70.8264C100.005 70.8801 99.9893 70.9261 99.9583 70.9644C99.9196 71.0028 99.8731 71.022 99.8188 71.022H97.9123C97.858 71.022 97.8115 71.0028 97.7727 70.9644C97.734 70.9261 97.7146 70.8801 97.7146 70.8264V62.9337C97.7146 62.8801 97.734 62.834 97.7727 62.7957C97.8115 62.7573 97.858 62.7382 97.9123 62.7382H99.8188C99.8731 62.7382 99.9196 62.7573 99.9583 62.7957C99.9893 62.834 100.005 62.8801 100.005 62.9337V63.5435C100.005 63.5819 100.016 63.6049 100.04 63.6126C100.063 63.6202 100.078 63.6164 100.086 63.6011C100.536 62.9568 101.132 62.6346 101.877 62.6346ZM45.8421 43.766C45.8963 43.6816 45.9738 43.6394 46.0746 43.6394H47.9811C48.0354 43.6394 48.0819 43.6586 48.1206 43.6969C48.1594 43.7353 48.1788 43.7813 48.1788 43.835V54.719C48.1788 54.7727 48.1594 54.8187 48.1206 54.857C48.0819 54.8954 48.0354 54.9146 47.9811 54.9146H46.0746C46.0203 54.9146 45.9738 54.8954 45.9351 54.857C45.8963 54.8187 45.8769 54.7727 45.8769 54.719V47.6202C45.8769 47.5742 45.8653 47.5512 45.8421 47.5512C45.8266 47.5512 45.8072 47.5665 45.7839 47.5972L44.0518 50.2779C43.9975 50.3623 43.9239 50.4045 43.8309 50.4045H42.866C42.773 50.4045 42.6993 50.3623 42.6451 50.2779L40.9129 47.5972C40.8896 47.5665 40.8703 47.555 40.8548 47.5627C40.8315 47.5704 40.8199 47.5934 40.8199 47.6317V54.719C40.8199 54.7727 40.8005 54.8187 40.7618 54.857C40.723 54.8954 40.6765 54.9146 40.6223 54.9146H38.7157C38.6614 54.9146 38.6149 54.8954 38.5762 54.857C38.5374 54.8187 38.5181 54.7727 38.5181 54.719V43.835C38.5181 43.7813 38.5374 43.7353 38.5762 43.6969C38.6149 43.6586 38.6614 43.6394 38.7157 43.6394H40.6223C40.723 43.6394 40.8005 43.6816 40.8548 43.766L43.2961 47.5167C43.3271 47.5857 43.3581 47.5857 43.3891 47.5167L45.8421 43.766ZM53.7125 55.0411C52.7979 55.0411 52.0152 54.8072 51.3641 54.3393C50.7131 53.8638 50.2675 53.2195 50.0272 52.4064C49.88 51.9002 49.8063 51.3518 49.8063 50.7612C49.8063 50.1245 49.88 49.5531 50.0272 49.0469C50.2752 48.2569 50.7247 47.6356 51.3758 47.183C52.0268 46.7305 52.8096 46.5042 53.7241 46.5042C54.6154 46.5042 55.3749 46.7267 56.0027 47.1715C56.6304 47.6164 57.0761 48.2377 57.3396 49.0354C57.5101 49.5723 57.5954 50.136 57.5954 50.7267C57.5954 51.3096 57.5217 51.8503 57.3745 52.3489C57.1342 53.1926 56.6924 53.8523 56.0492 54.3278C55.3982 54.8034 54.6193 55.0411 53.7125 55.0411ZM53.7125 53.0967C54.069 53.0967 54.3712 52.9894 54.6192 52.7746C54.8673 52.5598 55.0455 52.2645 55.154 51.8887C55.2393 51.5435 55.2819 51.1677 55.2819 50.7612C55.2819 50.3086 55.2393 49.9251 55.154 49.6106C55.0378 49.2501 54.8556 48.9663 54.6076 48.7593C54.3519 48.5598 54.0457 48.4601 53.6892 48.4601C53.325 48.4601 53.0188 48.5598 52.7708 48.7593C52.5306 48.9663 52.3562 49.2501 52.2477 49.6106C52.1547 49.8714 52.1082 50.2549 52.1082 50.7612C52.1082 51.2444 52.1469 51.6202 52.2244 51.8887C52.3329 52.2645 52.5151 52.5598 52.7708 52.7746C53.0266 52.9894 53.3405 53.0967 53.7125 53.0967ZM68.3605 46.5042C69.2053 46.5042 69.864 46.7573 70.3368 47.2636C70.8173 47.7698 71.0576 48.4793 71.0576 49.392V54.719C71.0576 54.7727 71.0382 54.8187 70.9994 54.857C70.9607 54.8954 70.9142 54.9146 70.8599 54.9146H68.9534C68.8991 54.9146 68.8526 54.8954 68.8139 54.857C68.7829 54.8187 68.7674 54.7727 68.7674 54.719V49.8868C68.7674 49.4496 68.6511 49.1006 68.4186 48.8398C68.1938 48.5867 67.8916 48.4601 67.5118 48.4601C67.1321 48.4601 66.822 48.5867 66.5818 48.8398C66.3415 49.1006 66.2214 49.4457 66.2214 49.8753V54.719C66.2214 54.7727 66.202 54.8187 66.1633 54.857C66.1245 54.8954 66.078 54.9146 66.0238 54.9146H64.1405C64.0862 54.9146 64.0397 54.8954 64.0009 54.857C63.9622 54.8187 63.9428 54.7727 63.9428 54.719V49.8868C63.9428 49.4572 63.8227 49.1121 63.5824 48.8513C63.3499 48.5905 63.0438 48.4601 62.664 48.4601C62.3153 48.4601 62.0246 48.5598 61.7921 48.7593C61.5596 48.9663 61.4201 49.2501 61.3736 49.6106V54.719C61.3736 54.7727 61.3542 54.8187 61.3155 54.857C61.2767 54.8954 61.2302 54.9146 61.176 54.9146H59.2694C59.2152 54.9146 59.1725 54.8954 59.1415 54.857C59.1028 54.8187 59.0834 54.7727 59.0834 54.719V46.8264C59.0834 46.7727 59.1028 46.7266 59.1415 46.6883C59.1725 46.6499 59.2152 46.6308 59.2694 46.6308H61.176C61.2302 46.6308 61.2767 46.6499 61.3155 46.6883C61.3542 46.7266 61.3736 46.7727 61.3736 46.8264V47.4592C61.3736 47.4898 61.3852 47.509 61.4085 47.5167C61.4317 47.532 61.4511 47.5243 61.4666 47.4937C61.9161 46.834 62.6059 46.5042 63.5359 46.5042C64.0785 46.5042 64.5551 46.6193 64.9659 46.8494C65.3689 47.0718 65.6789 47.394 65.8959 47.8158C65.9269 47.8772 65.9656 47.8772 66.0121 47.8158C66.2524 47.3709 66.574 47.0411 66.9771 46.8264C67.3878 46.6116 67.849 46.5042 68.3605 46.5042ZM80.0208 49.9213C80.0905 50.3278 80.1138 50.7842 80.0905 51.2904C80.0828 51.4208 80.013 51.486 79.8812 51.486H74.8475C74.7854 51.486 74.7661 51.5128 74.7893 51.5665C74.8203 51.7813 74.8785 51.9961 74.9637 52.2108C75.2427 52.8091 75.8162 53.1082 76.6843 53.1082C77.3818 53.1006 77.9321 52.8206 78.3351 52.2684C78.3738 52.207 78.4203 52.1763 78.4746 52.1763C78.5133 52.1763 78.5521 52.1993 78.5908 52.2453L79.765 53.3844C79.8192 53.4381 79.8464 53.4879 79.8464 53.5339C79.8464 53.5493 79.8231 53.5915 79.7766 53.6605C79.4201 54.0977 78.959 54.439 78.3932 54.6845C77.8352 54.9222 77.219 55.0411 76.5448 55.0411C75.607 55.0411 74.8164 54.834 74.1732 54.4198C73.5299 53.998 73.0649 53.4112 72.7781 52.6595C72.5534 52.1226 72.441 51.4208 72.441 50.5541C72.441 49.9635 72.5224 49.4419 72.6851 48.9894C72.9331 48.2223 73.371 47.6164 73.9988 47.1715C74.6188 46.719 75.359 46.4927 76.2192 46.4927C77.3043 46.4927 78.1723 46.8034 78.8233 47.4246C79.4821 48.0459 79.8813 48.8781 80.0208 49.9213ZM76.2309 48.4601C75.5488 48.4601 75.0993 48.7746 74.8823 49.4035C74.8358 49.5416 74.7971 49.7142 74.7661 49.9213C74.7661 49.975 74.7932 50.0018 74.8475 50.0018H77.6608C77.7305 50.0018 77.7538 49.975 77.7306 49.9213C77.6763 49.6068 77.6492 49.4572 77.6492 49.4726C77.5484 49.1504 77.3779 48.9011 77.1377 48.7247C76.8896 48.5483 76.5874 48.4601 76.2309 48.4601ZM85.8683 46.5042C86.7364 46.5042 87.4378 46.7688 87.9725 47.2981C88.4995 47.8197 88.7631 48.533 88.7631 49.4381V54.719C88.7631 54.7727 88.7437 54.8187 88.7049 54.857C88.6662 54.8954 88.6197 54.9146 88.5654 54.9146H86.6705C86.6162 54.9146 86.5697 54.8954 86.531 54.857C86.4922 54.8187 86.4729 54.7727 86.4729 54.719V49.9098C86.4729 49.4802 86.3489 49.1313 86.1008 48.8628C85.8606 48.5943 85.5389 48.4601 85.1359 48.4601C84.7329 48.4601 84.4113 48.5943 84.171 48.8628C83.923 49.1313 83.799 49.4802 83.799 49.9098V54.719C83.799 54.7727 83.7796 54.8187 83.7409 54.857C83.7021 54.8954 83.6556 54.9146 83.6014 54.9146H81.7064C81.6522 54.9146 81.6057 54.8954 81.5669 54.857C81.5282 54.8187 81.5088 54.7727 81.5088 54.719V46.8264C81.5088 46.7727 81.5282 46.7266 81.5669 46.6883C81.6057 46.6499 81.6522 46.6308 81.7064 46.6308H83.6014C83.6556 46.6308 83.7021 46.6499 83.7409 46.6883C83.7796 46.7266 83.799 46.7727 83.799 46.8264V47.3901C83.799 47.4208 83.8106 47.4438 83.8339 47.4592C83.8571 47.4668 83.8726 47.4592 83.8804 47.4361C84.3299 46.8149 84.9926 46.5042 85.8683 46.5042ZM95.2152 48.2645C95.2152 48.3182 95.1958 48.3642 95.157 48.4026C95.1183 48.4409 95.0718 48.4601 95.0175 48.4601H93.4481C93.3938 48.4601 93.3667 48.487 93.3667 48.5406V51.9462C93.3667 52.3067 93.4403 52.5713 93.5876 52.7401C93.7349 52.9088 93.9712 52.9932 94.2968 52.9932H94.8315C94.8858 52.9932 94.9323 53.0124 94.971 53.0507C95.0098 53.0891 95.0292 53.1351 95.0292 53.1888V54.719C95.0292 54.8417 94.9633 54.9107 94.8315 54.9261C94.382 54.9491 94.0565 54.9606 93.855 54.9606C92.956 54.9606 92.2856 54.8149 91.8438 54.5234C91.3943 54.2243 91.1656 53.6682 91.1579 52.8551V48.5406C91.1579 48.487 91.1308 48.4601 91.0765 48.4601H90.1465C90.0922 48.4601 90.0457 48.4409 90.007 48.4026C89.9682 48.3642 89.9488 48.3182 89.9488 48.2645V46.8264C89.9488 46.7727 89.9682 46.7266 90.007 46.6883C90.0457 46.6499 90.0922 46.6308 90.1465 46.6308H91.0765C91.1308 46.6308 91.1579 46.6039 91.1579 46.5502V44.6404C91.1579 44.5867 91.1773 44.5407 91.216 44.5023C91.2548 44.4639 91.3013 44.4448 91.3555 44.4448H93.1807C93.235 44.4448 93.2776 44.4639 93.3086 44.5023C93.3473 44.5407 93.3667 44.5867 93.3667 44.6404V46.5502C93.3667 46.6039 93.3938 46.6308 93.4481 46.6308H95.0175C95.0718 46.6308 95.1183 46.6499 95.157 46.6883C95.1958 46.7266 95.2152 46.7727 95.2152 46.8264V48.2645ZM101.481 46.8264C101.481 46.7727 101.497 46.7266 101.528 46.6883C101.567 46.6499 101.613 46.6308 101.667 46.6308H103.574C103.628 46.6308 103.675 46.6499 103.713 46.6883C103.752 46.7266 103.771 46.7727 103.771 46.8264V54.719C103.771 54.7727 103.752 54.8187 103.713 54.857C103.675 54.8954 103.628 54.9146 103.574 54.9146H101.667C101.613 54.9146 101.567 54.8954 101.528 54.857C101.497 54.8187 101.481 54.7727 101.481 54.719V54.1782C101.481 54.1399 101.47 54.1207 101.446 54.1207C101.423 54.113 101.4 54.1245 101.377 54.1552C100.943 54.7382 100.272 55.0296 99.3654 55.0296C98.5361 55.0296 97.858 54.7803 97.331 54.2818C96.7962 53.7909 96.5288 53.1006 96.5288 52.2108V46.8264C96.5288 46.7727 96.5482 46.7266 96.587 46.6883C96.6257 46.6499 96.6722 46.6308 96.7265 46.6308H98.6098C98.664 46.6308 98.7105 46.6499 98.7493 46.6883C98.788 46.7266 98.8074 46.7727 98.8074 46.8264V51.6471C98.8074 52.0766 98.9237 52.4256 99.1562 52.6941C99.3887 52.9625 99.7103 53.0967 100.121 53.0967C100.493 53.0967 100.799 52.9855 101.039 52.7631C101.28 52.5407 101.427 52.253 101.481 51.9002V46.8264ZM114.746 46.5042C115.591 46.5042 116.249 46.7573 116.722 47.2636C117.203 47.7698 117.443 48.4793 117.443 49.392V54.719C117.443 54.7727 117.424 54.8187 117.385 54.857C117.346 54.8954 117.3 54.9146 117.245 54.9146H115.339C115.284 54.9146 115.238 54.8954 115.199 54.857C115.168 54.8187 115.153 54.7727 115.153 54.719V49.8868C115.153 49.4496 115.036 49.1006 114.804 48.8398C114.579 48.5867 114.277 48.4601 113.897 48.4601C113.517 48.4601 113.207 48.5867 112.967 48.8398C112.727 49.1006 112.607 49.4457 112.607 49.8753V54.719C112.607 54.7727 112.587 54.8187 112.549 54.857C112.51 54.8954 112.463 54.9146 112.409 54.9146H110.526C110.472 54.9146 110.425 54.8954 110.386 54.857C110.348 54.8187 110.328 54.7727 110.328 54.719V49.8868C110.328 49.4572 110.208 49.1121 109.968 48.8513C109.735 48.5905 109.429 48.4601 109.049 48.4601C108.701 48.4601 108.41 48.5598 108.177 48.7593C107.945 48.9663 107.805 49.2501 107.759 49.6106V54.719C107.759 54.7727 107.74 54.8187 107.701 54.857C107.662 54.8954 107.616 54.9146 107.561 54.9146H105.655C105.601 54.9146 105.554 54.8954 105.515 54.857C105.484 54.8187 105.469 54.7727 105.469 54.719V46.8264C105.469 46.7727 105.484 46.7266 105.515 46.6883C105.554 46.6499 105.601 46.6308 105.655 46.6308H107.561C107.616 46.6308 107.662 46.6499 107.701 46.6883C107.74 46.7266 107.759 46.7727 107.759 46.8264V47.4592C107.759 47.4898 107.771 47.509 107.794 47.5167C107.817 47.532 107.836 47.5243 107.852 47.4937C108.301 46.834 108.991 46.5042 109.921 46.5042C110.464 46.5042 110.94 46.6193 111.351 46.8494C111.754 47.0718 112.064 47.394 112.281 47.8158C112.312 47.8772 112.351 47.8772 112.398 47.8158C112.638 47.3709 112.959 47.0411 113.362 46.8264C113.773 46.6116 114.234 46.5042 114.746 46.5042Z" fill="#252530"/>
<path d="M59.2462 88.8323C58.6416 88.8323 58.1146 88.7364 57.6651 88.5446C57.2156 88.3529 56.8668 88.0844 56.6188 87.7393C56.3786 87.3941 56.2584 86.9876 56.2584 86.5197V86.2321C56.2584 86.1937 56.2739 86.1592 56.3049 86.1285C56.3282 86.1055 56.3592 86.094 56.3979 86.094H57.4326C57.4713 86.094 57.5062 86.1055 57.5372 86.1285C57.5605 86.1592 57.5721 86.1937 57.5721 86.2321V86.4507C57.5721 86.8035 57.731 87.095 58.0487 87.3251C58.3665 87.5628 58.8005 87.6817 59.3508 87.6817C59.8235 87.6817 60.1801 87.582 60.4203 87.3826C60.6606 87.1832 60.7807 86.9262 60.7807 86.6117C60.7807 86.397 60.7148 86.2129 60.5831 86.0595C60.4513 85.9138 60.2653 85.7795 60.0251 85.6568C59.777 85.5341 59.4089 85.3807 58.9206 85.1966C58.3704 84.9972 57.9247 84.8092 57.5837 84.6328C57.2427 84.4564 56.9598 84.2148 56.7351 83.908C56.5026 83.6089 56.3863 83.233 56.3863 82.7805C56.3863 82.1055 56.6343 81.5724 57.1303 81.1813C57.6263 80.7901 58.289 80.5945 59.1183 80.5945C59.6995 80.5945 60.2149 80.6942 60.6645 80.8936C61.1062 81.093 61.4511 81.373 61.6991 81.7335C61.9471 82.0863 62.0711 82.4967 62.0711 82.9646V83.1602C62.0711 83.1985 62.0556 83.233 62.0246 83.2637C62.0014 83.2867 61.9704 83.2982 61.9316 83.2982H60.8853C60.8466 83.2982 60.8156 83.2867 60.7923 83.2637C60.7613 83.233 60.7458 83.1985 60.7458 83.1602V83.0336C60.7458 82.6731 60.5986 82.3701 60.3041 82.1247C60.0018 81.8716 59.5872 81.745 59.0601 81.745C58.6339 81.745 58.3045 81.8332 58.072 82.0096C57.8317 82.186 57.7116 82.4353 57.7116 82.7575C57.7116 82.9876 57.7736 83.1755 57.8976 83.3212C58.0216 83.467 58.2076 83.5974 58.4556 83.7124C58.7036 83.8351 59.0873 83.9885 59.6065 84.1726C60.1568 84.3797 60.5986 84.5676 60.9318 84.7364C61.2573 84.9051 61.5402 85.1391 61.7805 85.4382C62.013 85.745 62.1293 86.1247 62.1293 86.5772C62.1293 87.2675 61.8696 87.816 61.3504 88.2225C60.8388 88.629 60.1374 88.8323 59.2462 88.8323ZM66.3376 88.8323C65.7641 88.8323 65.2565 88.721 64.8147 88.4986C64.373 88.2762 64.0319 87.9617 63.7917 87.5552C63.5437 87.141 63.4197 86.6654 63.4197 86.1285V80.8246C63.4197 80.7862 63.4352 80.7556 63.4662 80.7325C63.4894 80.7019 63.5204 80.6865 63.5592 80.6865H64.6287C64.6675 80.6865 64.7023 80.7019 64.7333 80.7325C64.7566 80.7556 64.7682 80.7862 64.7682 80.8246V86.1515C64.7682 86.6041 64.9116 86.9722 65.1984 87.256C65.4851 87.5398 65.8649 87.6817 66.3376 87.6817C66.8104 87.6817 67.1902 87.5398 67.4769 87.256C67.7637 86.9722 67.9071 86.6041 67.9071 86.1515V80.8246C67.9071 80.7862 67.9226 80.7556 67.9536 80.7325C67.9768 80.7019 68.0078 80.6865 68.0466 80.6865H69.1161C69.1549 80.6865 69.1897 80.7019 69.2207 80.7325C69.244 80.7556 69.2556 80.7862 69.2556 80.8246V86.1285C69.2556 86.6654 69.1355 87.141 68.8952 87.5552C68.655 87.9617 68.314 88.2762 67.8722 88.4986C67.4304 88.721 66.9189 88.8323 66.3376 88.8323ZM76.1262 80.7786C76.165 80.7172 76.2192 80.6865 76.289 80.6865H77.3585C77.3973 80.6865 77.4322 80.7019 77.4632 80.7325C77.4864 80.7556 77.498 80.7862 77.498 80.8246V88.6022C77.498 88.6405 77.4864 88.6712 77.4632 88.6942C77.4322 88.7249 77.3973 88.7402 77.3585 88.7402H76.289C76.2502 88.7402 76.2154 88.7249 76.1844 88.6942C76.1611 88.6712 76.1495 88.6405 76.1495 88.6022V83.1141C76.1495 83.0911 76.1379 83.0758 76.1146 83.0681C76.0991 83.0604 76.0875 83.0681 76.0797 83.0911L74.6266 85.3001C74.5878 85.3615 74.5336 85.3922 74.4638 85.3922H73.929C73.8593 85.3922 73.805 85.3615 73.7663 85.3001L72.3015 83.1026C72.2937 83.0796 72.2782 83.072 72.255 83.0796C72.2395 83.0873 72.2317 83.1026 72.2317 83.1256V88.6022C72.2317 88.6405 72.2201 88.6712 72.1968 88.6942C72.1658 88.7249 72.131 88.7402 72.0922 88.7402H71.0227C70.9839 88.7402 70.9529 88.7249 70.9297 88.6942C70.8987 88.6712 70.8832 88.6405 70.8832 88.6022V80.8246C70.8832 80.7862 70.8987 80.7556 70.9297 80.7325C70.9529 80.7019 70.9839 80.6865 71.0227 80.6865H72.0922C72.162 80.6865 72.2162 80.7172 72.255 80.7786L74.1499 83.6204C74.1654 83.6357 74.1809 83.6434 74.1964 83.6434C74.2119 83.6434 74.2235 83.6357 74.2313 83.6204L76.1262 80.7786ZM84.4384 80.7786C84.4772 80.7172 84.5314 80.6865 84.6012 80.6865H85.6707C85.7094 80.6865 85.7404 80.7019 85.7637 80.7325C85.7947 80.7556 85.8102 80.7862 85.8102 80.8246V88.6022C85.8102 88.6405 85.7947 88.6712 85.7637 88.6942C85.7404 88.7249 85.7094 88.7402 85.6707 88.7402H84.6012C84.5624 88.7402 84.5314 88.7249 84.5082 88.6942C84.4772 88.6712 84.4617 88.6405 84.4617 88.6022V83.1141C84.4617 83.0911 84.4539 83.0758 84.4384 83.0681C84.4152 83.0604 84.3996 83.0681 84.3919 83.0911L82.9387 85.3001C82.9 85.3615 82.8457 85.3922 82.776 85.3922H82.2412C82.1714 85.3922 82.1172 85.3615 82.0784 85.3001L80.6136 83.1026C80.6059 83.0796 80.5943 83.072 80.5788 83.0796C80.5555 83.0873 80.5439 83.1026 80.5439 83.1256V88.6022C80.5439 88.6405 80.5323 88.6712 80.509 88.6942C80.478 88.7249 80.4431 88.7402 80.4044 88.7402H79.3349C79.2961 88.7402 79.2651 88.7249 79.2418 88.6942C79.2108 88.6712 79.1953 88.6405 79.1953 88.6022V80.8246C79.1953 80.7862 79.2108 80.7556 79.2418 80.7325C79.2651 80.7019 79.2961 80.6865 79.3349 80.6865H80.4044C80.4741 80.6865 80.5284 80.7172 80.5671 80.7786L82.4621 83.6204C82.4776 83.6357 82.4931 83.6434 82.5086 83.6434C82.5241 83.6434 82.5357 83.6357 82.5435 83.6204L84.4384 80.7786ZM93.0179 81.699C93.0179 81.7373 93.0063 81.768 92.9831 81.791C92.9521 81.8217 92.9172 81.8371 92.8784 81.8371H88.9142C88.8754 81.8371 88.8561 81.8562 88.8561 81.8946V84.0461C88.8561 84.0844 88.8754 84.1036 88.9142 84.1036H91.5764C91.6152 84.1036 91.65 84.1151 91.681 84.1381C91.7043 84.1688 91.7159 84.2033 91.7159 84.2417V85.1161C91.7159 85.1544 91.7043 85.1889 91.681 85.2196C91.65 85.2426 91.6152 85.2541 91.5764 85.2541H88.9142C88.8754 85.2541 88.8561 85.2733 88.8561 85.3116V87.5322C88.8561 87.5705 88.8754 87.5897 88.9142 87.5897H92.8784C92.9172 87.5897 92.9521 87.605 92.9831 87.6357C93.0063 87.6587 93.0179 87.6894 93.0179 87.7277V88.6022C93.0179 88.6405 93.0063 88.6712 92.9831 88.6942C92.9521 88.7249 92.9172 88.7402 92.8784 88.7402H87.647C87.6083 88.7402 87.5773 88.7249 87.554 88.6942C87.523 88.6712 87.5075 88.6405 87.5075 88.6022V80.8246C87.5075 80.7862 87.523 80.7556 87.554 80.7325C87.5773 80.7019 87.6083 80.6865 87.647 80.6865H92.8784C92.9172 80.6865 92.9521 80.7019 92.9831 80.7325C93.0063 80.7556 93.0179 80.7862 93.0179 80.8246V81.699ZM98.9585 88.7402C98.881 88.7402 98.8268 88.7057 98.7958 88.6367L97.2612 85.3232C97.2457 85.2925 97.2225 85.2771 97.1915 85.2771H95.7964C95.7577 85.2771 95.7383 85.2963 95.7383 85.3347V88.6022C95.7383 88.6405 95.7228 88.6712 95.6918 88.6942C95.6685 88.7249 95.6375 88.7402 95.5988 88.7402H94.5293C94.4905 88.7402 94.4595 88.7249 94.4362 88.6942C94.4052 88.6712 94.3897 88.6405 94.3897 88.6022V80.8246C94.3897 80.7862 94.4052 80.7556 94.4362 80.7325C94.4595 80.7019 94.4905 80.6865 94.5293 80.6865H97.7262C98.199 80.6865 98.6175 80.7824 98.9818 80.9742C99.346 81.1736 99.6289 81.4497 99.8304 81.8025C100.032 82.163 100.133 82.5734 100.133 83.0336C100.133 83.5628 99.9932 84.0115 99.7142 84.3797C99.4429 84.7556 99.0632 85.0163 98.5749 85.1621C98.5594 85.1621 98.5478 85.1697 98.54 85.1851C98.5323 85.2004 98.5323 85.2158 98.54 85.2311L100.179 88.5791C100.195 88.6098 100.202 88.6328 100.202 88.6482C100.202 88.7095 100.16 88.7402 100.075 88.7402H98.9585ZM95.7964 81.8371C95.7577 81.8371 95.7383 81.8562 95.7383 81.8946V84.1841C95.7383 84.2225 95.7577 84.2417 95.7964 84.2417H97.5402C97.9122 84.2417 98.2106 84.1304 98.4354 83.908C98.6679 83.6932 98.7841 83.4056 98.7841 83.0451C98.7841 82.6846 98.6679 82.3931 98.4354 82.1707C98.2106 81.9483 97.9122 81.8371 97.5402 81.8371H95.7964Z" fill="white"/>
<path d="M63.3964 109.519C63.3732 109.542 63.3654 109.565 63.3732 109.588C63.3887 109.611 63.4119 109.622 63.4429 109.622H68.0117C68.066 109.622 68.1125 109.642 68.1512 109.68C68.1977 109.718 68.221 109.764 68.221 109.818V111.44C68.221 111.494 68.1977 111.54 68.1512 111.578C68.1125 111.617 68.066 111.636 68.0117 111.636H60.432C60.37 111.636 60.3196 111.617 60.2808 111.578C60.2421 111.54 60.2227 111.494 60.2227 111.44V109.899C60.2227 109.799 60.2576 109.714 60.3273 109.645C60.8776 109.116 61.4395 108.537 62.013 107.908C62.5865 107.279 62.9469 106.888 63.0942 106.735C63.4042 106.366 63.722 106.014 64.0475 105.676C65.0705 104.556 65.582 103.724 65.582 103.179C65.582 102.788 65.4425 102.466 65.1635 102.213C64.8845 101.968 64.5202 101.845 64.0707 101.845C63.6212 101.845 63.2569 101.968 62.9779 102.213C62.6912 102.466 62.5478 102.8 62.5478 103.214V103.628C62.5478 103.682 62.5284 103.728 62.4897 103.766C62.4509 103.805 62.4044 103.824 62.3502 103.824H60.3622C60.308 103.824 60.2615 103.805 60.2227 103.766C60.1762 103.728 60.153 103.682 60.153 103.628V102.846C60.1917 102.248 60.3855 101.714 60.7342 101.247C61.083 100.786 61.5441 100.434 62.1176 100.188C62.6989 99.9427 63.3499 99.8199 64.0707 99.8199C64.869 99.8199 65.5626 99.9695 66.1517 100.269C66.7407 100.56 67.1941 100.955 67.5118 101.454C67.8373 101.96 68.0001 102.516 68.0001 103.122C68.0001 103.59 67.88 104.069 67.6397 104.56C67.4072 105.051 67.0546 105.58 66.5818 106.148C66.233 106.577 65.8572 107.007 65.4541 107.436C65.0511 107.858 64.4505 108.468 63.6522 109.266L63.3964 109.519ZM73.6965 111.82C72.4565 111.82 71.48 111.479 70.7669 110.796C70.0462 110.113 69.6858 109.181 69.6858 108V103.594C69.6858 102.435 70.0462 101.519 70.7669 100.844C71.48 100.161 72.4565 99.8199 73.6965 99.8199C74.9288 99.8199 75.9092 100.161 76.6378 100.844C77.3585 101.519 77.7189 102.435 77.7189 103.594V108C77.7189 109.181 77.3585 110.113 76.6378 110.796C75.9092 111.479 74.9288 111.82 73.6965 111.82ZM73.6965 109.807C74.2003 109.807 74.5995 109.653 74.894 109.346C75.1962 109.04 75.3474 108.629 75.3474 108.115V103.525C75.3474 103.018 75.1962 102.612 74.894 102.305C74.5995 101.998 74.2003 101.845 73.6965 101.845C73.2005 101.845 72.8053 101.998 72.5108 102.305C72.2085 102.612 72.0574 103.018 72.0574 103.525V108.115C72.0574 108.629 72.2085 109.04 72.5108 109.346C72.8053 109.653 73.2005 109.807 73.6965 109.807ZM82.4389 109.519C82.4156 109.542 82.4117 109.565 82.4272 109.588C82.435 109.611 82.4582 109.622 82.497 109.622H87.0658C87.12 109.622 87.1665 109.642 87.2053 109.68C87.244 109.718 87.2634 109.764 87.2634 109.818V111.44C87.2634 111.494 87.244 111.54 87.2053 111.578C87.1665 111.617 87.12 111.636 87.0658 111.636H79.4744C79.4201 111.636 79.3736 111.617 79.3349 111.578C79.2961 111.54 79.2767 111.494 79.2767 111.44V109.899C79.2767 109.799 79.3077 109.714 79.3697 109.645C79.9278 109.116 80.4897 108.537 81.0554 107.908C81.629 107.279 81.9893 106.888 82.1366 106.735C82.4544 106.366 82.776 106.014 83.1015 105.676C84.1245 104.556 84.6361 103.724 84.6361 103.179C84.6361 102.788 84.4965 102.466 84.2175 102.213C83.9308 101.968 83.5626 101.845 83.1131 101.845C82.6636 101.845 82.2993 101.968 82.0203 102.213C81.7413 102.466 81.6018 102.8 81.6018 103.214V103.628C81.6018 103.682 81.5824 103.728 81.5437 103.766C81.5049 103.805 81.4546 103.824 81.3926 103.824H79.4046C79.3504 103.824 79.3039 103.805 79.2651 103.766C79.2264 103.728 79.207 103.682 79.207 103.628V102.846C79.238 102.248 79.4279 101.714 79.7766 101.247C80.1254 100.786 80.5904 100.434 81.1717 100.188C81.753 99.9427 82.4001 99.8199 83.1131 99.8199C83.9114 99.8199 84.6051 99.9695 85.1941 100.269C85.7908 100.56 86.2481 100.955 86.5659 101.454C86.8836 101.96 87.0425 102.516 87.0425 103.122C87.0425 103.59 86.9263 104.069 86.6937 104.56C86.4535 105.051 86.097 105.58 85.6242 106.148C85.2755 106.577 84.8996 107.007 84.4965 107.436C84.0935 107.858 83.4929 108.468 82.6946 109.266L82.4389 109.519ZM95.7616 106.067C95.9863 106.574 96.0987 107.16 96.0987 107.828C96.0987 108.434 95.9979 108.99 95.7964 109.496C95.5252 110.209 95.0718 110.765 94.4363 111.164C93.8007 111.571 93.049 111.774 92.1809 111.774C91.3284 111.774 90.5805 111.563 89.9372 111.141C89.294 110.712 88.8289 110.136 88.5422 109.415C88.3872 108.986 88.2981 108.518 88.2748 108.012C88.2748 107.881 88.3407 107.816 88.4724 107.816H90.472C90.6038 107.816 90.6696 107.881 90.6696 108.012C90.7161 108.38 90.7781 108.652 90.8556 108.829C90.9564 109.12 91.123 109.346 91.3555 109.507C91.5803 109.668 91.8516 109.749 92.1693 109.749C92.7971 109.749 93.2311 109.477 93.4714 108.932C93.6264 108.602 93.7039 108.215 93.7039 107.77C93.7039 107.241 93.6186 106.811 93.4481 106.482C93.1924 105.96 92.7622 105.699 92.1577 105.699C92.0337 105.699 91.9019 105.734 91.7624 105.803C91.6307 105.879 91.4679 105.983 91.2742 106.113C91.2277 106.144 91.185 106.159 91.1463 106.159C91.0765 106.159 91.0262 106.129 90.9951 106.067L89.9954 104.675C89.9721 104.644 89.9605 104.606 89.9605 104.56C89.9605 104.491 89.9837 104.437 90.0302 104.399L92.7041 102.075C92.7273 102.052 92.739 102.029 92.739 102.006C92.7312 101.983 92.7118 101.971 92.6808 101.971H88.7166C88.6623 101.971 88.6119 101.952 88.5654 101.914C88.5267 101.876 88.5073 101.83 88.5073 101.776V100.154C88.5073 100.1 88.5267 100.054 88.5654 100.016C88.6119 99.9772 88.6623 99.958 88.7166 99.958H95.7383C95.8003 99.958 95.8507 99.9772 95.8894 100.016C95.9282 100.054 95.9476 100.1 95.9476 100.154V101.994C95.9476 102.079 95.9088 102.163 95.8313 102.248L93.6225 104.249C93.5992 104.272 93.5915 104.292 93.5992 104.307C93.5992 104.33 93.6225 104.342 93.669 104.342C94.6455 104.533 95.343 105.109 95.7616 106.067Z" fill="#252530"/>
</g>
<defs>
<filter id="filter0_ddd_1734_47765" x="0.300051" y="9.53674e-07" width="156" height="168" filterUnits="userSpaceOnUse" color-interpolation-filters="sRGB">
<feFlood flood-opacity="0" result="BackgroundImageFix"/>
<feColorMatrix in="SourceAlpha" type="matrix" values="0 0 0 0 0 0 0 0 0 0 0 0 0 0 0 0 0 0 127 0" result="hardAlpha"/>
<feOffset dy="4.78807"/>
<feGaussianBlur stdDeviation="2.67334"/>
<feColorMatrix type="matrix" values="0 0 0 0 0.278431 0 0 0 0 0.403922 0 0 0 0 0.533333 0 0 0 0.0403893 0"/>
<feBlend mode="normal" in2="BackgroundImageFix" result="effect1_dropShadow_1734_47765"/>
<feColorMatrix in="SourceAlpha" type="matrix" values="0 0 0 0 0 0 0 0 0 0 0 0 0 0 0 0 0 0 127 0" result="hardAlpha"/>
<feOffset dy="4.8"/>
<feGaussianBlur stdDeviation="6"/>
<feColorMatrix type="matrix" values="0 0 0 0 0.278431 0 0 0 0 0.403922 0 0 0 0 0.533333 0 0 0 0.03 0"/>
<feBlend mode="normal" in2="effect1_dropShadow_1734_47765" result="effect2_dropShadow_1734_47765"/>
<feColorMatrix in="SourceAlpha" type="matrix" values="0 0 0 0 0 0 0 0 0 0 0 0 0 0 0 0 0 0 127 0" result="hardAlpha"/>
<feOffset dy="12"/>
<feGaussianBlur stdDeviation="12"/>
<feColorMatrix type="matrix" values="0 0 0 0 0.278431 0 0 0 0 0.403922 0 0 0 0 0.533333 0 0 0 0.05 0"/>
<feBlend mode="normal" in2="effect2_dropShadow_1734_47765" result="effect3_dropShadow_1734_47765"/>
<feBlend mode="normal" in="SourceGraphic" in2="effect3_dropShadow_1734_47765" result="shape"/>
</filter>
</defs>
</svg>
