<svg width="157" height="168" viewBox="0 0 157 168" fill="none" xmlns="http://www.w3.org/2000/svg">
<g filter="url(#filter0_ddd_1734_47773)">
<path d="M127.054 107.736L78.6999 132L30.3456 107.736V12H127.054V107.736Z" fill="#F2F3F2"/>
<path d="M30.4591 12V107.736L127.168 12H30.4591Z" fill="white"/>
<path d="M30.9752 45.1352V107.379L32.6027 108.184L78.5231 131.31L79.9181 132L81.3132 131.31L125.606 108.184L127.234 107.379V12H30.9752V45.1352ZM33.9978 105.653V14.9914H124.211V105.653L79.9181 128.779L33.9978 105.653Z" fill="#DCDEDC"/>
<path d="M89.8517 29.1165L78.6034 35.511L67.5482 29.1165V12H89.8517V29.1165Z" fill="#FF3100"/>
<path d="M84.0712 20.4677H81.9767C82.0334 20.1452 82.2358 19.9667 82.6483 19.7612L83.0347 19.5692C83.7247 19.2227 84.0911 18.8327 84.0911 18.1952C84.0911 17.7932 83.9332 17.4767 83.6158 17.2472C83.3061 17.0177 82.9258 16.9067 82.4888 16.9067C82.1408 16.9067 81.8249 16.9937 81.5336 17.1722C81.2484 17.3462 81.0337 17.5682 80.9003 17.8472L81.5075 18.4412C81.7421 17.9762 82.084 17.7482 82.5333 17.7482C82.9135 17.7482 83.1466 17.9402 83.1466 18.2057C83.1466 18.4292 83.0331 18.6137 82.5961 18.8312L82.3493 18.9482C81.8111 19.2137 81.437 19.5182 81.2223 19.8647C81.0076 20.2052 80.8988 20.6447 80.8988 21.1712V21.3137H84.0697V20.4647L84.0712 20.4677ZM83.7906 22.2962H80.3207L78.5865 25.2347H82.0564L83.7906 28.1747L85.5263 25.2347L83.7906 22.2962Z" fill="white"/>
<path d="M78.8855 27.1949C76.676 27.1949 74.8789 25.4369 74.8789 23.2754C74.8789 21.1139 76.676 19.3559 78.8855 19.3559L80.2578 16.5479C79.8146 16.4624 79.3562 16.4159 78.8855 16.4159C75.0139 16.4159 71.8752 19.4864 71.8752 23.2739C71.8752 27.0614 75.0139 30.1319 78.8855 30.1319C80.4295 30.1319 81.8555 29.6429 83.0147 28.8164L81.4951 26.2424C80.7929 26.8334 79.8821 27.1919 78.8855 27.1919V27.1949Z" fill="white"/>
<path d="M129.265 87.1618H28.1345L24.6999 78.7618L28.1345 70.3618H129.265L132.7 78.7618L129.265 87.1618Z" fill="#FF3100"/>
<path d="M46.0406 97.1142C46.0406 97.1262 46.0482 97.1352 46.0636 97.1427C46.4132 97.3227 46.5879 97.6272 46.5879 98.0532C46.5879 98.4372 46.453 98.7237 46.1816 98.9112C45.9102 99.0987 45.556 99.1932 45.116 99.1932H43.5857C43.5535 99.1932 43.529 99.1842 43.5091 99.1647C43.4992 99.1549 43.4914 99.1431 43.4864 99.1302C43.4814 99.1173 43.4792 99.1035 43.4799 99.0897V95.2647C43.4799 95.2347 43.4891 95.2092 43.5091 95.1897C43.529 95.1702 43.5535 95.1612 43.5857 95.1612H45.07C45.5484 95.1612 45.9102 95.2497 46.1556 95.4267C46.4009 95.6037 46.5235 95.8902 46.5235 96.2847C46.5235 96.6792 46.3702 96.9282 46.0636 97.0857C46.0482 97.0932 46.0406 97.1037 46.0406 97.1142ZM44.4567 96.0192V96.7227C44.4567 96.7497 44.4704 96.7632 44.498 96.7632H45.0684C45.2294 96.7632 45.3536 96.7302 45.4395 96.6627C45.5254 96.5952 45.5683 96.5007 45.5683 96.3777C45.5683 96.2547 45.5254 96.1527 45.4395 96.0837C45.3536 96.0147 45.2294 95.9802 45.0684 95.9802H44.498C44.4704 95.9802 44.4567 95.9937 44.4567 96.0207V96.0192ZM45.4809 98.2632C45.5668 98.1927 45.6097 98.0892 45.6097 97.9557C45.6097 97.8222 45.5668 97.7247 45.4824 97.6527C45.3981 97.5822 45.2754 97.5462 45.1144 97.5462H44.4965C44.4689 97.5462 44.4551 97.5597 44.4551 97.5867V98.3292C44.4551 98.3562 44.4689 98.3697 44.4965 98.3697H45.1144C45.2708 98.3697 45.3935 98.3337 45.4794 98.2632H45.4809ZM50.1575 95.9502C50.1376 95.9697 50.113 95.9787 50.0808 95.9787H48.2792C48.2516 95.9787 48.2378 95.9922 48.2378 96.0192V96.7047C48.2378 96.7317 48.2516 96.7452 48.2792 96.7452H49.4154C49.4476 96.7452 49.4721 96.7542 49.492 96.7737C49.512 96.7932 49.5212 96.8172 49.5212 96.8487V97.4532C49.5212 97.4847 49.512 97.5087 49.492 97.5282C49.4721 97.5477 49.4476 97.5567 49.4154 97.5567H48.2792C48.2516 97.5567 48.2378 97.5702 48.2378 97.5972V98.3352C48.2378 98.3622 48.2516 98.3757 48.2792 98.3757H50.0808C50.1115 98.3757 50.1376 98.3847 50.1575 98.4042C50.1774 98.4237 50.1866 98.4477 50.1866 98.4792V99.0897C50.1866 99.1212 50.1774 99.1452 50.1575 99.1647C50.1376 99.1842 50.113 99.1932 50.0808 99.1932H47.3669C47.3347 99.1932 47.3101 99.1842 47.2902 99.1647C47.2803 99.1549 47.2726 99.1431 47.2676 99.1302C47.2625 99.1173 47.2603 99.1035 47.2611 99.0897V95.2647C47.2611 95.2347 47.2703 95.2092 47.2902 95.1897C47.3101 95.1702 47.3347 95.1612 47.3669 95.1612H50.0808C50.1115 95.1612 50.1376 95.1702 50.1575 95.1897C50.1774 95.2092 50.1866 95.2332 50.1866 95.2647V95.8752C50.1866 95.9067 50.1774 95.9307 50.1575 95.9502ZM51.4501 99.0867C51.2124 98.9847 51.0284 98.8392 50.8996 98.6487C50.7708 98.4582 50.7049 98.2392 50.7049 97.9887V97.9137C50.7049 97.8837 50.7141 97.8582 50.734 97.8387C50.7539 97.8192 50.7785 97.8102 50.8107 97.8102H51.5589C51.5911 97.8102 51.6157 97.8177 51.6356 97.8297C51.6555 97.8432 51.6647 97.8597 51.6647 97.8792V97.9482C51.6647 98.0712 51.7291 98.1807 51.8564 98.2767C51.9837 98.3727 52.1477 98.4207 52.3486 98.4207C52.5218 98.4207 52.6491 98.3847 52.7319 98.3112C52.8147 98.2377 52.8561 98.1537 52.8561 98.0577C52.8561 97.9497 52.8086 97.8672 52.712 97.8102C52.6154 97.7532 52.4436 97.6857 52.1968 97.6092L52.068 97.5687C51.8165 97.4877 51.5973 97.4007 51.4087 97.3062C51.2201 97.2117 51.0591 97.0812 50.9257 96.9147C50.7923 96.7482 50.7248 96.5412 50.7248 96.2952C50.7248 96.0492 50.7892 95.8482 50.9165 95.6697C51.0437 95.4912 51.2201 95.3532 51.447 95.2572C51.6724 95.1612 51.9285 95.1132 52.2152 95.1132C52.5172 95.1132 52.7886 95.1672 53.0309 95.2752C53.2716 95.3832 53.4618 95.5347 53.5998 95.7297C53.7378 95.9262 53.8052 96.1497 53.8052 96.4032V96.4497C53.8052 96.4812 53.796 96.5052 53.7761 96.5247C53.7562 96.5442 53.7316 96.5532 53.6994 96.5532H52.9512C52.919 96.5532 52.8944 96.5487 52.8745 96.5382C52.8656 96.5348 52.8581 96.5288 52.8529 96.521C52.8476 96.5132 52.845 96.504 52.8454 96.4947V96.4422C52.8454 96.3072 52.784 96.1887 52.6629 96.0852C52.5418 95.9817 52.3777 95.9292 52.1738 95.9292C52.0205 95.9292 51.9009 95.9607 51.815 96.0207C51.7291 96.0822 51.6862 96.1692 51.6862 96.2802C51.6862 96.3642 51.7138 96.4347 51.769 96.4902C51.8242 96.5457 51.9101 96.5982 52.0251 96.6462C52.1401 96.6942 52.3179 96.7572 52.5586 96.8337C52.8331 96.9252 53.0478 97.0062 53.2011 97.0752C53.3544 97.1442 53.4986 97.2567 53.6335 97.4127C53.7684 97.5687 53.8374 97.7727 53.8374 98.0262C53.8374 98.2797 53.773 98.4807 53.6427 98.6622C53.5139 98.8452 53.3299 98.9862 53.0953 99.0852C52.8592 99.1857 52.5893 99.2352 52.2826 99.2352C51.976 99.2352 51.6923 99.1842 51.4547 99.0822L51.4501 99.0867ZM57.453 95.1897C57.4729 95.2092 57.4821 95.2332 57.4821 95.2647V95.8812C57.4821 95.9127 57.4729 95.9367 57.453 95.9562C57.433 95.9757 57.4085 95.9847 57.3763 95.9847H56.3934C56.3658 95.9847 56.352 95.9982 56.352 96.0252V99.0897C56.352 99.1212 56.3428 99.1452 56.3229 99.1647C56.303 99.1842 56.2784 99.1932 56.2462 99.1932H55.4811C55.4489 99.1932 55.4244 99.1842 55.4045 99.1647C55.3945 99.1549 55.3868 99.1431 55.3818 99.1302C55.3768 99.1173 55.3746 99.1035 55.3753 99.0897V96.0252C55.3753 95.9982 55.3615 95.9847 55.3339 95.9847H54.3863C54.3541 95.9847 54.3296 95.9757 54.3097 95.9562C54.2998 95.9464 54.2921 95.9346 54.287 95.9217C54.282 95.9088 54.2798 95.895 54.2805 95.8812V95.2647C54.2805 95.2347 54.2897 95.2092 54.3097 95.1897C54.3296 95.1702 54.3541 95.1612 54.3863 95.1612H57.3778C57.41 95.1612 57.4346 95.1702 57.4545 95.1897H57.453ZM60.0228 99.0867C59.7851 98.9847 59.6011 98.8392 59.4723 98.6487C59.3435 98.4582 59.2776 98.2392 59.2776 97.9887V97.9137C59.2776 97.8837 59.2868 97.8582 59.3067 97.8387C59.3267 97.8192 59.3512 97.8102 59.3834 97.8102H60.1316C60.1638 97.8102 60.1884 97.8177 60.2083 97.8297C60.2282 97.8432 60.2374 97.8597 60.2374 97.8792V97.9482C60.2374 98.0712 60.3018 98.1807 60.4291 98.2767C60.5564 98.3727 60.7204 98.4207 60.9213 98.4207C61.0946 98.4207 61.2218 98.3847 61.3046 98.3112C61.3874 98.2377 61.4288 98.1537 61.4288 98.0577C61.4288 97.9497 61.3813 97.8672 61.2847 97.8102C61.1881 97.7532 61.0164 97.6857 60.7695 97.6092L60.6407 97.5687C60.3892 97.4877 60.17 97.4007 59.9814 97.3062C59.7928 97.2117 59.6318 97.0812 59.4984 96.9147C59.365 96.7482 59.2975 96.5412 59.2975 96.2952C59.2975 96.0492 59.3619 95.8482 59.4892 95.6697C59.6165 95.4912 59.7928 95.3532 60.0197 95.2572C60.2451 95.1612 60.5012 95.1132 60.7879 95.1132C61.09 95.1132 61.3614 95.1672 61.6036 95.2752C61.8443 95.3832 62.0345 95.5347 62.1725 95.7297C62.3105 95.9262 62.3779 96.1497 62.3779 96.4032V96.4497C62.3779 96.4812 62.3687 96.5052 62.3488 96.5247C62.3289 96.5442 62.3043 96.5532 62.2721 96.5532H61.5239C61.4917 96.5532 61.4672 96.5487 61.4472 96.5382C61.4384 96.5348 61.4308 96.5288 61.4256 96.521C61.4204 96.5132 61.4177 96.504 61.4181 96.4947V96.4422C61.4181 96.3072 61.3568 96.1887 61.2356 96.0852C61.1145 95.9817 60.9504 95.9292 60.7465 95.9292C60.5932 95.9292 60.4736 95.9607 60.3877 96.0207C60.3018 96.0822 60.2589 96.1692 60.2589 96.2802C60.2589 96.3642 60.2865 96.4347 60.3417 96.4902C60.3969 96.5457 60.4828 96.5982 60.5978 96.6462C60.7128 96.6942 60.8906 96.7572 61.1314 96.8337C61.4058 96.9252 61.6205 97.0062 61.7738 97.0752C61.9271 97.1442 62.0713 97.2567 62.2062 97.4127C62.3411 97.5687 62.4101 97.7727 62.4101 98.0262C62.4101 98.2797 62.3457 98.4807 62.2154 98.6622C62.0866 98.8452 61.9026 98.9862 61.668 99.0852C61.4319 99.1857 61.162 99.2352 60.8554 99.2352C60.5487 99.2352 60.265 99.1842 60.0274 99.0822L60.0228 99.0867ZM63.7257 99.0702C63.4835 98.9457 63.2964 98.7702 63.163 98.5437C63.0296 98.3172 62.9621 98.0547 62.9621 97.7547V96.6027C62.9621 96.3102 63.0296 96.0522 63.163 95.8287C63.2964 95.6052 63.4835 95.4297 63.7257 95.3052C63.9664 95.1807 64.247 95.1177 64.5644 95.1177C64.8818 95.1177 65.1624 95.1807 65.4062 95.3052C65.65 95.4297 65.8386 95.6052 65.972 95.8287C66.1054 96.0522 66.1729 96.3117 66.1729 96.6027V97.7547C66.1729 98.0547 66.1054 98.3172 65.972 98.5437C65.8386 98.7702 65.65 98.9457 65.4062 99.0702C65.1624 99.1947 64.8818 99.2577 64.5644 99.2577C64.247 99.2577 63.9664 99.1947 63.7257 99.0702ZM65.0214 98.2602C65.1364 98.1417 65.1946 97.9812 65.1946 97.7817V96.5892C65.1946 96.3927 65.1364 96.2352 65.0214 96.1137C64.9048 95.9922 64.753 95.9322 64.5644 95.9322C64.3758 95.9322 64.2302 95.9922 64.1136 96.1137C63.9971 96.2352 63.9404 96.3927 63.9404 96.5892V97.7817C63.9404 97.9812 63.9986 98.1402 64.1136 98.2602C64.2286 98.3787 64.3789 98.4387 64.5644 98.4387C64.75 98.4387 64.9048 98.3787 65.0214 98.2602ZM69.7225 95.9502C69.7025 95.9697 69.678 95.9787 69.6458 95.9787H67.8503C67.8227 95.9787 67.8089 95.9922 67.8089 96.0192V96.7047C67.8089 96.7317 67.8227 96.7452 67.8503 96.7452H68.9865C69.0187 96.7452 69.0432 96.7542 69.0632 96.7737C69.0831 96.7932 69.0923 96.8172 69.0923 96.8487V97.4532C69.0923 97.4847 69.0831 97.5087 69.0632 97.5282C69.0432 97.5477 69.0187 97.5567 68.9865 97.5567H67.8503C67.8227 97.5567 67.8089 97.5702 67.8089 97.5972V99.0897C67.8089 99.1212 67.7997 99.1452 67.7798 99.1647C67.7598 99.1842 67.7353 99.1932 67.7031 99.1932H66.938C66.9058 99.1932 66.8813 99.1842 66.8613 99.1647C66.8514 99.1549 66.8437 99.1431 66.8387 99.1302C66.8337 99.1173 66.8315 99.1035 66.8322 99.0897V95.2647C66.8322 95.2347 66.8414 95.2092 66.8613 95.1897C66.8813 95.1702 66.9058 95.1612 66.938 95.1612H69.6458C69.678 95.1612 69.7025 95.1702 69.7225 95.1897C69.7424 95.2092 69.7516 95.2332 69.7516 95.2647V95.8752C69.7516 95.9067 69.7424 95.9307 69.7225 95.9502ZM73.2797 95.1897C73.2997 95.2092 73.3089 95.2332 73.3089 95.2647V95.8812C73.3089 95.9127 73.2997 95.9367 73.2797 95.9562C73.2598 95.9757 73.2353 95.9847 73.2031 95.9847H72.2202C72.1926 95.9847 72.1788 95.9982 72.1788 96.0252V99.0897C72.1788 99.1212 72.1696 99.1452 72.1497 99.1647C72.1298 99.1842 72.1052 99.1932 72.073 99.1932H71.3079C71.2757 99.1932 71.2512 99.1842 71.2313 99.1647C71.2213 99.1549 71.2136 99.1431 71.2086 99.1302C71.2036 99.1173 71.2014 99.1035 71.2021 99.0897V96.0252C71.2021 95.9982 71.1883 95.9847 71.1607 95.9847H70.2131C70.1809 95.9847 70.1564 95.9757 70.1365 95.9562C70.1266 95.9464 70.1188 95.9346 70.1138 95.9217C70.1088 95.9088 70.1066 95.895 70.1073 95.8812V95.2647C70.1073 95.2347 70.1165 95.2092 70.1365 95.1897C70.1564 95.1702 70.1809 95.1612 70.2131 95.1612H73.2046C73.2368 95.1612 73.2613 95.1702 73.2813 95.1897H73.2797ZM74.6919 99.1077L73.614 95.2767C73.6091 95.2659 73.6069 95.254 73.6079 95.2422C73.6079 95.1882 73.6385 95.1612 73.7014 95.1612H74.5263C74.5585 95.1612 74.5846 95.1702 74.6061 95.1867C74.6275 95.2032 74.6398 95.2257 74.6444 95.2527L75.1396 97.2867C75.1473 97.3017 75.1565 97.3092 75.1657 97.3092C75.1749 97.3092 75.1826 97.3017 75.1857 97.2867L75.6625 95.2527C75.6748 95.1912 75.7131 95.1612 75.7806 95.1612H76.4813C76.5442 95.1612 76.584 95.1927 76.5994 95.2527L77.1176 97.2867C77.1253 97.3017 77.1345 97.3092 77.1437 97.3092C77.1529 97.3092 77.1605 97.3017 77.1636 97.2867L77.6236 95.2527C77.6272 95.2267 77.641 95.2031 77.6619 95.1867C77.6834 95.1687 77.7095 95.1612 77.7417 95.1612H78.5421C78.5773 95.1612 78.6034 95.1702 78.6218 95.1897C78.6402 95.2092 78.6448 95.2377 78.6371 95.2767L77.6589 99.1017C77.6435 99.1632 77.6037 99.1932 77.5408 99.1932H76.7573C76.7251 99.1932 76.699 99.1842 76.6776 99.1677C76.6569 99.1511 76.6432 99.1276 76.6392 99.1017L76.144 96.9417C76.1394 96.9222 76.1317 96.9132 76.121 96.9132C76.1102 96.9132 76.101 96.9222 76.098 96.9417L75.6502 99.1017C75.638 99.1632 75.6012 99.1932 75.5383 99.1932H74.8085C74.7456 99.1932 74.7057 99.1647 74.6904 99.1062L74.6919 99.1077ZM81.0935 99.1077L80.9585 98.6352C80.9539 98.6127 80.9386 98.6007 80.911 98.6007H79.5801C79.5571 98.6007 79.5402 98.6127 79.5326 98.6352L79.3976 99.1077C79.3823 99.1647 79.3424 99.1947 79.2796 99.1947H78.4501C78.4102 99.1947 78.3826 99.1842 78.3673 99.1632C78.3519 99.1422 78.3489 99.1137 78.3611 99.0792L79.597 95.2482C79.6169 95.1912 79.6583 95.1612 79.7212 95.1612H80.7638C80.8313 95.1612 80.8712 95.1897 80.888 95.2482L82.13 99.0792C82.1346 99.0867 82.1361 99.1002 82.1361 99.1197C82.1361 99.1692 82.1039 99.1947 82.0426 99.1947H81.2115C81.1487 99.1947 81.1088 99.1662 81.0935 99.1077ZM79.7748 97.8282C79.7748 97.8507 79.7871 97.8627 79.8101 97.8627H80.681C80.6964 97.8627 80.7071 97.8582 80.7132 97.8477C80.7194 97.8387 80.7194 97.8282 80.7163 97.8162L80.2686 96.2847C80.264 96.2652 80.2578 96.2562 80.2486 96.2562C80.2394 96.2562 80.2302 96.2652 80.2226 96.2847L79.7748 97.8162V97.8282ZM84.8378 99.1122L84.154 97.6152C84.1463 97.5957 84.131 97.5867 84.1064 97.5867H83.7415C83.7139 97.5867 83.7001 97.6002 83.7001 97.6272V99.0897C83.7001 99.1212 83.6909 99.1452 83.671 99.1647C83.651 99.1842 83.6265 99.1932 83.5943 99.1932H82.8292C82.797 99.1932 82.7725 99.1842 82.7525 99.1647C82.7426 99.1549 82.7349 99.1431 82.7299 99.1302C82.7249 99.1173 82.7227 99.1035 82.7234 99.0897V95.2647C82.7234 95.2347 82.7326 95.2092 82.7525 95.1897C82.7725 95.1702 82.797 95.1612 82.8292 95.1612H84.5419C84.801 95.1612 85.0279 95.2137 85.2242 95.3172C85.4205 95.4207 85.5723 95.5677 85.6811 95.7582C85.7885 95.9487 85.8437 96.1662 85.8437 96.4122C85.8437 96.6582 85.7793 96.8862 85.652 97.0752C85.5247 97.2627 85.3469 97.3992 85.1184 97.4847C85.0908 97.4967 85.0831 97.5162 85.0954 97.5417L85.8498 99.0732L85.8621 99.1197C85.8621 99.1692 85.8299 99.1947 85.7685 99.1947H84.962C84.9037 99.1947 84.8623 99.1677 84.8378 99.1137V99.1122ZM83.7016 96.0192V96.8142C83.7016 96.8412 83.7154 96.8547 83.743 96.8547H84.3855C84.5312 96.8547 84.6477 96.8157 84.7382 96.7362C84.8286 96.6582 84.8731 96.5532 84.8731 96.4227C84.8731 96.2922 84.8286 96.1812 84.7382 96.1002C84.6477 96.0192 84.5296 95.9787 84.3855 95.9787H83.743C83.7154 95.9787 83.7016 95.9922 83.7016 96.0192ZM89.3825 95.9502C89.3626 95.9697 89.3381 95.9787 89.3059 95.9787H87.5042C87.4766 95.9787 87.4628 95.9922 87.4628 96.0192V96.7047C87.4628 96.7317 87.4766 96.7452 87.5042 96.7452H88.6404C88.6726 96.7452 88.6972 96.7542 88.7171 96.7737C88.737 96.7932 88.7462 96.8172 88.7462 96.8487V97.4532C88.7462 97.4847 88.737 97.5087 88.7171 97.5282C88.6972 97.5477 88.6726 97.5567 88.6404 97.5567H87.5042C87.4766 97.5567 87.4628 97.5702 87.4628 97.5972V98.3352C87.4628 98.3622 87.4766 98.3757 87.5042 98.3757H89.3059C89.3365 98.3757 89.3626 98.3847 89.3825 98.4042C89.4025 98.4237 89.4117 98.4477 89.4117 98.4792V99.0897C89.4117 99.1212 89.4025 99.1452 89.3825 99.1647C89.3626 99.1842 89.3381 99.1932 89.3059 99.1932H86.5919C86.5597 99.1932 86.5352 99.1842 86.5153 99.1647C86.5053 99.1549 86.4976 99.1431 86.4926 99.1302C86.4876 99.1173 86.4854 99.1035 86.4861 99.0897V95.2647C86.4861 95.2347 86.4953 95.2092 86.5153 95.1897C86.5352 95.1702 86.5597 95.1612 86.5919 95.1612H89.3059C89.3365 95.1612 89.3626 95.1702 89.3825 95.1897C89.4025 95.2092 89.4117 95.2332 89.4117 95.2647V95.8752C89.4117 95.9067 89.4025 95.9307 89.3825 95.9502ZM93.9579 99.1077L93.823 98.6352C93.8184 98.6127 93.8031 98.6007 93.7755 98.6007H92.4446C92.4216 98.6007 92.4047 98.6127 92.397 98.6352L92.2621 99.1077C92.2468 99.1647 92.2069 99.1947 92.144 99.1947H91.3145C91.2746 99.1947 91.247 99.1842 91.2317 99.1632C91.2164 99.1422 91.2133 99.1137 91.2256 99.0792L92.4614 95.2482C92.4814 95.1912 92.5227 95.1612 92.5856 95.1612H93.6283C93.6957 95.1612 93.7356 95.1897 93.7525 95.2482L94.9944 99.0792C94.999 99.0867 95.0006 99.1002 95.0006 99.1197C95.0006 99.1692 94.9684 99.1947 94.907 99.1947H94.076C94.0131 99.1947 93.9733 99.1662 93.9579 99.1077ZM92.6393 97.8282C92.6393 97.8507 92.6515 97.8627 92.6745 97.8627H93.5455C93.5608 97.8627 93.5715 97.8582 93.5777 97.8477C93.5838 97.8387 93.5838 97.8282 93.5807 97.8162L93.133 96.2847C93.1284 96.2652 93.1223 96.2562 93.1131 96.2562C93.1039 96.2562 93.0947 96.2652 93.087 96.2847L92.6393 97.8162V97.8282ZM95.6415 99.1077L94.5636 95.2767C94.5586 95.2659 94.5565 95.254 94.5574 95.2422C94.5574 95.1882 94.5881 95.1612 94.651 95.1612H95.4759C95.5081 95.1612 95.5342 95.1702 95.5556 95.1867C95.5771 95.2032 95.5894 95.2257 95.594 95.2527L96.0892 97.2867C96.0969 97.3017 96.1061 97.3092 96.1153 97.3092C96.1245 97.3092 96.1322 97.3017 96.1352 97.2867L96.6121 95.2527C96.6243 95.1912 96.6627 95.1612 96.7301 95.1612H97.4309C97.4937 95.1612 97.5336 95.1927 97.5489 95.2527L98.0672 97.2867C98.0749 97.3017 98.0841 97.3092 98.0933 97.3092C98.1025 97.3092 98.1101 97.3017 98.1132 97.2867L98.5732 95.2527C98.5768 95.2267 98.5905 95.2031 98.6115 95.1867C98.633 95.1687 98.659 95.1612 98.6912 95.1612H99.4916C99.5269 95.1612 99.553 95.1702 99.5714 95.1897C99.5898 95.2092 99.5944 95.2377 99.5867 95.2767L98.6084 99.1017C98.5931 99.1632 98.5532 99.1932 98.4904 99.1932H97.7069C97.6747 99.1932 97.6486 99.1842 97.6271 99.1677C97.6064 99.1511 97.5928 99.1276 97.5888 99.1017L97.0935 96.9417C97.0889 96.9222 97.0813 96.9132 97.0705 96.9132C97.0598 96.9132 97.0506 96.9222 97.0475 96.9417L96.5998 99.1017C96.5875 99.1632 96.5507 99.1932 96.4879 99.1932H95.758C95.6952 99.1932 95.6553 99.1647 95.64 99.1062L95.6415 99.1077ZM102.042 99.1077L101.907 98.6352C101.902 98.6127 101.887 98.6007 101.859 98.6007H100.528C100.505 98.6007 100.488 98.6127 100.481 98.6352L100.346 99.1077C100.33 99.1647 100.29 99.1947 100.228 99.1947H99.3981C99.3582 99.1947 99.3306 99.1842 99.3153 99.1632C99.3 99.1422 99.2969 99.1137 99.3092 99.0792L100.545 95.2482C100.565 95.1912 100.606 95.1612 100.669 95.1612H101.712C101.779 95.1612 101.819 95.1897 101.836 95.2482L103.078 99.0792C103.083 99.0867 103.084 99.1002 103.084 99.1197C103.084 99.1692 103.052 99.1947 102.991 99.1947H102.16C102.097 99.1947 102.057 99.1662 102.042 99.1077ZM100.723 97.8282C100.723 97.8507 100.735 97.8627 100.758 97.8627H101.629C101.644 97.8627 101.655 97.8582 101.661 97.8477C101.667 97.8387 101.667 97.8282 101.664 97.8162L101.217 96.2847C101.212 96.2652 101.206 96.2562 101.197 96.2562C101.187 96.2562 101.178 96.2652 101.171 96.2847L100.723 97.8162V97.8282ZM105.787 99.1122L105.104 97.6152C105.096 97.5957 105.081 97.5867 105.056 97.5867H104.691C104.663 97.5867 104.65 97.6002 104.65 97.6272V99.0897C104.65 99.1212 104.64 99.1452 104.621 99.1647C104.601 99.1842 104.576 99.1932 104.544 99.1932H103.779C103.747 99.1932 103.722 99.1842 103.702 99.1647C103.692 99.1549 103.684 99.1431 103.679 99.1302C103.674 99.1173 103.672 99.1035 103.673 99.0897V95.2647C103.673 95.2347 103.682 95.2092 103.702 95.1897C103.722 95.1702 103.747 95.1612 103.779 95.1612H105.491C105.751 95.1612 105.978 95.2137 106.174 95.3172C106.37 95.4207 106.522 95.5677 106.631 95.7582C106.738 95.9487 106.793 96.1662 106.793 96.4122C106.793 96.6582 106.729 96.8862 106.602 97.0752C106.474 97.2627 106.296 97.3992 106.068 97.4847C106.04 97.4967 106.033 97.5162 106.045 97.5417L106.799 99.0732L106.812 99.1197C106.812 99.1692 106.779 99.1947 106.718 99.1947H105.912C105.853 99.1947 105.812 99.1677 105.787 99.1137V99.1122ZM104.651 96.0192V96.8142C104.651 96.8412 104.665 96.8547 104.693 96.8547H105.335C105.481 96.8547 105.597 96.8157 105.688 96.7362C105.778 96.6582 105.823 96.5532 105.823 96.4227C105.823 96.2922 105.778 96.1812 105.688 96.1002C105.597 96.0192 105.479 95.9787 105.335 95.9787H104.693C104.665 95.9787 104.651 95.9922 104.651 96.0192ZM107.465 99.1647C107.455 99.1549 107.447 99.1431 107.442 99.1302C107.437 99.1173 107.435 99.1035 107.436 99.0897V95.2647C107.436 95.2347 107.445 95.2092 107.465 95.1897C107.485 95.1702 107.509 95.1612 107.541 95.1612H109.007C109.314 95.1612 109.584 95.2137 109.82 95.3172C110.056 95.4207 110.239 95.5692 110.367 95.7612C110.496 95.9532 110.562 96.1737 110.562 96.4242V97.9332C110.562 98.1822 110.498 98.4042 110.367 98.5962C110.239 98.7882 110.055 98.9367 109.82 99.0402C109.584 99.1437 109.314 99.1962 109.007 99.1962H107.541C107.509 99.1962 107.485 99.1872 107.465 99.1677V99.1647ZM108.454 98.3757H109.049C109.205 98.3757 109.334 98.3217 109.432 98.2122C109.53 98.1027 109.581 97.9557 109.585 97.7712V96.5847C109.585 96.4002 109.535 96.2532 109.435 96.1437C109.335 96.0342 109.205 95.9802 109.044 95.9802H108.455C108.428 95.9802 108.414 95.9937 108.414 96.0207V98.3367C108.414 98.3637 108.428 98.3772 108.455 98.3772L108.454 98.3757ZM111.867 99.0867C111.629 98.9847 111.445 98.8392 111.316 98.6487C111.188 98.4582 111.122 98.2392 111.122 97.9887V97.9137C111.122 97.8837 111.131 97.8582 111.151 97.8387C111.171 97.8192 111.195 97.8102 111.228 97.8102H111.976C112.008 97.8102 112.033 97.8177 112.052 97.8297C112.072 97.8432 112.082 97.8597 112.082 97.8792V97.9482C112.082 98.0712 112.146 98.1807 112.273 98.2767C112.401 98.3727 112.565 98.4207 112.765 98.4207C112.939 98.4207 113.066 98.3847 113.149 98.3112C113.232 98.2377 113.273 98.1537 113.273 98.0577C113.273 97.9497 113.225 97.8672 113.129 97.8102C113.032 97.7532 112.861 97.6857 112.614 97.6092L112.485 97.5687C112.233 97.4877 112.014 97.4007 111.826 97.3062C111.637 97.2117 111.476 97.0812 111.343 96.9147C111.209 96.7482 111.142 96.5412 111.142 96.2952C111.142 96.0492 111.206 95.8482 111.333 95.6697C111.461 95.4912 111.637 95.3532 111.864 95.2572C112.089 95.1612 112.345 95.1132 112.632 95.1132C112.934 95.1132 113.206 95.1672 113.448 95.2752C113.689 95.3832 113.879 95.5347 114.017 95.7297C114.155 95.9262 114.222 96.1497 114.222 96.4032V96.4497C114.222 96.4812 114.213 96.5052 114.193 96.5247C114.173 96.5442 114.149 96.5532 114.116 96.5532H113.368C113.336 96.5532 113.311 96.5487 113.291 96.5382C113.283 96.5348 113.275 96.5288 113.27 96.521C113.265 96.5132 113.262 96.504 113.262 96.4947V96.4422C113.262 96.3072 113.201 96.1887 113.08 96.0852C112.959 95.9817 112.795 95.9292 112.591 95.9292C112.437 95.9292 112.318 95.9607 112.232 96.0207C112.146 96.0822 112.103 96.1692 112.103 96.2802C112.103 96.3642 112.131 96.4347 112.186 96.4902C112.241 96.5457 112.327 96.5982 112.442 96.6462C112.557 96.6942 112.735 96.7572 112.976 96.8337C113.25 96.9252 113.465 97.0062 113.618 97.0752C113.771 97.1442 113.915 97.2567 114.05 97.4127C114.185 97.5687 114.254 97.7727 114.254 98.0262C114.254 98.2797 114.19 98.4807 114.06 98.6622C113.931 98.8452 113.747 98.9862 113.512 99.0852C113.276 99.1857 113.006 99.2352 112.7 99.2352C112.393 99.2352 112.109 99.1842 111.872 99.0822L111.867 99.0867ZM60.1316 48.2367C60.2006 48.3042 60.2344 48.3912 60.2344 48.4992V50.6562C60.2344 50.7642 60.2006 50.8512 60.1316 50.9187C60.0626 50.9862 59.9737 51.0192 59.8633 51.0192H56.421C56.3244 51.0192 56.2769 51.0657 56.2769 51.1602V61.8852C56.2769 61.9932 56.2432 62.0802 56.1742 62.1477C56.1052 62.2152 56.0163 62.2482 55.9059 62.2482H53.2272C53.1168 62.2482 53.0278 62.2152 52.9588 62.1477C52.8898 62.0802 52.8561 61.9932 52.8561 61.8852V51.1602C52.8561 51.0657 52.807 51.0192 52.712 51.0192H49.3939C49.2835 51.0192 49.1946 50.9862 49.1256 50.9187C49.0566 50.8512 49.0228 50.7642 49.0228 50.6562V48.4992C49.0228 48.3912 49.0566 48.3042 49.1256 48.2367C49.1946 48.1692 49.2835 48.1362 49.3939 48.1362H59.8633C59.9737 48.1362 60.0626 48.1692 60.1316 48.2367ZM61.4825 61.4427C60.6238 60.7977 60.0427 59.9247 59.7407 58.8222C59.5751 58.2717 59.4938 57.6657 59.4938 57.0072C59.4938 56.3487 59.5827 55.6842 59.7621 55.0512C60.078 53.9892 60.6652 53.1597 61.5239 52.5612C62.3825 51.9627 63.4237 51.6642 64.6457 51.6642C65.8677 51.6642 66.8782 51.9642 67.7169 52.5612C68.5541 53.1597 69.1383 53.9832 69.4679 55.0302C69.6596 55.6347 69.7562 56.2797 69.7562 56.9652C69.7562 57.5832 69.6811 58.1742 69.5293 58.7397C69.241 59.8692 68.663 60.7632 67.7982 61.4217C66.9319 62.0802 65.8739 62.4102 64.6242 62.4102C63.3746 62.4102 62.3396 62.0877 61.481 61.4427H61.4825ZM65.6255 59.1747C65.8938 58.9257 66.0824 58.5867 66.1928 58.1562C66.2756 57.8067 66.317 57.4242 66.317 57.0072C66.317 56.5902 66.2679 56.2137 66.1729 55.8372C66.0625 55.4202 65.8769 55.0977 65.6163 54.8697C65.3556 54.6417 65.026 54.5277 64.6273 54.5277C64.2286 54.5277 63.8821 54.6417 63.6276 54.8697C63.3731 55.0977 63.1906 55.4217 63.0817 55.8372C62.9851 56.1327 62.9376 56.5227 62.9376 57.0072C62.9376 57.4242 62.979 57.8067 63.0618 58.1562C63.186 58.5867 63.3777 58.9257 63.6383 59.1747C63.899 59.4237 64.2286 59.5482 64.6273 59.5482C65.026 59.5482 65.3587 59.4237 65.627 59.1747H65.6255ZM81.5857 57.0882C81.5857 58.0422 81.4415 58.8897 81.1533 59.6292C80.8374 60.4632 80.3253 61.1382 79.6184 61.6557C78.9101 62.1732 78.1173 62.4312 77.2387 62.4312C76.1946 62.4312 75.411 62.1222 74.8897 61.5042C74.8483 61.4502 74.81 61.4307 74.7763 61.4442C74.7425 61.4577 74.7241 61.4982 74.7241 61.5657V65.5782C74.7241 65.6862 74.6904 65.7732 74.6214 65.8407C74.5524 65.9082 74.4635 65.9412 74.3531 65.9412H71.6744C71.564 65.9412 71.475 65.9082 71.406 65.8407C71.337 65.7732 71.3033 65.6862 71.3033 65.5782V52.1922C71.3033 52.0842 71.337 51.9972 71.406 51.9297C71.475 51.8622 71.564 51.8292 71.6744 51.8292H74.3531C74.4635 51.8292 74.5524 51.8622 74.6214 51.9297C74.6904 51.9972 74.7241 52.0842 74.7241 52.1922V52.6767C74.7241 52.7442 74.741 52.7847 74.7763 52.7982C74.81 52.8117 74.8483 52.7922 74.8897 52.7382C75.411 52.0257 76.1946 51.6702 77.2387 51.6702C78.1311 51.6702 78.9561 51.9597 79.712 52.5372C80.4679 53.1147 80.9831 53.8617 81.2575 54.7752C81.4768 55.4337 81.5872 56.2062 81.5872 57.0942L81.5857 57.0882ZM77.918 57.0282C77.918 56.3427 77.8015 55.7847 77.5669 55.3542C77.2786 54.8577 76.8585 54.6087 76.3096 54.6087C75.7606 54.6087 75.3819 54.8637 75.0937 55.3752C74.8606 55.8057 74.7441 56.3562 74.7441 57.0282C74.7441 57.7677 74.8683 58.3587 75.1151 58.8027C75.4034 59.2602 75.802 59.4882 76.3111 59.4882C76.8462 59.4882 77.2587 59.2527 77.5469 58.7832C77.7938 58.3392 77.918 57.7557 77.918 57.0297V57.0282ZM96.8359 57.6732C96.8359 58.3452 96.7117 58.9902 96.4649 59.6082C96.1076 60.4422 95.5127 61.1097 94.6816 61.6137C93.8506 62.1177 92.8923 62.3697 91.8067 62.3697C90.7211 62.3697 89.7659 62.1252 88.9425 61.6332C88.1176 61.1427 87.5211 60.4737 87.15 59.6277C86.9982 59.2647 86.8955 58.9017 86.8403 58.5387V58.4577C86.8403 58.2567 86.9568 58.1547 87.1899 58.1547H89.9729C90.1645 58.1547 90.3025 58.2417 90.3853 58.4172C90.3991 58.4847 90.4405 58.5717 90.5095 58.6797C90.6199 58.9482 90.787 59.1537 91.014 59.2947C91.2409 59.4357 91.5046 59.5062 91.8067 59.5062C92.1088 59.5062 92.3526 59.4327 92.5795 59.2842C92.8019 59.1411 92.9772 58.9378 93.0839 58.6992C93.2495 58.4172 93.3308 58.0947 93.3308 57.7317C93.3584 57.3822 93.2894 57.0402 93.1253 56.7042C93.0287 56.4627 92.8677 56.2707 92.6408 56.1297C92.4139 55.9887 92.1364 55.9182 91.8067 55.9182C91.2424 55.9182 90.8177 56.1072 90.5294 56.4822C90.4605 56.5632 90.3961 56.6232 90.3332 56.6637C90.2703 56.7042 90.1921 56.7237 90.0955 56.7237H87.2098C87.0994 56.7237 87.0105 56.6907 86.9415 56.6232C86.8725 56.5557 86.8388 56.4687 86.8388 56.3607V48.4977C86.8388 48.3897 86.8725 48.3027 86.9415 48.2352C87.0105 48.1677 87.0994 48.1347 87.2098 48.1347H95.9896C96.1 48.1347 96.1889 48.1677 96.2579 48.2352C96.3269 48.3027 96.3606 48.3897 96.3606 48.4977V50.6352C96.3606 50.7432 96.3269 50.8302 96.2579 50.8977C96.1889 50.9652 96.1 50.9982 95.9896 50.9982H90.4053C90.3087 50.9982 90.2611 51.0462 90.2611 51.1392V53.3967C90.2611 53.4507 90.2749 53.4867 90.3025 53.5077C90.3301 53.5272 90.3715 53.5242 90.4267 53.4972C91.0032 53.1882 91.6288 53.0337 92.302 53.0337C93.2771 53.0337 94.1358 53.2752 94.8779 53.7597C95.62 54.2442 96.1552 54.9027 96.4848 55.7352C96.7179 56.3802 96.8344 57.0252 96.8344 57.6702L96.8359 57.6732ZM99.5146 61.1907C98.6084 60.3237 98.1546 59.1447 98.1546 57.6522V52.7337C98.1546 51.2547 98.6084 50.0922 99.5146 49.2462C100.421 48.3987 101.664 47.9757 103.245 47.9757C104.826 47.9757 106.076 48.4032 106.996 49.2552C107.916 50.1087 108.377 51.2682 108.377 52.7337V57.6522C108.377 59.1447 107.917 60.3237 106.996 61.1907C106.076 62.0577 104.824 62.4912 103.245 62.4912C101.666 62.4912 100.422 62.0577 99.5146 61.1907ZM104.492 59.1342C104.801 58.8192 104.955 58.3857 104.955 57.8337V52.6122C104.955 52.0617 104.8 51.6282 104.492 51.3117C104.182 50.9967 103.766 50.8377 103.245 50.8377C102.724 50.8377 102.331 50.9952 102.029 51.3117C101.727 51.6282 101.575 52.0617 101.575 52.6122V57.8337C101.575 58.3842 101.723 58.8177 102.019 59.1342C102.314 59.4507 102.722 59.6082 103.245 59.6082C103.768 59.6082 104.184 59.4507 104.492 59.1342Z" fill="#252530"/>
<path d="M36.1337 81.7424C35.7948 81.5714 35.5326 81.3299 35.3486 81.0209C35.1646 80.7119 35.0726 80.3534 35.0726 79.9484V77.9984C35.0726 77.5934 35.1646 77.2364 35.3486 76.9259C35.5326 76.6169 35.7948 76.3769 36.1337 76.2089C36.4725 76.0394 36.8666 75.9554 37.3159 75.9554C37.7651 75.9554 38.1484 76.0349 38.4858 76.1954C38.8231 76.3559 39.0838 76.5839 39.2708 76.8794C39.4579 77.1749 39.5514 77.5169 39.5514 77.9054C39.5514 77.9564 39.5177 77.9864 39.4487 77.9984L38.4382 78.0569H38.4214C38.3631 78.0569 38.3355 78.0254 38.3355 77.9639C38.3355 77.6654 38.242 77.4269 38.0549 77.2469C37.8678 77.0669 37.6225 76.9769 37.3174 76.9769C37.0123 76.9769 36.7577 77.0669 36.5707 77.2469C36.3836 77.4269 36.2901 77.6669 36.2901 77.9639V79.9979C36.2901 80.2904 36.3836 80.5274 36.5707 80.7074C36.7577 80.8874 37.0061 80.9774 37.3174 80.9774C37.6287 80.9774 37.8678 80.8874 38.0549 80.7074C38.242 80.5274 38.3355 80.2904 38.3355 79.9979C38.3355 79.9364 38.3708 79.9049 38.4398 79.9049L39.4502 79.9469C39.4794 79.9469 39.5039 79.9559 39.5238 79.9724C39.5438 79.9889 39.5545 80.0084 39.5545 80.0309C39.5545 80.4194 39.461 80.7629 39.2739 81.0614C39.0868 81.3599 38.8246 81.5909 38.4888 81.7544C38.153 81.9179 37.7621 81.9989 37.3189 81.9989C36.8758 81.9989 36.4756 81.9134 36.1367 81.7409L36.1337 81.7424ZM41.0694 81.6284C40.7244 81.3809 40.4883 81.0434 40.3625 80.6159C40.2813 80.3519 40.2414 80.0639 40.2414 79.7549C40.2414 79.4234 40.2813 79.1249 40.3625 78.8594C40.4944 78.4424 40.7336 78.1169 41.0786 77.8799C41.4236 77.6429 41.8376 77.5259 42.3206 77.5259C42.8036 77.5259 43.1946 77.6429 43.5288 77.8769C43.8631 78.1109 44.0977 78.4349 44.2357 78.8519C44.3277 79.1339 44.3737 79.4294 44.3737 79.7384C44.3737 80.0474 44.3338 80.3264 44.2525 80.5904C44.1253 81.0299 43.8922 81.3749 43.5488 81.6239C43.2068 81.8744 42.7928 81.9989 42.3098 81.9989C41.8268 81.9989 41.4129 81.8759 41.0663 81.6269L41.0694 81.6284ZM42.7959 80.8094C42.9278 80.6969 43.0228 80.5424 43.0811 80.3444C43.1271 80.1644 43.1501 79.9679 43.1501 79.7534C43.1501 79.5164 43.1271 79.3169 43.0811 79.1534C43.0182 78.9614 42.9201 78.8129 42.7882 78.7064C42.6564 78.5999 42.4954 78.5459 42.3052 78.5459C42.1151 78.5459 41.9464 78.5999 41.8176 78.7064C41.6888 78.8129 41.5953 78.9629 41.5371 79.1534C41.4911 79.2884 41.4681 79.4879 41.4681 79.7534C41.4681 80.0189 41.488 80.2034 41.5279 80.3444C41.5846 80.5409 41.6812 80.6969 41.8176 80.8094C41.9526 80.9219 42.1182 80.9789 42.3144 80.9789C42.5107 80.9789 42.6656 80.9234 42.7974 80.8094H42.7959ZM45.1909 81.9029C45.1811 81.8936 45.1733 81.8824 45.168 81.87C45.1627 81.8576 45.1601 81.8443 45.1603 81.8309V76.1234C45.1603 76.0949 45.171 76.0709 45.1909 76.0514C45.2109 76.0319 45.2354 76.0214 45.2645 76.0214H46.275C46.3041 76.0214 46.3286 76.0319 46.3486 76.0514C46.3685 76.0709 46.3792 76.0949 46.3792 76.1234V81.8309C46.3792 81.8594 46.3685 81.8834 46.3486 81.9029C46.3286 81.9224 46.3041 81.9329 46.275 81.9329H45.2645C45.2354 81.9329 45.2109 81.9224 45.1909 81.9029ZM47.2962 81.9029C47.2863 81.8936 47.2785 81.8824 47.2732 81.87C47.268 81.8576 47.2653 81.8443 47.2655 81.8309V76.1234C47.2655 76.0949 47.2762 76.0709 47.2962 76.0514C47.3161 76.0319 47.3406 76.0214 47.3698 76.0214H48.3802C48.4093 76.0214 48.4339 76.0319 48.4538 76.0514C48.4737 76.0709 48.4845 76.0949 48.4845 76.1234V81.8309C48.4845 81.8594 48.4737 81.8834 48.4538 81.9029C48.4339 81.9224 48.4093 81.9329 48.3802 81.9329H47.3698C47.3406 81.9329 47.3161 81.9224 47.2962 81.9029ZM52.1414 77.7164C52.4343 77.8424 52.6643 78.0164 52.8268 78.2354C52.9882 78.4477 53.0743 78.7058 53.0721 78.9704V81.8324C53.0721 81.8609 53.0614 81.8849 53.0415 81.9044C53.0215 81.9239 52.997 81.9344 52.9679 81.9344H51.9574C51.9283 81.9344 51.9037 81.9239 51.8838 81.9044C51.874 81.8951 51.8662 81.8839 51.8609 81.8715C51.8556 81.8591 51.853 81.8458 51.8531 81.8324V81.5534C51.8531 81.5369 51.847 81.5249 51.8363 81.5189C51.824 81.5129 51.8133 81.5189 51.801 81.5354C51.5587 81.8444 51.1708 82.0004 50.6357 82.0004C50.1864 82.0004 49.8246 81.8939 49.5486 81.6794C49.2726 81.4649 49.1346 81.1499 49.1346 80.7344C49.1346 80.3189 49.2895 79.9649 49.6007 79.7249C49.912 79.4864 50.3551 79.3664 50.9301 79.3664H51.8102C51.8393 79.3664 51.8531 79.3529 51.8531 79.3244V79.1384C51.8531 78.9524 51.7949 78.8084 51.6799 78.7034C51.5649 78.5999 51.3916 78.5474 51.1616 78.5474C50.9838 78.5474 50.835 78.5789 50.717 78.6404C50.5989 78.7019 50.5222 78.7889 50.4885 78.9014C50.4716 78.9629 50.4333 78.9914 50.3766 78.9854L49.3324 78.8504C49.2634 78.8399 49.2312 78.8144 49.2373 78.7739C49.2603 78.5369 49.3569 78.3239 49.5271 78.1319C49.6973 77.9399 49.9212 77.7914 50.2002 77.6849C50.4793 77.5784 50.7921 77.5244 51.1371 77.5244C51.5112 77.5244 51.8455 77.5874 52.1383 77.7149L52.1414 77.7164ZM51.5971 80.9204C51.7703 80.7914 51.8562 80.6249 51.8562 80.4224V80.1179C51.8562 80.0894 51.8424 80.0759 51.8133 80.0759H51.1923C50.9332 80.0759 50.7308 80.1239 50.5836 80.2199C50.4364 80.3159 50.3643 80.4509 50.3643 80.6249C50.3643 80.7764 50.4195 80.8964 50.5284 80.9834C50.6372 81.0704 50.7844 81.1139 50.9684 81.1139C51.2153 81.1139 51.4253 81.0494 51.5986 80.9204H51.5971ZM58.0186 79.7459C58.0186 80.1344 57.9695 80.4749 57.8714 80.7674C57.7395 81.1499 57.5279 81.4514 57.2366 81.6704C56.9452 81.8894 56.6018 81.9989 56.2047 81.9989C55.7845 81.9989 55.4533 81.8444 55.2126 81.5339C55.2003 81.5219 55.1896 81.5189 55.1773 81.5219C55.1651 81.5249 55.1605 81.5339 55.1605 81.5519V81.8309C55.1605 81.8594 55.1497 81.8834 55.1298 81.9029C55.1099 81.9224 55.0853 81.9329 55.0562 81.9329H54.0458C54.0166 81.9329 53.9921 81.9224 53.9722 81.9029C53.9623 81.8936 53.9545 81.8824 53.9492 81.87C53.944 81.8576 53.9413 81.8443 53.9415 81.8309V76.1234C53.9415 76.0949 53.9522 76.0709 53.9722 76.0514C53.9921 76.0319 54.0166 76.0214 54.0458 76.0214H55.0562C55.0853 76.0214 55.1099 76.0319 55.1298 76.0514C55.1497 76.0709 55.1605 76.0949 55.1605 76.1234V77.9294C55.1605 77.9459 55.1666 77.9579 55.1773 77.9639C55.1896 77.9699 55.2003 77.9639 55.2126 77.9474C55.4365 77.6654 55.7569 77.5259 56.1709 77.5259C56.5849 77.5259 56.9437 77.6309 57.2274 77.8424C57.5126 78.0539 57.7211 78.3389 57.853 78.6989C57.9618 78.9914 58.017 79.3409 58.017 79.7459H58.0186ZM56.7582 79.7714C56.7582 79.3829 56.6892 79.0844 56.5512 78.8759C56.4132 78.6569 56.2093 78.5474 55.9379 78.5474C55.6849 78.5474 55.4917 78.6569 55.3598 78.8759C55.2325 79.0904 55.1697 79.3859 55.1697 79.7624C55.1697 80.1389 55.2264 80.4239 55.3429 80.6144C55.4809 80.8559 55.6818 80.9774 55.9471 80.9774C56.2292 80.9774 56.4393 80.8559 56.5773 80.6144C56.6984 80.3999 56.7582 80.1194 56.7582 79.7699V79.7714ZM59.5028 81.6284C59.1578 81.3809 58.9217 81.0434 58.796 80.6159C58.7147 80.3519 58.6748 80.0639 58.6748 79.7549C58.6748 79.4234 58.7147 79.1249 58.796 78.8594C58.9278 78.4424 59.167 78.1169 59.512 77.8799C59.857 77.6429 60.271 77.5259 60.754 77.5259C61.237 77.5259 61.628 77.6429 61.9622 77.8769C62.2965 78.1109 62.5311 78.4349 62.6691 78.8519C62.7611 79.1339 62.8071 79.4294 62.8071 79.7384C62.8071 80.0474 62.7672 80.3264 62.686 80.5904C62.5587 81.0299 62.3256 81.3749 61.9822 81.6239C61.6402 81.8744 61.2262 81.9989 60.7433 81.9989C60.2603 81.9989 59.8463 81.8759 59.4997 81.6269L59.5028 81.6284ZM61.2293 80.8094C61.3612 80.6969 61.4562 80.5424 61.5145 80.3444C61.5605 80.1644 61.5835 79.9679 61.5835 79.7534C61.5835 79.5164 61.5605 79.3169 61.5145 79.1534C61.4516 78.9614 61.3535 78.8129 61.2216 78.7064C61.0898 78.5999 60.9288 78.5459 60.7387 78.5459C60.5485 78.5459 60.3799 78.5999 60.2511 78.7064C60.1223 78.8129 60.0287 78.9629 59.9705 79.1534C59.9245 79.2884 59.9015 79.4879 59.9015 79.7534C59.9015 80.0189 59.9214 80.2034 59.9613 80.3444C60.018 80.5409 60.1146 80.6969 60.2511 80.8094C60.386 80.9219 60.5516 80.9789 60.7479 80.9789C60.9441 80.9789 61.099 80.9234 61.2308 80.8094H61.2293ZM66.2954 77.6534C66.3414 77.6759 66.3582 77.7179 66.3475 77.7794L66.1666 78.7424C66.1604 78.8099 66.1206 78.8294 66.0454 78.8009C65.9596 78.7724 65.8584 78.7589 65.7434 78.7589C65.6974 78.7589 65.6345 78.7649 65.5532 78.7754C65.3462 78.7919 65.1699 78.8669 65.0273 78.9989C64.8832 79.1309 64.8111 79.3064 64.8111 79.5269V81.8309C64.8111 81.8594 64.8004 81.8834 64.7804 81.9029C64.7605 81.9224 64.736 81.9329 64.7069 81.9329H63.6964C63.6673 81.9329 63.6427 81.9224 63.6228 81.9029C63.613 81.8936 63.6051 81.8824 63.5999 81.87C63.5946 81.8576 63.592 81.8443 63.5921 81.8309V77.6939C63.5921 77.6654 63.6029 77.6414 63.6228 77.6219C63.6427 77.6024 63.6673 77.5919 63.6964 77.5919H64.7069C64.736 77.5919 64.7605 77.6024 64.7804 77.6219C64.8004 77.6414 64.8111 77.6654 64.8111 77.6939V78.0149C64.8111 78.0314 64.8172 78.0434 64.828 78.0494C64.8387 78.0554 64.8479 78.0524 64.854 78.0404C65.0902 77.7029 65.406 77.5334 65.8032 77.5334C66.0102 77.5334 66.1742 77.5724 66.2954 77.6519V77.6534ZM69.6165 77.7164C69.9094 77.8424 70.1394 78.0164 70.3019 78.2354C70.4633 78.4477 70.5494 78.7058 70.5472 78.9704V81.8324C70.5472 81.8609 70.5365 81.8849 70.5165 81.9044C70.4966 81.9239 70.4721 81.9344 70.4429 81.9344H69.4325C69.4034 81.9344 69.3788 81.9239 69.3589 81.9044C69.3491 81.8951 69.3413 81.8839 69.336 81.8715C69.3307 81.8591 69.3281 81.8458 69.3282 81.8324V81.5534C69.3282 81.5369 69.3221 81.5249 69.3114 81.5189C69.2991 81.5129 69.2884 81.5189 69.2761 81.5354C69.0338 81.8444 68.6459 82.0004 68.1108 82.0004C67.6615 82.0004 67.2997 81.8939 67.0237 81.6794C66.7477 81.4649 66.6097 81.1499 66.6097 80.7344C66.6097 80.3189 66.7645 79.9649 67.0758 79.7249C67.3871 79.4864 67.8302 79.3664 68.4052 79.3664H69.2853C69.3144 79.3664 69.3282 79.3529 69.3282 79.3244V79.1384C69.3282 78.9524 69.27 78.8084 69.155 78.7034C69.04 78.5999 68.8667 78.5474 68.6367 78.5474C68.4589 78.5474 68.3101 78.5789 68.1921 78.6404C68.074 78.7019 67.9973 78.7889 67.9636 78.9014C67.9467 78.9629 67.9084 78.9914 67.8517 78.9854L66.8075 78.8504C66.7385 78.8399 66.7063 78.8144 66.7124 78.7739C66.7354 78.5369 66.832 78.3239 67.0022 78.1319C67.1724 77.9399 67.3963 77.7914 67.6753 77.6849C67.9544 77.5784 68.2672 77.5244 68.6122 77.5244C68.9863 77.5244 69.3206 77.5874 69.6134 77.7149L69.6165 77.7164ZM69.0722 80.9204C69.2454 80.7914 69.3313 80.6249 69.3313 80.4224V80.1179C69.3313 80.0894 69.3175 80.0759 69.2884 80.0759H68.6674C68.4083 80.0759 68.2059 80.1239 68.0587 80.2199C67.9115 80.3159 67.8394 80.4509 67.8394 80.6249C67.8394 80.7764 67.8946 80.8964 68.0035 80.9834C68.1123 81.0704 68.2595 81.1139 68.4435 81.1139C68.6904 81.1139 68.9004 81.0494 69.0737 80.9204H69.0722ZM73.8239 78.5174C73.804 78.5369 73.7794 78.5474 73.7503 78.5474H72.9223C72.8932 78.5474 72.8794 78.5609 72.8794 78.5894V80.3789C72.8794 80.5649 72.9177 80.7029 72.9959 80.7929C73.0741 80.8829 73.1983 80.9279 73.3716 80.9279H73.6568C73.6859 80.9279 73.7104 80.9384 73.7304 80.9579C73.7503 80.9774 73.761 81.0014 73.761 81.0299V81.8324C73.761 81.8939 73.7258 81.9314 73.6568 81.9419C73.4145 81.9539 73.2428 81.9584 73.1385 81.9584C72.6616 81.9584 72.3044 81.8804 72.0683 81.7259C71.8321 81.5714 71.711 81.2804 71.7064 80.8514V78.5894C71.7064 78.5609 71.6926 78.5474 71.6635 78.5474H71.1713C71.1421 78.5474 71.1176 78.5369 71.0977 78.5174C71.0878 78.5081 71.08 78.4969 71.0748 78.4845C71.0695 78.4721 71.0668 78.4588 71.067 78.4454V77.6939C71.067 77.6654 71.0777 77.6414 71.0977 77.6219C71.1176 77.6024 71.1421 77.5919 71.1713 77.5919H71.6635C71.6926 77.5919 71.7064 77.5784 71.7064 77.5499V76.5449C71.7064 76.5164 71.7171 76.4924 71.7371 76.4729C71.757 76.4534 71.7815 76.4429 71.8107 76.4429H72.7766C72.8058 76.4429 72.8303 76.4534 72.8502 76.4729C72.8702 76.4924 72.8809 76.5164 72.8809 76.5449V77.5499C72.8809 77.5784 72.8947 77.5919 72.9238 77.5919H73.7518C73.781 77.5919 73.8055 77.6024 73.8254 77.6219C73.8454 77.6414 73.8561 77.6654 73.8561 77.6939V78.4454C73.8561 78.4739 73.8454 78.4979 73.8254 78.5174H73.8239ZM74.7561 76.9139C74.6273 76.7879 74.5614 76.6289 74.5614 76.4369C74.5614 76.2449 74.6243 76.0799 74.7515 75.9554C74.8773 75.8324 75.0413 75.7694 75.2437 75.7694C75.4461 75.7694 75.6087 75.8309 75.7359 75.9554C75.8617 76.0799 75.9261 76.2404 75.9261 76.4369C75.9261 76.6334 75.8617 76.7879 75.7313 76.9139C75.601 77.0399 75.4385 77.1044 75.2437 77.1044C75.049 77.1044 74.8849 77.0414 74.7561 76.9139ZM74.6534 81.9029C74.6436 81.8936 74.6358 81.8824 74.6305 81.87C74.6252 81.8576 74.6226 81.8443 74.6227 81.8309V77.6864C74.6227 77.6579 74.6335 77.6339 74.6534 77.6144C74.6733 77.5949 74.6979 77.5844 74.727 77.5844H75.7375C75.7666 77.5844 75.7911 77.5949 75.8111 77.6144C75.831 77.6339 75.8417 77.6579 75.8417 77.6864V81.8309C75.8417 81.8594 75.831 81.8834 75.8111 81.9029C75.7911 81.9224 75.7666 81.9329 75.7375 81.9329H74.727C74.6979 81.9329 74.6733 81.9224 74.6534 81.9029ZM77.5054 81.6284C77.1604 81.3809 76.9242 81.0434 76.797 80.6159C76.7157 80.3519 76.6758 80.0639 76.6758 79.7549C76.6758 79.4234 76.7157 79.1249 76.797 78.8594C76.9288 78.4424 77.168 78.1169 77.513 77.8799C77.858 77.6429 78.272 77.5259 78.7565 77.5259C79.2411 77.5259 79.6305 77.6429 79.9648 77.8769C80.299 78.1109 80.5336 78.4349 80.6732 78.8519C80.7652 79.1339 80.8112 79.4294 80.8112 79.7384C80.8112 80.0474 80.7713 80.3264 80.69 80.5904C80.5628 81.0299 80.3297 81.3749 79.9863 81.6239C79.6443 81.8744 79.2303 81.9989 78.7473 81.9989C78.2643 81.9989 77.8504 81.8759 77.5054 81.6269V81.6284ZM79.2319 80.8094C79.3637 80.6969 79.4588 80.5424 79.5171 80.3444C79.5631 80.1644 79.5861 79.9679 79.5861 79.7534C79.5861 79.5164 79.5631 79.3169 79.5171 79.1534C79.4542 78.9614 79.3561 78.8129 79.2242 78.7064C79.0923 78.5999 78.9313 78.5459 78.7412 78.5459C78.5511 78.5459 78.3824 78.5999 78.2536 78.7064C78.1248 78.8129 78.0313 78.9629 77.973 79.1534C77.927 79.2884 77.904 79.4879 77.904 79.7534C77.904 80.0189 77.924 80.2034 77.9638 80.3444C78.0206 80.5409 78.1171 80.6969 78.2536 80.8094C78.3885 80.9219 78.5541 80.9789 78.7504 80.9789C78.9467 80.9789 79.1015 80.9234 79.2334 80.8094H79.2319ZM85.0216 77.9399C85.3038 78.2159 85.4448 78.5894 85.4448 79.0634V81.8324C85.4448 81.8609 85.4341 81.8849 85.4142 81.9044C85.3942 81.9239 85.3697 81.9344 85.3406 81.9344H84.3301C84.301 81.9344 84.2764 81.9239 84.2565 81.9044C84.2467 81.8951 84.2389 81.8839 84.2336 81.8715C84.2283 81.8591 84.2257 81.8458 84.2258 81.8324V79.3079C84.2258 79.0829 84.1614 78.8999 84.0311 78.7589C83.9023 78.6179 83.7306 78.5474 83.5175 78.5474C83.3043 78.5474 83.1341 78.6179 83.0038 78.7589C82.875 78.8999 82.8091 79.0829 82.8091 79.3079V81.8324C82.8091 81.8609 82.7983 81.8849 82.7784 81.9044C82.7585 81.9239 82.7339 81.9344 82.7048 81.9344H81.6944C81.6652 81.9344 81.6407 81.9239 81.6208 81.9044C81.6109 81.8951 81.6031 81.8839 81.5978 81.8715C81.5926 81.8591 81.5899 81.8458 81.5901 81.8324V77.6954C81.5901 77.6669 81.6008 77.6429 81.6208 77.6234C81.6407 77.6039 81.6652 77.5934 81.6944 77.5934H82.7048C82.7339 77.5934 82.7585 77.6039 82.7784 77.6234C82.7983 77.6429 82.8091 77.6669 82.8091 77.6954V77.9909C82.8091 78.0074 82.8152 78.0194 82.8259 78.0254C82.8367 78.0314 82.8459 78.0284 82.852 78.0164C83.0881 77.6894 83.4393 77.5274 83.9054 77.5274C84.3715 77.5274 84.7364 77.6654 85.0186 77.9414L85.0216 77.9399ZM91.6149 76.2434C91.9031 76.3949 92.1254 76.6109 92.2834 76.8899C92.4413 77.1689 92.521 77.4884 92.521 77.8484C92.521 78.2084 92.4398 78.5159 92.2757 78.7859C92.1116 79.0559 91.8816 79.2659 91.5857 79.4144C91.2898 79.5629 90.9479 79.6379 90.563 79.6379H89.3379C89.3088 79.6379 89.295 79.6514 89.295 79.6799V81.8324C89.295 81.8609 89.2842 81.8849 89.2643 81.9044C89.2444 81.9239 89.2198 81.9344 89.1907 81.9344H88.1802C88.1511 81.9344 88.1266 81.9239 88.1066 81.9044C88.0968 81.8951 88.089 81.8839 88.0837 81.8715C88.0784 81.8591 88.0758 81.8458 88.076 81.8324V76.1174C88.076 76.0889 88.0867 76.0649 88.1066 76.0454C88.1266 76.0259 88.1511 76.0154 88.1802 76.0154H90.6136C90.9939 76.0154 91.3266 76.0919 91.6149 76.2434ZM91.0705 78.4589C91.2315 78.3104 91.3128 78.1139 91.3128 77.8724C91.3128 77.6309 91.2315 77.4254 91.0705 77.2724C90.9095 77.1209 90.6964 77.0444 90.4311 77.0444H89.3348C89.3057 77.0444 89.2919 77.0579 89.2919 77.0864V78.6404C89.2919 78.6689 89.3057 78.6824 89.3348 78.6824H90.4311C90.6964 78.6824 90.908 78.6074 91.0705 78.4589ZM95.8943 77.6534C95.9403 77.6759 95.9572 77.7179 95.9464 77.7794L95.7655 78.7424C95.7594 78.8099 95.7195 78.8294 95.6444 78.8009C95.5585 78.7724 95.4573 78.7589 95.3423 78.7589C95.2963 78.7589 95.2335 78.7649 95.1522 78.7754C94.9452 78.7919 94.7689 78.8669 94.6263 78.9989C94.4821 79.1309 94.4101 79.3064 94.4101 79.5269V81.8309C94.4101 81.8594 94.3993 81.8834 94.3794 81.9029C94.3595 81.9224 94.3349 81.9329 94.3058 81.9329H93.2954C93.2662 81.9329 93.2417 81.9224 93.2218 81.9029C93.2119 81.8936 93.2041 81.8824 93.1988 81.87C93.1936 81.8576 93.1909 81.8443 93.1911 81.8309V77.6939C93.1911 77.6654 93.2018 77.6414 93.2218 77.6219C93.2417 77.6024 93.2662 77.5919 93.2954 77.5919H94.3058C94.3349 77.5919 94.3595 77.6024 94.3794 77.6219C94.3993 77.6414 94.4101 77.6654 94.4101 77.6939V78.0149C94.4101 78.0314 94.4162 78.0434 94.4269 78.0494C94.4377 78.0554 94.4469 78.0524 94.453 78.0404C94.6891 77.7029 95.005 77.5334 95.4021 77.5334C95.6091 77.5334 95.7732 77.5724 95.8943 77.6519V77.6534ZM97.1026 81.6284C96.7576 81.3809 96.5214 81.0434 96.3942 80.6159C96.3129 80.3519 96.273 80.0639 96.273 79.7549C96.273 79.4234 96.3129 79.1249 96.3942 78.8594C96.526 78.4424 96.7652 78.1169 97.1102 77.8799C97.4552 77.6429 97.8692 77.5259 98.3537 77.5259C98.8383 77.5259 99.2277 77.6429 99.562 77.8769C99.8962 78.1109 100.131 78.4349 100.27 78.8519C100.362 79.1339 100.408 79.4294 100.408 79.7384C100.408 80.0474 100.368 80.3264 100.287 80.5904C100.16 81.0299 99.9269 81.3749 99.5834 81.6239C99.2415 81.8744 98.8275 81.9989 98.3445 81.9989C97.8615 81.9989 97.4476 81.8759 97.1026 81.6269V81.6284ZM98.8291 80.8094C98.9609 80.6969 99.056 80.5424 99.1143 80.3444C99.1603 80.1644 99.1833 79.9679 99.1833 79.7534C99.1833 79.5164 99.1603 79.3169 99.1143 79.1534C99.0514 78.9614 98.9533 78.8129 98.8214 78.7064C98.6895 78.5999 98.5285 78.5459 98.3384 78.5459C98.1483 78.5459 97.9796 78.5999 97.8508 78.7064C97.722 78.8129 97.6285 78.9629 97.5702 79.1534C97.5242 79.2884 97.5012 79.4879 97.5012 79.7534C97.5012 80.0189 97.5211 80.2034 97.561 80.3444C97.6177 80.5409 97.7143 80.6969 97.8508 80.8094C97.9857 80.9219 98.1513 80.9789 98.3476 80.9789C98.5439 80.9789 98.6987 80.9234 98.8306 80.8094H98.8291ZM103.976 76.0529C103.996 76.0334 104.021 76.0229 104.05 76.0229H105.06C105.09 76.0229 105.114 76.0334 105.134 76.0529C105.154 76.0724 105.165 76.0964 105.165 76.1249V81.8324C105.165 81.8609 105.154 81.8849 105.134 81.9044C105.114 81.9239 105.09 81.9344 105.06 81.9344H104.05C104.021 81.9344 103.996 81.9239 103.976 81.9044C103.967 81.8951 103.959 81.8839 103.953 81.8715C103.948 81.8591 103.946 81.8458 103.946 81.8324V81.5534C103.946 81.5369 103.94 81.5264 103.929 81.5234C103.917 81.5204 103.906 81.5234 103.894 81.5354C103.651 81.8444 103.322 82.0004 102.902 82.0004C102.481 82.0004 102.152 81.8909 101.862 81.6719C101.571 81.4529 101.362 81.1514 101.236 80.7689C101.138 80.4764 101.089 80.1359 101.089 79.7474C101.089 79.3589 101.141 78.9989 101.244 78.7004C101.376 78.3404 101.584 78.0539 101.87 77.8439C102.155 77.6324 102.507 77.5274 102.926 77.5274C103.345 77.5274 103.662 77.6684 103.892 77.9489C103.903 77.9654 103.915 77.9714 103.927 77.9654C103.938 77.9594 103.944 77.9489 103.944 77.9309V76.1249C103.944 76.0964 103.955 76.0724 103.975 76.0529H103.976ZM103.938 79.7639C103.938 79.3874 103.875 79.0919 103.748 78.8774C103.616 78.6584 103.423 78.5489 103.17 78.5489C102.9 78.5489 102.695 78.6584 102.557 78.8774C102.412 79.0964 102.34 79.3949 102.34 79.7729C102.34 80.1104 102.4 80.3924 102.521 80.6174C102.665 80.8589 102.879 80.9804 103.161 80.9804C103.42 80.9804 103.621 80.8589 103.765 80.6174C103.88 80.4089 103.938 80.1254 103.938 79.7654V79.7639ZM108.697 77.6234C108.717 77.6039 108.742 77.5934 108.771 77.5934H109.781C109.811 77.5934 109.835 77.6039 109.855 77.6234C109.875 77.6429 109.886 77.6669 109.886 77.6954V81.8324C109.886 81.8609 109.875 81.8849 109.855 81.9044C109.835 81.9239 109.811 81.9344 109.781 81.9344H108.771C108.742 81.9344 108.717 81.9239 108.697 81.9044C108.688 81.8951 108.68 81.8839 108.674 81.8715C108.669 81.8591 108.667 81.8458 108.667 81.8324V81.5459C108.667 81.5294 108.661 81.5189 108.65 81.5159C108.638 81.5129 108.627 81.5204 108.615 81.5369C108.385 81.8414 108.027 81.9929 107.544 81.9929C107.107 81.9929 106.747 81.8639 106.465 81.6044C106.183 81.3449 106.042 80.9819 106.042 80.5154V77.6954C106.042 77.6669 106.052 77.6429 106.072 77.6234C106.092 77.6039 106.117 77.5934 106.146 77.5934H107.147C107.176 77.5934 107.201 77.6039 107.221 77.6234C107.241 77.6429 107.252 77.6669 107.252 77.6954V80.2199C107.252 80.4449 107.313 80.6279 107.437 80.7689C107.561 80.9099 107.731 80.9804 107.951 80.9804C108.147 80.9804 108.308 80.9234 108.434 80.8079C108.559 80.6924 108.638 80.5424 108.667 80.3564V77.6969C108.667 77.6684 108.677 77.6444 108.697 77.6249V77.6234ZM111.537 81.6629C111.201 81.4379 110.961 81.1289 110.816 80.7344C110.718 80.4524 110.669 80.1209 110.669 79.7384C110.669 79.3559 110.718 79.0349 110.816 78.7589C110.954 78.3764 111.194 78.0749 111.533 77.8559C111.871 77.6369 112.272 77.5274 112.732 77.5274C113.192 77.5274 113.596 77.6399 113.944 77.8649C114.292 78.0899 114.524 78.3749 114.639 78.7169C114.685 78.8519 114.708 78.9539 114.708 79.0214V79.0379C114.708 79.0889 114.679 79.1189 114.622 79.1309L113.63 79.2749H113.613C113.561 79.2749 113.527 79.2464 113.51 79.1909L113.484 79.0559C113.445 78.9089 113.356 78.7889 113.218 78.6929C113.08 78.5969 112.916 78.5489 112.725 78.5489C112.535 78.5489 112.387 78.5939 112.259 78.6839C112.132 78.7739 112.043 78.8984 111.991 79.0559C111.928 79.2254 111.896 79.4549 111.896 79.7489C111.896 80.0429 111.925 80.2724 111.982 80.4404C112.034 80.6099 112.124 80.7419 112.253 80.8379C112.382 80.9339 112.54 80.9819 112.724 80.9819C112.908 80.9819 113.06 80.9354 113.195 80.8424C113.33 80.7494 113.423 80.6219 113.475 80.4584C113.481 80.4479 113.484 80.4299 113.484 80.4074C113.491 80.4014 113.494 80.3939 113.494 80.3819C113.5 80.3144 113.54 80.2859 113.615 80.2979L114.607 80.4494C114.664 80.4614 114.693 80.4914 114.693 80.5424C114.693 80.5874 114.676 80.6714 114.641 80.7959C114.519 81.1724 114.285 81.4679 113.937 81.6824C113.589 81.8969 113.187 82.0034 112.733 82.0034C112.279 82.0034 111.874 81.8909 111.537 81.6659V81.6629ZM117.931 78.5174C117.911 78.5369 117.887 78.5474 117.857 78.5474H117.029C117 78.5474 116.986 78.5609 116.986 78.5894V80.3789C116.986 80.5649 117.025 80.7029 117.103 80.7929C117.181 80.8829 117.305 80.9279 117.479 80.9279H117.764C117.793 80.9279 117.818 80.9384 117.837 80.9579C117.857 80.9774 117.868 81.0014 117.868 81.0299V81.8324C117.868 81.8939 117.833 81.9314 117.764 81.9419C117.522 81.9539 117.35 81.9584 117.246 81.9584C116.769 81.9584 116.411 81.8804 116.175 81.7259C115.939 81.5714 115.818 81.2804 115.813 80.8514V78.5894C115.813 78.5609 115.8 78.5474 115.771 78.5474H115.278C115.249 78.5474 115.225 78.5369 115.205 78.5174C115.195 78.5081 115.187 78.4969 115.182 78.4845C115.177 78.4721 115.174 78.4588 115.174 78.4454V77.6939C115.174 77.6654 115.185 77.6414 115.205 77.6219C115.225 77.6024 115.249 77.5919 115.278 77.5919H115.771C115.8 77.5919 115.813 77.5784 115.813 77.5499V76.5449C115.813 76.5164 115.824 76.4924 115.844 76.4729C115.864 76.4534 115.889 76.4429 115.918 76.4429H116.884C116.913 76.4429 116.937 76.4534 116.957 76.4729C116.977 76.4924 116.988 76.5164 116.988 76.5449V77.5499C116.988 77.5784 117.002 77.5919 117.031 77.5919H117.859C117.888 77.5919 117.913 77.6024 117.933 77.6219C117.952 77.6414 117.963 77.6654 117.963 77.6939V78.4454C117.963 78.4739 117.952 78.4979 117.933 78.5174H117.931ZM119.454 81.8324C119.165 81.7259 118.943 81.5759 118.785 81.3854C118.627 81.1934 118.547 80.9774 118.547 80.7359V80.6519C118.547 80.6234 118.558 80.5994 118.578 80.5799C118.598 80.5604 118.623 80.5499 118.652 80.5499H119.61C119.639 80.5499 119.664 80.5604 119.684 80.5799C119.703 80.5994 119.714 80.6234 119.714 80.6519V80.6609C119.714 80.7854 119.785 80.8904 119.926 80.9774C120.067 81.0644 120.243 81.1079 120.456 81.1079C120.653 81.1079 120.811 81.0704 120.932 80.9939C121.053 80.9174 121.113 80.8244 121.113 80.7104C121.113 80.6084 121.06 80.5334 120.958 80.4824C120.855 80.4314 120.685 80.3789 120.449 80.3219C120.179 80.2544 119.966 80.1899 119.811 80.1284C119.443 80.0054 119.148 79.8524 118.931 79.6724C118.711 79.4924 118.603 79.2329 118.603 78.8954C118.603 78.4784 118.768 78.1484 119.099 77.9039C119.431 77.6594 119.869 77.5364 120.415 77.5364C120.783 77.5364 121.105 77.5934 121.381 77.7089C121.657 77.8244 121.872 77.9864 122.023 78.1949C122.175 78.4034 122.252 78.6389 122.252 78.9044C122.252 78.9329 122.241 78.9569 122.221 78.9764C122.201 78.9959 122.177 79.0064 122.148 79.0064H121.225C121.195 79.0064 121.171 78.9959 121.151 78.9764C121.141 78.9671 121.133 78.9559 121.128 78.9435C121.123 78.9311 121.12 78.9178 121.12 78.9044C121.12 78.7814 121.056 78.6764 120.926 78.5924C120.795 78.5084 120.625 78.4664 120.412 78.4664C120.222 78.4664 120.067 78.5009 119.946 78.5684C119.825 78.6359 119.765 78.7289 119.765 78.8474C119.765 78.9659 119.823 79.0439 119.941 79.1009C120.059 79.1579 120.255 79.2164 120.533 79.2779C120.596 79.2944 120.668 79.3124 120.749 79.3334C120.829 79.3529 120.916 79.3769 121.008 79.4054C121.416 79.5239 121.738 79.6754 121.974 79.8614C122.21 80.0474 122.329 80.3174 122.329 80.6714C122.329 81.0884 122.16 81.4124 121.824 81.6464C121.487 81.8804 121.034 81.9974 120.464 81.9974C120.079 81.9974 119.742 81.9434 119.454 81.8369V81.8324Z" fill="white"/>
<path d="M68.6566 111.37C68.6643 111.385 68.6796 111.393 68.7041 111.393H71.691C71.7293 111.393 71.7631 111.406 71.7907 111.433C71.8183 111.46 71.8321 111.493 71.8321 111.531V112.882C71.8321 112.921 71.8183 112.953 71.7907 112.98C71.7631 113.007 71.7309 113.02 71.691 113.02H66.1972C66.1573 113.02 66.1251 113.007 66.0975 112.98C66.0841 112.967 66.0735 112.952 66.0663 112.935C66.0592 112.919 66.0557 112.901 66.0561 112.882V111.61C66.0561 111.541 66.0791 111.484 66.1266 111.438C66.5958 111.01 67.2153 110.395 67.9896 109.593L68.6919 108.871C69.4018 108.153 69.7575 107.629 69.7575 107.301C69.7575 107.079 69.6732 106.896 69.506 106.75C69.3374 106.605 69.1212 106.533 68.8559 106.533C68.5907 106.533 68.376 106.605 68.2119 106.75C68.0479 106.896 67.9666 107.086 67.9666 107.323V107.598C67.9666 107.637 67.9528 107.668 67.9252 107.695C67.8976 107.722 67.8654 107.736 67.8255 107.736H66.1389C66.099 107.736 66.0668 107.722 66.0392 107.695C66.0258 107.683 66.0152 107.668 66.0081 107.651C66.0009 107.634 65.9975 107.616 65.9978 107.598V107.025C66.0285 106.597 66.1742 106.222 66.4318 105.901C66.6894 105.58 67.0297 105.334 67.4514 105.162C67.8731 104.989 68.3423 104.904 68.8574 104.904C69.4355 104.904 69.9415 105.009 70.3739 105.219C70.8078 105.429 71.139 105.714 71.369 106.072C71.599 106.431 71.714 106.828 71.714 107.263C71.714 107.577 71.6358 107.893 71.4794 108.214C71.323 108.535 71.0884 108.876 70.7771 109.234C70.5442 109.509 70.2981 109.773 70.0396 110.025C69.7667 110.292 69.388 110.652 68.9034 111.102L68.6689 111.319C68.6535 111.334 68.6489 111.349 68.6566 111.366V111.37ZM73.4589 112.419C72.9437 111.927 72.6861 111.256 72.6861 110.407V107.611C72.6861 106.771 72.9437 106.11 73.4589 105.628C73.9741 105.147 74.6809 104.907 75.5795 104.907C76.478 104.907 77.1879 105.15 77.7108 105.634C78.2336 106.119 78.4958 106.779 78.4958 107.611V110.407C78.4958 111.255 78.2336 111.925 77.7108 112.419C77.1879 112.911 76.4764 113.158 75.5795 113.158C74.6825 113.158 73.9756 112.912 73.4589 112.419ZM76.2879 111.25C76.4642 111.07 76.5516 110.824 76.5516 110.511V107.544C76.5516 107.23 76.4642 106.984 76.2879 106.804C76.1115 106.624 75.8754 106.534 75.5795 106.534C75.2835 106.534 75.0597 106.624 74.8879 106.804C74.7162 106.984 74.6304 107.23 74.6304 107.544V110.511C74.6304 110.824 74.7147 111.07 74.8818 111.25C75.0489 111.43 75.282 111.52 75.5779 111.52C75.8739 111.52 76.1115 111.43 76.2863 111.25H76.2879ZM81.9964 111.37C82.004 111.385 82.0194 111.393 82.0439 111.393H85.0308C85.0691 111.393 85.1028 111.406 85.1304 111.433C85.158 111.46 85.1718 111.493 85.1718 111.531V112.882C85.1718 112.921 85.158 112.953 85.1304 112.98C85.1028 113.007 85.0706 113.02 85.0308 113.02H79.5369C79.4971 113.02 79.4649 113.007 79.4373 112.98C79.4238 112.967 79.4132 112.952 79.4061 112.935C79.399 112.919 79.3955 112.901 79.3959 112.882V111.61C79.3959 111.541 79.4189 111.484 79.4664 111.438C79.9356 111.01 80.555 110.395 81.3294 109.593L82.0316 108.871C82.7415 108.153 83.0973 107.629 83.0973 107.301C83.0973 107.079 83.0129 106.896 82.8458 106.75C82.6771 106.605 82.4609 106.533 82.1957 106.533C81.9304 106.533 81.7158 106.605 81.5517 106.75C81.3876 106.896 81.3064 107.086 81.3064 107.323V107.598C81.3064 107.637 81.2926 107.668 81.265 107.695C81.2374 107.722 81.2052 107.736 81.1653 107.736H79.4787C79.4388 107.736 79.4066 107.722 79.379 107.695C79.3656 107.683 79.355 107.668 79.3478 107.651C79.3407 107.634 79.3372 107.616 79.3376 107.598V107.025C79.3683 106.597 79.5139 106.222 79.7715 105.901C80.0291 105.58 80.3695 105.334 80.7912 105.162C81.2128 104.989 81.682 104.904 82.1972 104.904C82.7753 104.904 83.2813 105.009 83.7137 105.219C84.1476 105.429 84.4788 105.714 84.7088 106.072C84.9388 106.431 85.0538 106.828 85.0538 107.263C85.0538 107.577 84.9756 107.893 84.8192 108.214C84.6628 108.535 84.4282 108.876 84.1169 109.234C83.884 109.509 83.6378 109.773 83.3794 110.025C83.1065 110.292 82.7277 110.652 82.2432 111.102L82.0086 111.319C81.9933 111.334 81.9887 111.349 81.9964 111.366V111.37ZM91.4017 110.35C91.4017 110.763 91.3235 111.148 91.1671 111.508C90.9647 112.005 90.6319 112.396 90.1719 112.683C89.7104 112.969 89.1692 113.112 88.5436 113.112C87.918 113.112 87.3951 112.965 86.9275 112.671C86.4583 112.377 86.1194 111.978 85.9078 111.474C85.7821 111.168 85.7085 110.832 85.6855 110.466C85.6855 110.374 85.733 110.328 85.8266 110.328H87.5132C87.6067 110.328 87.6573 110.374 87.665 110.466C87.6803 110.656 87.7279 110.841 87.8061 111.016C87.8689 111.169 87.9625 111.286 88.0866 111.366C88.2108 111.445 88.3596 111.486 88.5313 111.486C88.8594 111.486 89.1048 111.34 89.2688 111.051C89.3777 110.86 89.4329 110.608 89.4329 110.295C89.4329 109.981 89.3777 109.722 89.2688 109.492C89.1048 109.21 88.8548 109.068 88.519 109.068C88.4332 109.068 88.3381 109.096 88.2323 109.153C88.1265 109.21 87.9916 109.296 87.8275 109.411C87.7877 109.434 87.757 109.446 87.734 109.446C87.688 109.446 87.6527 109.423 87.6282 109.377L86.7971 108.231C86.7741 108.193 86.7619 108.162 86.7619 108.139C86.7619 108.093 86.7818 108.06 86.8201 108.036L88.6233 106.695C88.6386 106.68 88.6448 106.665 88.6402 106.648C88.6356 106.633 88.6233 106.626 88.5988 106.626H86.0336C85.9937 106.626 85.9615 106.612 85.9339 106.585C85.9205 106.573 85.9099 106.558 85.9027 106.541C85.8956 106.524 85.8921 106.506 85.8925 106.488V105.136C85.8925 105.099 85.9063 105.066 85.9339 105.039C85.9615 105.012 85.9937 104.998 86.0336 104.998H91.141C91.1793 104.998 91.2131 105.012 91.2407 105.039C91.2683 105.066 91.2821 105.099 91.2821 105.136V106.66C91.2821 106.729 91.2545 106.786 91.1993 106.833L89.7825 107.922C89.7672 107.937 89.761 107.952 89.7656 107.968C89.7687 107.983 89.7825 107.995 89.807 108.003C90.4311 108.163 90.8849 108.553 91.1655 109.171C91.3219 109.537 91.4001 109.932 91.4001 110.352L91.4017 110.35Z" fill="#252530"/>
</g>
<defs>
<filter id="filter0_ddd_1734_47773" x="0.699892" y="9.53674e-07" width="156" height="168" filterUnits="userSpaceOnUse" color-interpolation-filters="sRGB">
<feFlood flood-opacity="0" result="BackgroundImageFix"/>
<feColorMatrix in="SourceAlpha" type="matrix" values="0 0 0 0 0 0 0 0 0 0 0 0 0 0 0 0 0 0 127 0" result="hardAlpha"/>
<feOffset dy="4.78807"/>
<feGaussianBlur stdDeviation="2.67334"/>
<feColorMatrix type="matrix" values="0 0 0 0 0.278431 0 0 0 0 0.403922 0 0 0 0 0.533333 0 0 0 0.0403893 0"/>
<feBlend mode="normal" in2="BackgroundImageFix" result="effect1_dropShadow_1734_47773"/>
<feColorMatrix in="SourceAlpha" type="matrix" values="0 0 0 0 0 0 0 0 0 0 0 0 0 0 0 0 0 0 127 0" result="hardAlpha"/>
<feOffset dy="4.8"/>
<feGaussianBlur stdDeviation="6"/>
<feColorMatrix type="matrix" values="0 0 0 0 0.278431 0 0 0 0 0.403922 0 0 0 0 0.533333 0 0 0 0.03 0"/>
<feBlend mode="normal" in2="effect1_dropShadow_1734_47773" result="effect2_dropShadow_1734_47773"/>
<feColorMatrix in="SourceAlpha" type="matrix" values="0 0 0 0 0 0 0 0 0 0 0 0 0 0 0 0 0 0 127 0" result="hardAlpha"/>
<feOffset dy="12"/>
<feGaussianBlur stdDeviation="12"/>
<feColorMatrix type="matrix" values="0 0 0 0 0.278431 0 0 0 0 0.403922 0 0 0 0 0.533333 0 0 0 0.05 0"/>
<feBlend mode="normal" in2="effect2_dropShadow_1734_47773" result="effect3_dropShadow_1734_47773"/>
<feBlend mode="normal" in="SourceGraphic" in2="effect3_dropShadow_1734_47773" result="shape"/>
</filter>
</defs>
</svg>
