<svg width="157" height="168" viewBox="0 0 157 168" fill="none" xmlns="http://www.w3.org/2000/svg">
<g filter="url(#filter0_ddd_1734_47756)">
<path d="M33.8516 105.423L79.7719 128.548L123.948 105.423V14.9912H33.8516V105.423Z" fill="white"/>
<path d="M124.878 15.3365L32.9214 107.034L80.5855 130.389L124.878 107.954V15.3365Z" fill="#F2F3F2"/>
<path d="M30.8287 45.1352V107.379L32.4563 108.184L78.3766 131.31L79.7717 132L81.1667 131.31L125.46 108.184L127.087 107.379V12H30.8287V45.1352ZM33.8513 105.653V14.9914H124.064V105.653L79.7717 128.779L33.8513 105.653Z" fill="#DCDEDC"/>
<path d="M78.958 16.4871C79.423 16.4871 79.888 16.4871 80.353 16.6021L78.958 19.2483C76.8654 19.1333 75.0054 20.744 74.8891 22.815C74.7729 24.8859 76.4004 26.7267 78.493 26.8418H78.958C79.888 26.8418 80.8181 26.4966 81.5156 25.9214L83.0269 28.4525C81.8643 29.2579 80.4693 29.7181 78.958 29.7181C75.2379 29.8332 72.099 27.0719 71.9828 23.3902C71.8665 19.7085 74.6566 16.6021 78.3767 16.4871H78.958ZM83.7244 22.1246L85.4682 25.001L83.7244 27.7622L82.0969 25.001H78.7255L80.4693 22.1246H83.7244ZM80.9343 21.0892C80.9343 20.629 81.0506 20.1687 81.2831 19.8236C81.5156 19.4784 81.9806 19.1333 82.3294 18.9032L82.5619 18.7881C83.0269 18.558 83.1431 18.443 83.1431 18.2128C83.1431 17.9827 82.7944 17.7526 82.5619 17.7526C82.0969 17.7526 81.7481 17.9827 81.5156 18.443L80.9343 17.8677C81.0506 17.6376 81.2831 17.4075 81.5156 17.1774C81.8643 16.9473 82.2131 16.9473 82.5619 16.9473C82.9106 16.9473 83.3757 17.0623 83.6082 17.2924C83.8407 17.5225 84.0732 17.8677 84.0732 18.2128C84.0732 18.7881 83.7244 19.2483 83.0269 19.4784L82.6781 19.7085C82.3294 19.9386 82.0969 20.0537 81.9806 20.3988H84.0732V21.2042L80.9343 21.0892ZM78.958 35.4708L90.0021 29.2579V12H67.7976V29.1429L78.958 35.4708Z" fill="#FF492C"/>
<path d="M129.296 76.1995H28.6202L24.9 84.2532L28.6202 92.3068H129.296L132.9 84.2532L129.296 76.1995Z" fill="#FFD200"/>
<path d="M50.0573 71.1601C49.166 71.1601 48.3794 70.9875 47.6973 70.6424C47.0153 70.2972 46.4883 69.8102 46.1163 69.1812C45.7365 68.5522 45.5466 67.8312 45.5466 67.0182V59.1486C45.5466 59.0949 45.566 59.0451 45.6048 58.999C45.6435 58.9607 45.6939 58.9415 45.7559 58.9415H47.7903C47.8523 58.9415 47.9027 58.9607 47.9415 58.999C47.988 59.0451 48.0112 59.0949 48.0112 59.1486V67.0412C48.0112 67.6472 48.1972 68.1381 48.5692 68.5139C48.949 68.8897 49.445 69.0777 50.0573 69.0777C50.6773 69.0777 51.1772 68.8897 51.557 68.5139C51.9367 68.1381 52.1266 67.6472 52.1266 67.0412V59.1486C52.1266 59.0949 52.146 59.0451 52.1847 58.999C52.2235 58.9607 52.27 58.9415 52.3242 58.9415H54.3703C54.4246 58.9415 54.4749 58.9607 54.5214 58.999C54.5602 59.0451 54.5796 59.0949 54.5796 59.1486V67.0182C54.5796 67.8312 54.3897 68.5522 54.0099 69.1812C53.6302 69.8102 53.1031 70.2972 52.4289 70.6424C51.7468 70.9875 50.9563 71.1601 50.0573 71.1601ZM60.0203 71.1371C59.2452 71.1371 58.5671 71.0297 57.9858 70.8149C57.4045 70.6002 56.9512 70.2972 56.6256 69.906C56.3079 69.5148 56.149 69.07 56.149 68.5714V68.3988C56.149 68.3451 56.1684 68.2953 56.2071 68.2493C56.2536 68.2109 56.304 68.1917 56.3583 68.1917H58.2881C58.3501 68.1917 58.4005 68.2109 58.4392 68.2493C58.478 68.2953 58.4973 68.3451 58.4973 68.3988V68.4103C58.4973 68.6711 58.6407 68.8897 58.9275 69.0661C59.2142 69.2426 59.5746 69.3308 60.0086 69.3308C60.4039 69.3308 60.7217 69.2541 60.9619 69.1007C61.2022 68.9396 61.3223 68.7478 61.3223 68.5254C61.3223 68.3183 61.2177 68.1611 61.0084 68.0537C60.8069 67.954 60.4659 67.8466 59.9854 67.7315C59.4351 67.5935 59.005 67.4592 58.695 67.3288C57.9509 67.0757 57.358 66.7651 56.9163 66.3969C56.4745 66.0288 56.2536 65.4995 56.2536 64.8092C56.2536 63.9578 56.5869 63.2828 57.2534 62.7843C57.9277 62.2857 58.8151 62.0364 59.9156 62.0364C60.6597 62.0364 61.3107 62.1515 61.8687 62.3816C62.4267 62.6194 62.8607 62.953 63.1707 63.3825C63.473 63.8044 63.6241 64.2876 63.6241 64.8322C63.6241 64.8859 63.6048 64.9319 63.566 64.9703C63.5273 65.0086 63.4769 65.0278 63.4149 65.0278H61.5548C61.5006 65.0278 61.4502 65.0086 61.4037 64.9703C61.3649 64.9319 61.3456 64.8859 61.3456 64.8322C61.3456 64.5791 61.2138 64.3643 60.9503 64.1879C60.6945 64.0115 60.3496 63.9233 59.9156 63.9233C59.5359 63.9233 59.222 63.9962 58.974 64.1419C58.726 64.28 58.602 64.4679 58.602 64.7056C58.602 64.9357 58.7221 65.1083 58.9623 65.2234C59.2026 65.3384 59.6017 65.4612 60.1598 65.5916C60.2838 65.6222 60.431 65.6567 60.6015 65.6951C60.7643 65.7334 60.9348 65.7833 61.113 65.8447C61.9423 66.0901 62.5933 66.4008 63.0661 66.7766C63.5466 67.1601 63.7869 67.7124 63.7869 68.4334C63.7869 69.2847 63.4459 69.9482 62.7639 70.4238C62.0896 70.8993 61.175 71.1371 60.0203 71.1371ZM68.7742 62.0134C69.5337 62.0134 70.208 62.1438 70.797 62.4046C71.386 62.6654 71.8472 63.0182 72.1804 63.4631C72.5137 63.9156 72.6803 64.418 72.6803 64.9703V70.8149C72.6803 70.8763 72.6609 70.9262 72.6222 70.9645C72.5757 71.0029 72.5253 71.022 72.4711 71.022H70.425C70.3707 71.022 70.3242 71.0029 70.2855 70.9645C70.239 70.9262 70.2157 70.8763 70.2157 70.8149V70.2512C70.2157 70.2128 70.208 70.1898 70.1925 70.1822C70.1615 70.1668 70.1382 70.1783 70.1227 70.2167C69.6267 70.8456 68.8401 71.1601 67.7628 71.1601C66.856 71.1601 66.1236 70.9415 65.5656 70.5043C65.0076 70.0671 64.7285 69.4228 64.7285 68.5714C64.7285 67.6893 65.0424 67.0029 65.6702 66.512C66.298 66.0211 67.1931 65.7756 68.3557 65.7756H70.1344C70.1886 65.7756 70.2157 65.7488 70.2157 65.6951V65.3154C70.2157 64.9319 70.1034 64.6328 69.8786 64.418C69.6383 64.2109 69.2857 64.1074 68.8207 64.1074C68.4642 64.1074 68.1658 64.1687 67.9255 64.2915C67.693 64.4219 67.5419 64.6021 67.4721 64.8322C67.4334 64.9549 67.3559 65.0125 67.2396 65.0048L65.1238 64.7287C64.9843 64.7056 64.9223 64.652 64.9378 64.5676C64.9843 64.0844 65.1781 63.6472 65.5191 63.256C65.8601 62.8648 66.3135 62.5618 66.8792 62.3471C67.445 62.1246 68.0767 62.0134 68.7742 62.0134ZM68.4254 69.3538C68.9214 69.3538 69.3438 69.2195 69.6926 68.9511C70.0414 68.6826 70.2157 68.3413 70.2157 67.9271V67.3058C70.2157 67.2521 70.1886 67.2253 70.1344 67.2253H68.8788C68.3518 67.2253 67.941 67.325 67.6465 67.5244C67.352 67.7162 67.2048 67.9923 67.2048 68.3528C67.2048 68.6596 67.3133 68.9012 67.5303 69.0777C67.755 69.2617 68.0534 69.3538 68.4254 69.3538ZM82.341 64.4065C82.558 65.0125 82.6665 65.7296 82.6665 66.558C82.6665 67.348 82.5697 68.0422 82.3759 68.6405C82.1046 69.4228 81.6784 70.0403 81.0971 70.4928C80.5081 70.9377 79.8144 71.1601 79.0162 71.1601C78.1636 71.1601 77.4932 70.8456 77.005 70.2167C76.9817 70.1937 76.9585 70.1822 76.9352 70.1822C76.912 70.1898 76.9003 70.2128 76.9003 70.2512V70.8149C76.9003 70.8763 76.881 70.9262 76.8422 70.9645C76.7957 71.0029 76.7453 71.022 76.6911 71.022H74.645C74.5908 71.022 74.5443 71.0029 74.5055 70.9645C74.459 70.9262 74.4358 70.8763 74.4358 70.8149V59.1486C74.4358 59.0949 74.459 59.0451 74.5055 58.999C74.5443 58.9607 74.5908 58.9415 74.645 58.9415H76.6911C76.7453 58.9415 76.7957 58.9607 76.8422 58.999C76.881 59.0451 76.9003 59.0949 76.9003 59.1486V62.8418C76.9003 62.8801 76.912 62.9032 76.9352 62.9108C76.9585 62.9185 76.9817 62.907 77.005 62.8763C77.4545 62.301 78.0978 62.0134 78.9348 62.0134C79.7873 62.0134 80.5003 62.2282 81.0739 62.6577C81.6474 63.0872 82.0698 63.6702 82.341 64.4065ZM79.7602 68.3298C80.0005 67.8926 80.1206 67.3173 80.1206 66.604C80.1206 65.8063 79.9811 65.1965 79.7021 64.7747C79.4231 64.3298 79.0123 64.1074 78.4698 64.1074C77.9583 64.1074 77.5669 64.3298 77.2956 64.7747C77.0398 65.2119 76.912 65.8178 76.912 66.5925C76.912 67.3595 77.0282 67.9386 77.2607 68.3298C77.5397 68.8284 77.9466 69.0777 78.4814 69.0777C79.0549 69.0777 79.4812 68.8284 79.7602 68.3298ZM85.6078 61.1505C85.2048 61.1505 84.8754 61.0201 84.6196 60.7593C84.3561 60.5062 84.2243 60.1841 84.2243 59.7929C84.2243 59.3864 84.3522 59.0566 84.608 58.8034C84.8637 58.5503 85.197 58.4238 85.6078 58.4238C86.0108 58.4238 86.3402 58.5503 86.5959 58.8034C86.8517 59.0566 86.9796 59.3864 86.9796 59.7929C86.9796 60.1841 86.8478 60.5062 86.5843 60.7593C86.3208 61.0201 85.9953 61.1505 85.6078 61.1505ZM84.5615 71.022C84.4995 71.022 84.4491 71.0029 84.4104 70.9645C84.3716 70.9262 84.3522 70.8763 84.3522 70.8149V62.3471C84.3522 62.2857 84.3716 62.2358 84.4104 62.1975C84.4491 62.1591 84.4995 62.14 84.5615 62.14H86.5959C86.6579 62.14 86.7083 62.1591 86.7471 62.1975C86.7858 62.2358 86.8052 62.2857 86.8052 62.3471V70.8149C86.8052 70.8763 86.7858 70.9262 86.7471 70.9645C86.7083 71.0029 86.6579 71.022 86.5959 71.022H84.5615ZM88.9326 71.022C88.8784 71.022 88.828 71.0029 88.7815 70.9645C88.7428 70.9262 88.7234 70.8763 88.7234 70.8149V59.1486C88.7234 59.0949 88.7428 59.0451 88.7815 58.999C88.828 58.9607 88.8784 58.9415 88.9326 58.9415H90.9787C91.033 58.9415 91.0795 58.9607 91.1182 58.999C91.1647 59.0451 91.188 59.0949 91.188 59.1486V70.8149C91.188 70.8763 91.1647 70.9262 91.1182 70.9645C91.0795 71.0029 91.033 71.022 90.9787 71.022H88.9326ZM94.3036 61.1505C93.9083 61.1505 93.5789 61.0201 93.3154 60.7593C93.0519 60.5062 92.9201 60.1841 92.9201 59.7929C92.9201 59.3864 93.048 59.0566 93.3038 58.8034C93.5673 58.5503 93.9006 58.4238 94.3036 58.4238C94.7066 58.4238 95.036 58.5503 95.2917 58.8034C95.5475 59.0566 95.6754 59.3864 95.6754 59.7929C95.6754 60.1841 95.5475 60.5062 95.2917 60.7593C95.0282 61.0201 94.6988 61.1505 94.3036 61.1505ZM93.2573 71.022C93.1953 71.022 93.1449 71.0029 93.1062 70.9645C93.0674 70.9262 93.048 70.8763 93.048 70.8149V62.3471C93.048 62.2857 93.0674 62.2358 93.1062 62.1975C93.1449 62.1591 93.1953 62.14 93.2573 62.14H95.2917C95.3537 62.14 95.4041 62.1591 95.4429 62.1975C95.4816 62.2358 95.501 62.2857 95.501 62.3471V70.8149C95.501 70.8763 95.4816 70.9262 95.4429 70.9645C95.4041 71.0029 95.3537 71.022 95.2917 71.022H93.2573ZM102.569 63.9003C102.569 63.954 102.55 64 102.511 64.0383C102.472 64.0844 102.422 64.1074 102.36 64.1074H100.686C100.632 64.1074 100.605 64.1342 100.605 64.1879V67.8466C100.605 68.2224 100.682 68.5062 100.837 68.698C100.992 68.8821 101.244 68.9741 101.593 68.9741H102.174C102.228 68.9741 102.275 68.9933 102.313 69.0316C102.36 69.07 102.383 69.1198 102.383 69.1812V70.8149C102.383 70.9453 102.313 71.0182 102.174 71.0335C101.678 71.0566 101.329 71.0681 101.128 71.0681C100.159 71.0681 99.4381 70.9108 98.9654 70.5963C98.4848 70.2819 98.2407 69.6874 98.233 68.813V64.1879C98.233 64.1342 98.202 64.1074 98.14 64.1074H97.1518C97.0898 64.1074 97.0394 64.0844 97.0007 64.0383C96.9619 64 96.9425 63.954 96.9425 63.9003V62.3586C96.9425 62.3049 96.9619 62.255 97.0007 62.209C97.0394 62.1707 97.0898 62.1515 97.1518 62.1515H98.14C98.202 62.1515 98.233 62.1208 98.233 62.0594V60.0115C98.233 59.9578 98.2523 59.9079 98.2911 59.8619C98.3298 59.8236 98.3802 59.8044 98.4422 59.8044H100.395C100.45 59.8044 100.496 59.8236 100.535 59.8619C100.581 59.9079 100.605 59.9578 100.605 60.0115V62.0594C100.605 62.1208 100.632 62.1515 100.686 62.1515H102.36C102.422 62.1515 102.472 62.1707 102.511 62.209C102.55 62.255 102.569 62.3049 102.569 62.3586V63.9003ZM103.999 74.4506C103.968 74.4506 103.941 74.4314 103.918 74.3931C103.895 74.3547 103.883 74.3049 103.883 74.2435V72.6673C103.883 72.6059 103.902 72.5561 103.941 72.5177C103.98 72.4717 104.03 72.4487 104.092 72.4487C104.58 72.441 104.964 72.4027 105.243 72.3336C105.53 72.2646 105.758 72.1304 105.929 71.931C106.099 71.7392 106.231 71.4516 106.324 71.0681C106.332 71.0451 106.332 71.0144 106.324 70.976L103.464 62.3816C103.449 62.3586 103.441 62.3279 103.441 62.2895C103.441 62.1898 103.507 62.14 103.639 62.14H105.813C105.944 62.14 106.026 62.1975 106.057 62.3125L107.522 67.9041C107.537 67.9348 107.557 67.9501 107.58 67.9501C107.603 67.9501 107.619 67.9348 107.626 67.9041L109.091 62.3125C109.13 62.1975 109.211 62.14 109.335 62.14H111.463C111.532 62.14 111.583 62.1591 111.614 62.1975C111.645 62.2358 111.649 62.2972 111.625 62.3816L108.603 71.3442C108.316 72.1879 108.022 72.8207 107.719 73.2426C107.417 73.6644 106.991 73.9712 106.44 74.163C105.898 74.3547 105.127 74.4506 104.127 74.4506H103.999ZM68.8091 47.4707C68.7393 47.5014 68.7393 47.5359 68.8091 47.5743C69.9096 48.1342 70.4599 49.07 70.4599 50.3816C70.4599 51.5014 70.0762 52.3451 69.309 52.9127C68.5417 53.4803 67.538 53.7641 66.298 53.7641H61.7757C61.7214 53.7641 61.6749 53.745 61.6362 53.7066C61.5897 53.6683 61.5664 53.6184 61.5664 53.557V41.8907C61.5664 41.837 61.5897 41.7871 61.6362 41.7411C61.6749 41.7028 61.7214 41.6836 61.7757 41.6836H66.1585C68.9098 41.6836 70.2855 42.7881 70.2855 44.9971C70.2855 46.1476 69.7933 46.9722 68.8091 47.4707ZM64.1124 43.766C64.0581 43.766 64.031 43.7967 64.031 43.8581V46.5503C64.031 46.6117 64.0581 46.6424 64.1124 46.6424H66.1585C66.701 46.6424 67.1273 46.5158 67.4373 46.2627C67.7318 46.0096 67.879 45.6644 67.879 45.2272C67.879 44.7747 67.7318 44.418 67.4373 44.1572C67.1273 43.8964 66.701 43.766 66.1585 43.766H64.1124ZM66.298 51.6587C66.8327 51.6587 67.2513 51.5244 67.5535 51.256C67.8558 50.9875 68.0069 50.6155 68.0069 50.14C68.0069 49.6721 67.8558 49.3001 67.5535 49.024C67.2513 48.7555 66.825 48.6213 66.2747 48.6213H64.1124C64.0581 48.6213 64.031 48.652 64.031 48.7133V51.5666C64.031 51.628 64.0581 51.6587 64.1124 51.6587H66.298ZM80.1555 48.4142C80.2252 48.8514 80.2485 49.3384 80.2252 49.8753C80.2175 50.0211 80.1438 50.094 80.0043 50.094H74.6101C74.5404 50.094 74.5171 50.1208 74.5404 50.1745C74.5791 50.4046 74.645 50.6347 74.738 50.8648C75.0403 51.5091 75.6564 51.8312 76.5865 51.8312C77.3305 51.8236 77.9156 51.5244 78.3419 50.9338C78.3884 50.8648 78.4426 50.8303 78.5046 50.8303C78.5356 50.8303 78.5744 50.8533 78.6209 50.8993L79.8764 52.1189C79.9384 52.1802 79.9695 52.2339 79.9695 52.2799C79.9695 52.303 79.9462 52.349 79.8997 52.418C79.5122 52.8936 79.0162 53.2579 78.4116 53.511C77.8149 53.7718 77.1522 53.9022 76.4237 53.9022C75.4239 53.9022 74.5791 53.6798 73.8894 53.2349C73.1996 52.7823 72.7036 52.1534 72.4013 51.348C72.1533 50.7728 72.0293 50.0211 72.0293 49.093C72.0293 48.4564 72.1184 47.8964 72.2967 47.4132C72.5602 46.6002 73.0291 45.9521 73.7034 45.4688C74.3699 44.9856 75.1604 44.744 76.0749 44.744C77.2375 44.744 78.1714 45.0776 78.8767 45.745C79.5819 46.4123 80.0082 47.302 80.1555 48.4142ZM76.0982 46.8495C75.3619 46.8495 74.8775 47.1869 74.645 47.8619C74.5985 48.0153 74.5598 48.1994 74.5288 48.4142C74.5288 48.4679 74.5559 48.4947 74.6101 48.4947H77.6327C77.7025 48.4947 77.7257 48.4679 77.7025 48.4142C77.6405 48.0844 77.6095 47.9233 77.6095 47.931C77.5087 47.5858 77.3266 47.3173 77.0631 47.1256C76.7996 46.9415 76.478 46.8495 76.0982 46.8495ZM85.2009 53.8792C84.4181 53.8792 83.7361 53.7718 83.1548 53.557C82.5735 53.3423 82.124 53.0393 81.8063 52.6481C81.4885 52.2569 81.3296 51.8121 81.3296 51.3135V51.1409C81.3296 51.0872 81.349 51.0374 81.3878 50.9914C81.4265 50.953 81.4769 50.9338 81.5389 50.9338H83.4687C83.5307 50.9338 83.5811 50.953 83.6198 50.9914C83.6586 51.0374 83.678 51.0872 83.678 51.1409V51.1524C83.678 51.4132 83.8213 51.6318 84.1081 51.8082C84.3949 51.9846 84.7514 52.0729 85.1776 52.0729C85.5729 52.0729 85.8945 51.9962 86.1425 51.8428C86.3828 51.6817 86.5029 51.4899 86.5029 51.2675C86.5029 51.0604 86.3983 50.9032 86.189 50.7958C85.9798 50.6961 85.6388 50.5887 85.166 50.4736C84.6157 50.3356 84.1856 50.2013 83.8756 50.0709C83.1316 49.8178 82.5387 49.5072 82.0969 49.139C81.6551 48.7708 81.4342 48.2416 81.4342 47.5513C81.4342 46.6999 81.7675 46.0249 82.434 45.5264C83.1006 45.0278 83.988 44.7785 85.0963 44.7785C85.8403 44.7785 86.4913 44.8936 87.0493 45.1237C87.6073 45.3614 88.0414 45.6951 88.3514 46.1246C88.6536 46.5465 88.8048 47.0297 88.8048 47.5743C88.8048 47.628 88.7854 47.674 88.7466 47.7124C88.7079 47.7507 88.6575 47.7699 88.5955 47.7699H86.7354C86.6734 47.7699 86.6231 47.7507 86.5843 47.7124C86.5456 47.674 86.5262 47.628 86.5262 47.5743C86.5262 47.3212 86.3944 47.1064 86.1309 46.93C85.8674 46.7536 85.5225 46.6654 85.0963 46.6654C84.7087 46.6654 84.3949 46.7382 84.1546 46.884C83.9066 47.022 83.7826 47.21 83.7826 47.4477C83.7826 47.6778 83.9027 47.8504 84.143 47.9655C84.3832 48.0805 84.7824 48.2032 85.3404 48.3336C85.4644 48.3643 85.6078 48.3988 85.7705 48.4372C85.9333 48.4755 86.1077 48.5254 86.2937 48.5868C87.1229 48.8322 87.774 49.1428 88.2467 49.5187C88.7273 49.9022 88.9675 50.4544 88.9675 51.1754C88.9675 52.0268 88.6265 52.6903 87.9445 53.1659C87.2625 53.6414 86.3479 53.8792 85.2009 53.8792ZM95.501 46.6424C95.501 46.6961 95.4816 46.7421 95.4429 46.7804C95.4041 46.8265 95.3537 46.8495 95.2917 46.8495H93.6177C93.5634 46.8495 93.5363 46.8763 93.5363 46.93V50.5887C93.5363 50.9645 93.6138 51.2483 93.7688 51.4401C93.9238 51.6241 94.1796 51.7162 94.5361 51.7162H95.1057C95.16 51.7162 95.2104 51.7354 95.2569 51.7737C95.2956 51.8121 95.315 51.8619 95.315 51.9233V53.557C95.315 53.6874 95.2452 53.7603 95.1057 53.7756C94.6175 53.7986 94.2687 53.8102 94.0594 53.8102C93.0907 53.8102 92.3699 53.6529 91.8971 53.3384C91.4166 53.024 91.1725 52.4295 91.1647 51.5551V46.93C91.1647 46.8763 91.1337 46.8495 91.0717 46.8495H90.0836C90.0215 46.8495 89.9712 46.8265 89.9324 46.7804C89.8937 46.7421 89.8743 46.6961 89.8743 46.6424V45.1007C89.8743 45.047 89.8937 44.9971 89.9324 44.9511C89.9712 44.9127 90.0215 44.8936 90.0836 44.8936H91.0717C91.1337 44.8936 91.1647 44.8629 91.1647 44.8015V42.7536C91.1647 42.6999 91.1841 42.65 91.2228 42.604C91.2616 42.5657 91.312 42.5465 91.374 42.5465H93.327C93.3813 42.5465 93.4317 42.5657 93.4782 42.604C93.5169 42.65 93.5363 42.6999 93.5363 42.7536V44.8015C93.5363 44.8629 93.5634 44.8936 93.6177 44.8936H95.2917C95.3537 44.8936 95.4041 44.9127 95.4429 44.9511C95.4816 44.9971 95.501 45.047 95.501 45.1007V46.6424Z" fill="#252530"/>
<path d="M62.9614 88.8323C62.3568 88.8323 61.8298 88.7364 61.3803 88.5446C60.9308 88.3529 60.582 88.0844 60.334 87.7393C60.0938 87.3941 59.9736 86.9876 59.9736 86.5197V86.2321C59.9736 86.1937 59.9891 86.1592 60.0201 86.1285C60.0434 86.1055 60.0744 86.094 60.1131 86.094H61.1478C61.1866 86.094 61.2214 86.1055 61.2524 86.1285C61.2757 86.1592 61.2873 86.1937 61.2873 86.2321V86.4507C61.2873 86.8035 61.4462 87.095 61.7639 87.3251C62.0817 87.5628 62.5157 87.6817 63.066 87.6817C63.5388 87.6817 63.8953 87.582 64.1355 87.3826C64.3758 87.1832 64.4959 86.9262 64.4959 86.6117C64.4959 86.397 64.43 86.2129 64.2983 86.0595C64.1665 85.9138 63.9805 85.7795 63.7403 85.6568C63.4923 85.5341 63.1241 85.3807 62.6359 85.1966C62.0856 84.9972 61.6399 84.8092 61.2989 84.6328C60.9579 84.4564 60.675 84.2148 60.4503 83.908C60.2178 83.6089 60.1015 83.233 60.1015 82.7805C60.1015 82.1055 60.3495 81.5724 60.8455 81.1813C61.3416 80.7901 62.0042 80.5945 62.8335 80.5945C63.4148 80.5945 63.9301 80.6942 64.3797 80.8936C64.8214 81.093 65.1663 81.373 65.4143 81.7335C65.6623 82.0863 65.7863 82.4967 65.7863 82.9646V83.1602C65.7863 83.1985 65.7708 83.233 65.7398 83.2637C65.7166 83.2867 65.6856 83.2982 65.6468 83.2982H64.6005C64.5618 83.2982 64.5308 83.2867 64.5075 83.2637C64.4765 83.233 64.461 83.1985 64.461 83.1602V83.0336C64.461 82.6731 64.3138 82.3701 64.0193 82.1247C63.717 81.8716 63.3024 81.745 62.7754 81.745C62.3491 81.745 62.0197 81.8332 61.7872 82.0096C61.5469 82.186 61.4268 82.4353 61.4268 82.7575C61.4268 82.9876 61.4888 83.1755 61.6128 83.3212C61.7368 83.467 61.9228 83.5974 62.1708 83.7124C62.4188 83.8351 62.8025 83.9885 63.3218 84.1726C63.872 84.3797 64.3138 84.5676 64.647 84.7364C64.9726 84.9051 65.2554 85.1391 65.4957 85.4382C65.7282 85.745 65.8445 86.1247 65.8445 86.5772C65.8445 87.2675 65.5848 87.816 65.0656 88.2225C64.554 88.629 63.8526 88.8323 62.9614 88.8323ZM70.4714 80.675C70.9596 80.675 71.3898 80.7747 71.7618 80.9742C72.1338 81.1736 72.4206 81.4535 72.6221 81.814C72.8313 82.1822 72.936 82.6041 72.936 83.0796C72.936 83.5475 72.8313 83.9617 72.6221 84.3222C72.4128 84.6827 72.1183 84.9588 71.7385 85.1506C71.351 85.35 70.9054 85.4497 70.4016 85.4497H68.5416C68.5028 85.4497 68.4834 85.4689 68.4834 85.5072V88.6022C68.4834 88.6405 68.4718 88.6712 68.4486 88.6942C68.4176 88.7249 68.3827 88.7402 68.3439 88.7402H67.2744C67.2356 88.7402 67.2046 88.7249 67.1814 88.6942C67.1504 88.6712 67.1349 88.6405 67.1349 88.6022V80.8131C67.1349 80.7747 67.1504 80.7402 67.1814 80.7095C67.2046 80.6865 67.2356 80.675 67.2744 80.675H70.4714ZM70.2737 84.3682C70.669 84.3682 70.9868 84.2532 71.227 84.0231C71.4673 83.793 71.5874 83.49 71.5874 83.1141C71.5874 82.7306 71.4673 82.42 71.227 82.1822C70.9868 81.9444 70.669 81.8255 70.2737 81.8255H68.5416C68.5028 81.8255 68.4834 81.8447 68.4834 81.8831V84.3107C68.4834 84.349 68.5028 84.3682 68.5416 84.3682H70.2737ZM78.6905 88.7402C78.613 88.7402 78.5588 88.7057 78.5278 88.6367L76.9932 85.3232C76.9777 85.2925 76.9545 85.2771 76.9235 85.2771H75.5284C75.4897 85.2771 75.4703 85.2963 75.4703 85.3347V88.6022C75.4703 88.6405 75.4548 88.6712 75.4238 88.6942C75.4005 88.7249 75.3695 88.7402 75.3308 88.7402H74.2613C74.2225 88.7402 74.1915 88.7249 74.1682 88.6942C74.1372 88.6712 74.1218 88.6405 74.1218 88.6022V80.8246C74.1218 80.7862 74.1372 80.7556 74.1682 80.7325C74.1915 80.7019 74.2225 80.6865 74.2613 80.6865H77.4582C77.931 80.6865 78.3495 80.7824 78.7138 80.9742C79.078 81.1736 79.3609 81.4497 79.5624 81.8025C79.7639 82.163 79.8647 82.5734 79.8647 83.0336C79.8647 83.5628 79.7291 84.0115 79.4578 84.3797C79.1788 84.7556 78.7952 85.0163 78.3069 85.1621C78.2914 85.1621 78.2798 85.1697 78.272 85.1851C78.2643 85.2004 78.2643 85.2158 78.272 85.2311L79.9112 88.5791C79.9267 88.6098 79.9345 88.6328 79.9345 88.6482C79.9345 88.7095 79.8918 88.7402 79.8066 88.7402H78.6905ZM75.5284 81.8371C75.4897 81.8371 75.4703 81.8562 75.4703 81.8946V84.1841C75.4703 84.2225 75.4897 84.2417 75.5284 84.2417H77.2722C77.6442 84.2417 77.9426 84.1304 78.1674 83.908C78.3999 83.6932 78.5162 83.4056 78.5162 83.0451C78.5162 82.6846 78.3999 82.3931 78.1674 82.1707C77.9426 81.9483 77.6442 81.8371 77.2722 81.8371H75.5284ZM81.3876 88.7402C81.3489 88.7402 81.314 88.7249 81.283 88.6942C81.2597 88.6712 81.2481 88.6405 81.2481 88.6022V80.8246C81.2481 80.7862 81.2597 80.7556 81.283 80.7325C81.314 80.7019 81.3489 80.6865 81.3876 80.6865H82.4572C82.4959 80.6865 82.5269 80.7019 82.5502 80.7325C82.5812 80.7556 82.5967 80.7862 82.5967 80.8246V88.6022C82.5967 88.6405 82.5812 88.6712 82.5502 88.6942C82.5269 88.7249 82.4959 88.7402 82.4572 88.7402H81.3876ZM89.0255 80.8246C89.0255 80.7862 89.041 80.7556 89.072 80.7325C89.0953 80.7019 89.1263 80.6865 89.165 80.6865H90.2346C90.2733 80.6865 90.3082 80.7019 90.3392 80.7325C90.3624 80.7556 90.3741 80.7862 90.3741 80.8246V88.6022C90.3741 88.6405 90.3624 88.6712 90.3392 88.6942C90.3082 88.7249 90.2733 88.7402 90.2346 88.7402H89.1999C89.1224 88.7402 89.0681 88.7095 89.0371 88.6482L85.689 83.2177C85.6735 83.1947 85.658 83.1832 85.6425 83.1832C85.627 83.1908 85.6193 83.21 85.6193 83.2407L85.6425 88.6022C85.6425 88.6405 85.627 88.6712 85.596 88.6942C85.5728 88.7249 85.5418 88.7402 85.503 88.7402H84.4335C84.3947 88.7402 84.3637 88.7249 84.3405 88.6942C84.3095 88.6712 84.294 88.6405 84.294 88.6022V80.8246C84.294 80.7862 84.3095 80.7556 84.3405 80.7325C84.3637 80.7019 84.3947 80.6865 84.4335 80.6865H85.4681C85.5456 80.6865 85.5999 80.7172 85.6309 80.7786L88.9674 86.2091C88.9829 86.2321 88.9984 86.2397 89.0139 86.2321C89.0294 86.2321 89.0371 86.2167 89.0371 86.186L89.0255 80.8246ZM94.7917 88.8323C94.2104 88.8323 93.6989 88.721 93.2572 88.4986C92.8154 88.2685 92.4744 87.9464 92.2341 87.5322C91.9939 87.118 91.8737 86.6424 91.8737 86.1055V83.3212C91.8737 82.7767 91.9939 82.2973 92.2341 81.8831C92.4744 81.4766 92.8154 81.1582 93.2572 80.9281C93.6989 80.7057 94.2104 80.5945 94.7917 80.5945C95.3652 80.5945 95.8729 80.7057 96.3146 80.9281C96.7487 81.1506 97.0858 81.4535 97.3261 81.8371C97.5663 82.2206 97.6864 82.6539 97.6864 83.1371V83.2292C97.6864 83.2675 97.6748 83.2982 97.6516 83.3212C97.6206 83.3519 97.5857 83.3673 97.5469 83.3673H96.489C96.4503 83.3673 96.4193 83.3519 96.396 83.3212C96.365 83.2982 96.3495 83.2675 96.3495 83.2292V83.1717C96.3495 82.7575 96.2061 82.4161 95.9194 82.1477C95.6404 81.8792 95.2645 81.745 94.7917 81.745C94.3189 81.745 93.9392 81.8869 93.6524 82.1707C93.3657 82.4468 93.2223 82.815 93.2223 83.2752V86.1515C93.2223 86.6117 93.3734 86.9837 93.6757 87.2675C93.9779 87.5437 94.3693 87.6817 94.8498 87.6817C95.3149 87.6817 95.683 87.559 95.9543 87.3136C96.2178 87.0758 96.3495 86.746 96.3495 86.3241V85.6108C96.3495 85.5724 96.3301 85.5533 96.2914 85.5533H94.8615C94.8227 85.5533 94.7878 85.5379 94.7568 85.5072C94.7336 85.4842 94.722 85.4535 94.722 85.4152V84.5638C94.722 84.5254 94.7336 84.4948 94.7568 84.4718C94.7878 84.4411 94.8227 84.4257 94.8615 84.4257H97.5469C97.5857 84.4257 97.6206 84.4411 97.6516 84.4718C97.6748 84.4948 97.6864 84.5254 97.6864 84.5638V86.0365C97.6864 86.9186 97.4268 87.605 96.9075 88.0959C96.3805 88.5868 95.6752 88.8323 94.7917 88.8323Z" fill="#242530"/>
<path d="M63.9962 109.519C63.9729 109.542 63.9652 109.565 63.9729 109.588C63.9884 109.611 64.0117 109.622 64.0427 109.622H68.6115C68.6657 109.622 68.7122 109.641 68.751 109.68C68.7975 109.718 68.8207 109.764 68.8207 109.818V111.44C68.8207 111.494 68.7975 111.54 68.751 111.578C68.7122 111.616 68.6657 111.636 68.6115 111.636H61.0317C60.9697 111.636 60.9193 111.616 60.8806 111.578C60.8418 111.54 60.8224 111.494 60.8224 111.44V109.898C60.8224 109.798 60.8573 109.714 60.9271 109.645C61.4773 109.116 62.0392 108.537 62.6128 107.908C63.1863 107.279 63.5467 106.888 63.6939 106.734C64.0039 106.366 64.3217 106.013 64.6472 105.676C65.6702 104.556 66.1817 103.724 66.1817 103.179C66.1817 102.788 66.0422 102.466 65.7632 102.213C65.4842 101.967 65.12 101.845 64.6704 101.845C64.2209 101.845 63.8567 101.967 63.5777 102.213C63.2909 102.466 63.1475 102.799 63.1475 103.214V103.628C63.1475 103.682 63.1281 103.728 63.0894 103.766C63.0506 103.804 63.0041 103.823 62.9499 103.823H60.9619C60.9077 103.823 60.8612 103.804 60.8224 103.766C60.7759 103.728 60.7527 103.682 60.7527 103.628V102.845C60.7914 102.247 60.9852 101.714 61.334 101.246C61.6827 100.786 62.1439 100.433 62.7174 100.188C63.2986 99.9423 63.9497 99.8196 64.6704 99.8196C65.4687 99.8196 66.1624 99.9691 66.7514 100.268C67.3404 100.56 67.7938 100.955 68.1116 101.453C68.4371 101.96 68.5998 102.516 68.5998 103.122C68.5998 103.589 68.4797 104.069 68.2394 104.56C68.0069 105.051 67.6543 105.58 67.1815 106.147C66.8328 106.577 66.4569 107.007 66.0539 107.436C65.6509 107.858 65.0502 108.468 64.2519 109.265L63.9962 109.519ZM74.2963 111.82C73.0562 111.82 72.0797 111.478 71.3667 110.796C70.6459 110.113 70.2855 109.181 70.2855 108V103.593C70.2855 102.435 70.6459 101.519 71.3667 100.844C72.0797 100.161 73.0562 99.8196 74.2963 99.8196C75.5286 99.8196 76.509 100.161 77.2375 100.844C77.9583 101.519 78.3187 102.435 78.3187 103.593V108C78.3187 109.181 77.9583 110.113 77.2375 110.796C76.509 111.478 75.5286 111.82 74.2963 111.82ZM74.2963 109.806C74.8 109.806 75.1992 109.653 75.4937 109.346C75.796 109.039 75.9471 108.629 75.9471 108.115V103.524C75.9471 103.018 75.796 102.612 75.4937 102.305C75.1992 101.998 74.8 101.845 74.2963 101.845C73.8003 101.845 73.405 101.998 73.1105 102.305C72.8082 102.612 72.6571 103.018 72.6571 103.524V108.115C72.6571 108.629 72.8082 109.039 73.1105 109.346C73.405 109.653 73.8003 109.806 74.2963 109.806ZM83.0386 109.519C83.0153 109.542 83.0115 109.565 83.027 109.588C83.0347 109.611 83.058 109.622 83.0967 109.622H87.6655C87.7197 109.622 87.7662 109.641 87.805 109.68C87.8437 109.718 87.8631 109.764 87.8631 109.818V111.44C87.8631 111.494 87.8437 111.54 87.805 111.578C87.7662 111.616 87.7197 111.636 87.6655 111.636H80.0741C80.0199 111.636 79.9734 111.616 79.9346 111.578C79.8959 111.54 79.8765 111.494 79.8765 111.44V109.898C79.8765 109.798 79.9075 109.714 79.9695 109.645C80.5275 109.116 81.0894 108.537 81.6552 107.908C82.2287 107.279 82.5891 106.888 82.7363 106.734C83.0541 106.366 83.3757 106.013 83.7012 105.676C84.7243 104.556 85.2358 103.724 85.2358 103.179C85.2358 102.788 85.0963 102.466 84.8173 102.213C84.5305 101.967 84.1624 101.845 83.7129 101.845C83.2633 101.845 82.8991 101.967 82.6201 102.213C82.3411 102.466 82.2016 102.799 82.2016 103.214V103.628C82.2016 103.682 82.1822 103.728 82.1434 103.766C82.1047 103.804 82.0543 103.823 81.9923 103.823H80.0044C79.9501 103.823 79.9036 103.804 79.8648 103.766C79.8261 103.728 79.8067 103.682 79.8067 103.628V102.845C79.8377 102.247 80.0276 101.714 80.3764 101.246C80.7251 100.786 81.1901 100.433 81.7714 100.188C82.3527 99.9423 82.9998 99.8196 83.7129 99.8196C84.5111 99.8196 85.2048 99.9691 85.7938 100.268C86.3906 100.56 86.8478 100.955 87.1656 101.453C87.4834 101.96 87.6422 102.516 87.6422 103.122C87.6422 103.589 87.526 104.069 87.2935 104.56C87.0532 105.051 86.6967 105.58 86.2239 106.147C85.8752 106.577 85.4993 107.007 85.0963 107.436C84.6933 107.858 84.0926 108.468 83.2943 109.265L83.0386 109.519ZM96.3613 106.067C96.5861 106.573 96.6984 107.16 96.6984 107.827C96.6984 108.433 96.5977 108.989 96.3962 109.496C96.1249 110.209 95.6715 110.765 95.036 111.164C94.4005 111.57 93.6487 111.774 92.7807 111.774C91.9281 111.774 91.1802 111.563 90.537 111.141C89.8937 110.711 89.4287 110.136 89.1419 109.415C88.9869 108.985 88.8978 108.518 88.8745 108.011C88.8745 107.881 88.9404 107.816 89.0722 107.816H91.0717C91.2035 107.816 91.2694 107.881 91.2694 108.011C91.3159 108.38 91.3779 108.652 91.4554 108.828C91.5561 109.12 91.7228 109.346 91.9553 109.507C92.18 109.668 92.4513 109.749 92.769 109.749C93.3968 109.749 93.8308 109.476 94.0711 108.932C94.2261 108.602 94.3036 108.215 94.3036 107.77C94.3036 107.24 94.2183 106.811 94.0478 106.481C93.7921 105.96 93.3619 105.699 92.7574 105.699C92.6334 105.699 92.5017 105.733 92.3622 105.802C92.2304 105.879 92.0676 105.983 91.8739 106.113C91.8274 106.144 91.7848 106.159 91.746 106.159C91.6763 106.159 91.6259 106.128 91.5949 106.067L90.5951 104.675C90.5718 104.644 90.5602 104.606 90.5602 104.56C90.5602 104.491 90.5835 104.437 90.63 104.399L93.3038 102.075C93.3271 102.052 93.3387 102.029 93.3387 102.006C93.3309 101.983 93.3116 101.971 93.2806 101.971H89.3163C89.2621 101.971 89.2117 101.952 89.1652 101.914C89.1264 101.875 89.107 101.829 89.107 101.775V100.153C89.107 100.1 89.1264 100.054 89.1652 100.015C89.2117 99.9768 89.2621 99.9576 89.3163 99.9576H96.338C96.4 99.9576 96.4504 99.9768 96.4892 100.015C96.5279 100.054 96.5473 100.1 96.5473 100.153V101.994C96.5473 102.078 96.5086 102.163 96.431 102.247L94.2222 104.249C94.199 104.272 94.1912 104.291 94.199 104.307C94.199 104.33 94.2222 104.341 94.2687 104.341C95.2453 104.533 95.9428 105.108 96.3613 106.067Z" fill="#252530"/>
</g>
<defs>
<filter id="filter0_ddd_1734_47756" x="0.900026" y="9.53674e-07" width="156" height="168" filterUnits="userSpaceOnUse" color-interpolation-filters="sRGB">
<feFlood flood-opacity="0" result="BackgroundImageFix"/>
<feColorMatrix in="SourceAlpha" type="matrix" values="0 0 0 0 0 0 0 0 0 0 0 0 0 0 0 0 0 0 127 0" result="hardAlpha"/>
<feOffset dy="4.78807"/>
<feGaussianBlur stdDeviation="2.67334"/>
<feColorMatrix type="matrix" values="0 0 0 0 0.278431 0 0 0 0 0.403922 0 0 0 0 0.533333 0 0 0 0.0403893 0"/>
<feBlend mode="normal" in2="BackgroundImageFix" result="effect1_dropShadow_1734_47756"/>
<feColorMatrix in="SourceAlpha" type="matrix" values="0 0 0 0 0 0 0 0 0 0 0 0 0 0 0 0 0 0 127 0" result="hardAlpha"/>
<feOffset dy="4.8"/>
<feGaussianBlur stdDeviation="6"/>
<feColorMatrix type="matrix" values="0 0 0 0 0.278431 0 0 0 0 0.403922 0 0 0 0 0.533333 0 0 0 0.03 0"/>
<feBlend mode="normal" in2="effect1_dropShadow_1734_47756" result="effect2_dropShadow_1734_47756"/>
<feColorMatrix in="SourceAlpha" type="matrix" values="0 0 0 0 0 0 0 0 0 0 0 0 0 0 0 0 0 0 127 0" result="hardAlpha"/>
<feOffset dy="12"/>
<feGaussianBlur stdDeviation="12"/>
<feColorMatrix type="matrix" values="0 0 0 0 0.278431 0 0 0 0 0.403922 0 0 0 0 0.533333 0 0 0 0.05 0"/>
<feBlend mode="normal" in2="effect2_dropShadow_1734_47756" result="effect3_dropShadow_1734_47756"/>
<feBlend mode="normal" in="SourceGraphic" in2="effect3_dropShadow_1734_47756" result="shape"/>
</filter>
</defs>
</svg>
