<svg xmlns="http://www.w3.org/2000/svg" width="24" height="24" fill="none" xmlns:v="https://vecta.io/nano"><style><![CDATA[.B{stroke-linejoin:round}.C{stroke-linecap:round}]]></style><g clip-path="url(#A)" stroke="#006bff" stroke-width="1.5" class="B"><g class="C"><path d="M22.749 23.25a6.73 6.73 0 0 0-6.337-4.5h-.006a6.73 6.73 0 0 0-6.336 4.5m2.781-12.219a6.86 6.86 0 0 0 7.643 1.536"/></g><path d="M12.281 13.125c0 .542.107 1.078.314 1.579s.511.955.894 1.338.838.687 1.338.894a4.13 4.13 0 0 0 1.579.314c.542 0 1.078-.107 1.579-.314s.955-.511 1.338-.894.687-.838.894-1.338a4.13 4.13 0 0 0 .314-1.579c0-.542-.107-1.078-.314-1.579s-.511-.955-.894-1.338-.838-.687-1.338-.894A4.13 4.13 0 0 0 16.406 9c-.542 0-1.078.107-1.579.314s-.955.511-1.338.894-.687.838-.894 1.338a4.13 4.13 0 0 0-.314 1.579h0zM11.156 8.25h-1.5v2.25l-3-2.25h-4.5a1.5 1.5 0 0 1-1.5-1.5v-4.5a1.5 1.5 0 0 1 1.5-1.5h9a1.5 1.5 0 0 1 1.5 1.5v4.5a1.5 1.5 0 0 1-1.5 1.5h0z"/><g class="C"><path d="M7.406 3h-3.75m6 2.25h-6"/></g><path d="M2.499 15.75a3 3 0 0 0 3 3 3 3 0 0 0 3-3 3 3 0 0 0-3-3 3 3 0 0 0-3 3z"/><g class="C"><path d="M8.162 21.132c-.769-.574-1.703-.884-2.662-.882a4.49 4.49 0 0 0-4.225 3m15.131-4.5v4.5"/></g></g><defs><clipPath id="A"><path fill="#fff" d="M0 0h24v24H0z"/></clipPath></defs></svg>