<svg width="24" height="24" viewBox="0 0 24 24" fill="none" xmlns="http://www.w3.org/2000/svg">
<path d="M5.5 23.247L9.552 13.793C9.60073 13.6789 9.62044 13.5545 9.60937 13.431C9.59829 13.3074 9.55678 13.1885 9.48853 13.0849C9.42029 12.9813 9.32744 12.8962 9.21828 12.8372C9.10912 12.7783 8.98706 12.7473 8.863 12.747H5.9C5.77554 12.7475 5.65293 12.7169 5.54324 12.6581C5.43355 12.5993 5.34025 12.5141 5.27176 12.4102C5.20327 12.3062 5.16176 12.1869 5.15098 12.0629C5.1402 11.9389 5.16048 11.8142 5.21 11.7L9.8 1.2C9.85835 1.06631 9.95441 0.952537 10.0764 0.872611C10.1985 0.792685 10.3411 0.750075 10.487 0.75H18.187C18.3283 0.750051 18.4667 0.790018 18.5863 0.8653C18.7059 0.940581 18.8018 1.04811 18.8629 1.17551C18.924 1.3029 18.9479 1.44497 18.9319 1.58536C18.9158 1.72575 18.8604 1.85873 18.772 1.969L14.722 7.032C14.6339 7.14235 14.5787 7.27533 14.5628 7.41564C14.5469 7.55596 14.571 7.69791 14.6322 7.82516C14.6934 7.95241 14.7893 8.05979 14.9089 8.13495C15.0284 8.21011 15.1668 8.24999 15.308 8.25H18.69C18.8384 8.24993 18.9836 8.29392 19.107 8.37639C19.2304 8.45886 19.3266 8.5761 19.3834 8.71327C19.4401 8.85044 19.4549 9.00136 19.4258 9.14693C19.3967 9.2925 19.3251 9.42617 19.22 9.531L5.5 23.247Z" stroke="#006BFF" stroke-width="1.25" stroke-linejoin="round"/>
</svg>
