<svg width="22" height="24" viewBox="0 0 22 24" fill="none" xmlns="http://www.w3.org/2000/svg">
<path d="M15.4189 17.2012V17.0198V20.285C15.4189 21.2869 14.6067 22.099 13.6049 22.099H4.53493C3.5331 22.099 2.72095 21.2869 2.72095 20.285V3.59634C2.72095 2.5945 3.5331 1.78235 4.53493 1.78235H9.0699H13.6049C14.6067 1.78235 15.4189 2.5945 15.4189 3.59634V5.04753" stroke="#006BFF" stroke-width="1.25" stroke-linecap="round" stroke-linejoin="round"/>
<path d="M2.72095 16.5663H15.4189" stroke="#006BFF" stroke-width="1.25" stroke-linecap="round" stroke-linejoin="round"/>
<path d="M9.06694 11.9034C9.15342 11.9246 9.24329 11.9282 9.33118 11.9139C9.41907 11.8996 9.50316 11.8676 9.57841 11.82C9.65366 11.7724 9.71852 11.7101 9.7691 11.6368C9.81968 11.5635 9.85494 11.4808 9.87276 11.3935C9.89059 11.3063 9.89061 11.2163 9.87282 11.1291C9.85504 11.0418 9.81982 10.959 9.76927 10.8857C9.71873 10.8124 9.6539 10.7501 9.57867 10.7024C9.50344 10.6548 9.41936 10.6228 9.33148 10.6085C8.88671 10.5171 8.47295 10.3127 8.13002 10.0151C7.78709 9.71751 7.52653 9.33664 7.37343 8.90917C7.22033 8.48169 7.17983 8.02201 7.25584 7.57435C7.33185 7.12669 7.52181 6.70614 7.80742 6.35316C8.09304 6.00017 8.46471 5.72665 8.88665 5.55891C9.3086 5.39117 9.76662 5.33486 10.2166 5.39541C10.6666 5.45595 11.0935 5.6313 11.4561 5.90459C11.8187 6.17788 12.1049 6.5399 12.2871 6.95582C12.32 7.03803 12.3691 7.11279 12.4315 7.17566C12.4938 7.23853 12.5682 7.28824 12.6501 7.32183C12.7321 7.35542 12.8199 7.37221 12.9085 7.37121C12.997 7.3702 13.0845 7.35142 13.1656 7.31598C13.2468 7.28054 13.32 7.22916 13.3809 7.16489C13.4419 7.10062 13.4893 7.02476 13.5203 6.94183C13.5514 6.85889 13.5655 6.77056 13.5617 6.68208C13.558 6.5936 13.5366 6.50677 13.4986 6.42674C13.2255 5.80265 12.7962 5.25941 12.2522 4.84931C11.7082 4.43922 11.0678 4.17608 10.3927 4.08524C9.71748 3.9944 9.0303 4.07892 8.39726 4.33065C7.76422 4.58239 7.20666 4.99286 6.77825 5.52256C6.34984 6.05225 6.06502 6.68332 5.95121 7.355C5.8374 8.02668 5.89844 8.71635 6.12844 9.3576C6.35844 9.99885 6.74966 10.5701 7.26444 11.0163C7.77921 11.4625 8.4002 11.7687 9.0676 11.9054L9.06694 11.9034Z" fill="#006BFF"/>
<path d="M13.6378 8.82934L13.4427 9.02444C13.4274 9.03982 13.4092 9.05202 13.3892 9.06035C13.3692 9.06867 13.3477 9.07296 13.326 9.07296C13.3043 9.07296 13.2828 9.06867 13.2628 9.06035C13.2428 9.05202 13.2246 9.03982 13.2093 9.02444L11.6882 7.50334C11.4566 7.27302 11.162 7.11644 10.8416 7.05336C10.5211 6.99027 10.1892 7.0235 9.8876 7.14886C9.58602 7.27422 9.32832 7.48609 9.14701 7.75774C8.9657 8.02939 8.86891 8.34865 8.86884 8.67525C8.86814 8.89245 8.91064 9.10762 8.99386 9.30824C9.07708 9.50886 9.19937 9.69093 9.35361 9.84385L11.6207 12.1116C11.2701 12.1815 10.9564 12.3754 10.7369 12.6576C10.5175 12.9399 10.407 13.2917 10.4258 13.6488C10.4445 14.0058 10.5911 14.3442 10.8388 14.602C11.0865 14.8598 11.4188 15.0197 11.7748 15.0526L14.3289 15.2888C14.4165 15.2988 14.5051 15.2914 14.5897 15.2667C14.6743 15.2421 14.7532 15.2008 14.8216 15.1452C14.89 15.0897 14.9466 15.021 14.9881 14.9433C15.0296 14.8656 15.0552 14.7804 15.0633 14.6926C15.0714 14.6049 15.0619 14.5164 15.0353 14.4324C15.0088 14.3484 14.9657 14.2705 14.9086 14.2034C14.8515 14.1363 14.7816 14.0812 14.703 14.0415C14.6243 14.0017 14.5385 13.9781 14.4506 13.972L11.8958 13.7366C11.8525 13.732 11.8127 13.7108 11.7849 13.6773C11.7571 13.6438 11.7435 13.6007 11.747 13.5573C11.7475 13.5352 11.7527 13.5134 11.7623 13.4935C11.7719 13.4735 11.7856 13.4559 11.8026 13.4416C11.8196 13.4274 11.8394 13.417 11.8607 13.4111C11.882 13.4051 11.9044 13.4038 11.9263 13.4072C12.3366 13.396 12.7459 13.3618 13.1524 13.3047C13.2773 13.2933 13.3964 13.2466 13.4958 13.17C13.5952 13.0935 13.6707 12.9902 13.7136 12.8724C13.7565 12.7545 13.7651 12.6269 13.7382 12.5043C13.7113 12.3818 13.6501 12.2695 13.5618 12.1804L10.2888 8.90672C10.2285 8.84436 10.1952 8.76083 10.1959 8.67412C10.1967 8.58742 10.2315 8.50448 10.2928 8.44317C10.3541 8.38186 10.437 8.34709 10.5237 8.34633C10.6104 8.34558 10.694 8.37891 10.7563 8.43915L12.8601 10.5436C12.9841 10.6675 13.1523 10.7372 13.3277 10.7372C13.503 10.7372 13.6712 10.6675 13.7952 10.5436L14.575 9.76449C14.8689 9.48376 15.2597 9.32712 15.6662 9.32712C16.0727 9.32712 16.4635 9.48376 16.7574 9.76449L18.0027 11.0118C18.1268 11.1358 18.2951 11.2054 18.4705 11.2054C18.646 11.2053 18.8142 11.1356 18.9382 11.0115C19.0622 10.8874 19.1319 10.7191 19.1318 10.5437C19.1317 10.3682 19.062 10.2 18.9379 10.076L17.6899 8.82934C17.4241 8.56267 17.1083 8.35108 16.7606 8.20671C16.4129 8.06234 16.0401 7.98803 15.6635 7.98803C15.287 7.98803 14.9142 8.06234 14.5665 8.20671C14.2188 8.35108 13.903 8.56267 13.6372 8.82934H13.6378Z" fill="#006BFF"/>
</svg>
